<?xml version="1.0" encoding="us-ascii" standalone="no"?><svg xmlns="http://www.w3.org/2000/svg" xmlns:xlink="http://www.w3.org/1999/xlink" contentStyleType="text/css" height="1441.6667px" preserveAspectRatio="none" style="width:1866px;height:1441px;background:#FFFFFF;" version="1.1" viewBox="0 0 1866 1441" width="1866.6667px" zoomAndPan="magnify"><defs/><g><!--cluster core--><g id="cluster_core"><path d="M19.2708,20 L61.9792,20 A6.25,6.25 0 0 1 66.1458,24.1667 L73.4375,51.2174 L1010.4167,51.2174 A4.1667,4.1667 0 0 1 1014.5833,55.3841 L1014.5833,786.6667 A4.1667,4.1667 0 0 1 1010.4167,790.8333 L19.2708,790.8333 A4.1667,4.1667 0 0 1 15.1042,786.6667 L15.1042,24.1667 A4.1667,4.1667 0 0 1 19.2708,20 " fill="#FFFFFF" style="stroke:#4E5D6C;stroke-width:1.0416666666666667;"/><line style="stroke:#4E5D6C;stroke-width:1.0416666666666667;" x1="15.1042" x2="73.4375" y1="51.2174" y2="51.2174"/><text fill="#4E5D6C" font-family="Verdana" font-size="12.5" font-weight="bold" lengthAdjust="spacing" textLength="34.375" x="24.4792" y="38.8944">core</text></g><!--cluster bloc_manager.dart--><g id="cluster_bloc_manager.dart"><path d="M70.3125,224.1667 L220.3125,224.1667 A6.25,6.25 0 0 1 224.4792,228.3333 L231.7708,255.3841 L576.5625,255.3841 A4.1667,4.1667 0 0 1 580.7292,259.5508 L580.7292,355.4167 A4.1667,4.1667 0 0 1 576.5625,359.5833 L70.3125,359.5833 A4.1667,4.1667 0 0 1 66.1458,355.4167 L66.1458,228.3333 A4.1667,4.1667 0 0 1 70.3125,224.1667 " fill="#FFFFFF" style="stroke:#4E5D6C;stroke-width:1.0416666666666667;"/><line style="stroke:#4E5D6C;stroke-width:1.0416666666666667;" x1="66.1458" x2="231.7708" y1="255.3841" y2="255.3841"/><text fill="#4E5D6C" font-family="Verdana" font-size="12.5" font-weight="bold" lengthAdjust="spacing" textLength="141.6667" x="75.5208" y="243.0611">bloc_manager.dart</text></g><!--cluster data.dart--><g id="cluster_data.dart"><path d="M754.6875,72.0833 L835.9375,72.0833 A6.25,6.25 0 0 1 840.1042,76.25 L847.3958,103.3008 L922.3958,103.3008 A4.1667,4.1667 0 0 1 926.5625,107.4674 L926.5625,355.4167 A4.1667,4.1667 0 0 1 922.3958,359.5833 L754.6875,359.5833 A4.1667,4.1667 0 0 1 750.5208,355.4167 L750.5208,76.25 A4.1667,4.1667 0 0 1 754.6875,72.0833 " fill="#FFFFFF" style="stroke:#4E5D6C;stroke-width:1.0416666666666667;"/><line style="stroke:#4E5D6C;stroke-width:1.0416666666666667;" x1="750.5208" x2="847.3958" y1="103.3008" y2="103.3008"/><text fill="#4E5D6C" font-family="Verdana" font-size="12.5" font-weight="bold" lengthAdjust="spacing" textLength="72.9167" x="759.8958" y="90.9778">data.dart</text></g><!--cluster domain.dart--><g id="cluster_domain.dart"><path d="M308.3333,384.5833 L408.3333,384.5833 A6.25,6.25 0 0 1 412.5,388.75 L419.7917,415.8008 L985.4167,415.8008 A4.1667,4.1667 0 0 1 989.5833,419.9674 L989.5833,761.6667 A4.1667,4.1667 0 0 1 985.4167,765.8333 L308.3333,765.8333 A4.1667,4.1667 0 0 1 304.1667,761.6667 L304.1667,388.75 A4.1667,4.1667 0 0 1 308.3333,384.5833 " fill="#FFFFFF" style="stroke:#4E5D6C;stroke-width:1.0416666666666667;"/><line style="stroke:#4E5D6C;stroke-width:1.0416666666666667;" x1="304.1667" x2="419.7917" y1="415.8008" y2="415.8008"/><text fill="#4E5D6C" font-family="Verdana" font-size="12.5" font-weight="bold" lengthAdjust="spacing" textLength="91.6667" x="313.5417" y="403.4778">domain.dart</text></g><!--cluster interactor.dart--><g id="cluster_interactor.dart"><path d="M44.2708,580.4167 L169.2708,580.4167 A6.25,6.25 0 0 1 173.4375,584.5833 L180.7292,611.6341 L267.1875,611.6341 A4.1667,4.1667 0 0 1 271.3542,615.8008 L271.3542,711.6667 A4.1667,4.1667 0 0 1 267.1875,715.8333 L44.2708,715.8333 A4.1667,4.1667 0 0 1 40.1042,711.6667 L40.1042,584.5833 A4.1667,4.1667 0 0 1 44.2708,580.4167 " fill="#FFFFFF" style="stroke:#4E5D6C;stroke-width:1.0416666666666667;"/><line style="stroke:#4E5D6C;stroke-width:1.0416666666666667;" x1="40.1042" x2="180.7292" y1="611.6341" y2="611.6341"/><text fill="#4E5D6C" font-family="Verdana" font-size="12.5" font-weight="bold" lengthAdjust="spacing" textLength="116.6667" x="49.4792" y="599.3111">interactor.dart</text></g><!--cluster feature--><g id="cluster_feature"><path d="M15.625,815.8333 L83.3333,815.8333 A6.25,6.25 0 0 1 87.5,820 L94.7917,847.0508 L1855.2083,847.0508 A4.1667,4.1667 0 0 1 1859.375,851.2174 L1859.375,1430.4167 A4.1667,4.1667 0 0 1 1855.2083,1434.5833 L15.625,1434.5833 A4.1667,4.1667 0 0 1 11.4583,1430.4167 L11.4583,820 A4.1667,4.1667 0 0 1 15.625,815.8333 " fill="#FFFFFF" style="stroke:#4E5D6C;stroke-width:1.0416666666666667;"/><line style="stroke:#4E5D6C;stroke-width:1.0416666666666667;" x1="11.4583" x2="94.7917" y1="847.0508" y2="847.0508"/><text fill="#4E5D6C" font-family="Verdana" font-size="12.5" font-weight="bold" lengthAdjust="spacing" textLength="59.375" x="20.8333" y="834.7278">feature</text></g><!--cluster data_layer.dart--><g id="cluster_data_layer.dart"><path d="M1043.75,867.9167 L1169.7917,867.9167 A6.25,6.25 0 0 1 1173.9583,872.0833 L1181.25,899.1341 L1830.2083,899.1341 A4.1667,4.1667 0 0 1 1834.375,903.3008 L1834.375,1110.625 A4.1667,4.1667 0 0 1 1830.2083,1114.7917 L1043.75,1114.7917 A4.1667,4.1667 0 0 1 1039.5833,1110.625 L1039.5833,872.0833 A4.1667,4.1667 0 0 1 1043.75,867.9167 " fill="#FFFFFF" style="stroke:#4E5D6C;stroke-width:1.0416666666666667;"/><line style="stroke:#4E5D6C;stroke-width:1.0416666666666667;" x1="1039.5833" x2="1181.25" y1="899.1341" y2="899.1341"/><text fill="#4E5D6C" font-family="Verdana" font-size="12.5" font-weight="bold" lengthAdjust="spacing" textLength="117.7083" x="1048.9583" y="886.8111">data_layer.dart</text></g><!--cluster domain_layer.dart--><g id="cluster_domain_layer.dart"><path d="M1066.6667,1139.7917 L1211.4583,1139.7917 A6.25,6.25 0 0 1 1215.625,1143.9583 L1222.9167,1171.0091 L1555.2083,1171.0091 A4.1667,4.1667 0 0 1 1559.375,1175.1758 L1559.375,1382.5 A4.1667,4.1667 0 0 1 1555.2083,1386.6667 L1066.6667,1386.6667 A4.1667,4.1667 0 0 1 1062.5,1382.5 L1062.5,1143.9583 A4.1667,4.1667 0 0 1 1066.6667,1139.7917 " fill="#FFFFFF" style="stroke:#4E5D6C;stroke-width:1.0416666666666667;"/><line style="stroke:#4E5D6C;stroke-width:1.0416666666666667;" x1="1062.5" x2="1222.9167" y1="1171.0091" y2="1171.0091"/><text fill="#4E5D6C" font-family="Verdana" font-size="12.5" font-weight="bold" lengthAdjust="spacing" textLength="136.4583" x="1071.875" y="1158.6861">domain_layer.dart</text></g><!--cluster interactor_layer.dart--><g id="cluster_interactor_layer.dart"><path d="M346.875,867.9167 L516.6667,867.9167 A6.25,6.25 0 0 1 520.8333,872.0833 L528.125,899.1341 L972.9167,899.1341 A4.1667,4.1667 0 0 1 977.0833,903.3008 L977.0833,1022.0833 A4.1667,4.1667 0 0 1 972.9167,1026.25 L346.875,1026.25 A4.1667,4.1667 0 0 1 342.7083,1022.0833 L342.7083,872.0833 A4.1667,4.1667 0 0 1 346.875,867.9167 " fill="#FFFFFF" style="stroke:#4E5D6C;stroke-width:1.0416666666666667;"/><line style="stroke:#4E5D6C;stroke-width:1.0416666666666667;" x1="342.7083" x2="528.125" y1="899.1341" y2="899.1341"/><text fill="#4E5D6C" font-family="Verdana" font-size="12.5" font-weight="bold" lengthAdjust="spacing" textLength="161.4583" x="352.0833" y="886.8111">interactor_layer.dart</text></g><!--cluster presentation_layer.dart--><g id="cluster_presentation_layer.dart"><path d="M40.625,1051.25 L231.25,1051.25 A6.25,6.25 0 0 1 235.4167,1055.4167 L242.7083,1082.4674 L576.5625,1082.4674 A4.1667,4.1667 0 0 1 580.7292,1086.6341 L580.7292,1405.4167 A4.1667,4.1667 0 0 1 576.5625,1409.5833 L40.625,1409.5833 A4.1667,4.1667 0 0 1 36.4583,1405.4167 L36.4583,1055.4167 A4.1667,4.1667 0 0 1 40.625,1051.25 " fill="#FFFFFF" style="stroke:#4E5D6C;stroke-width:1.0416666666666667;"/><line style="stroke:#4E5D6C;stroke-width:1.0416666666666667;" x1="36.4583" x2="242.7083" y1="1082.4674" y2="1082.4674"/><text fill="#4E5D6C" font-family="Verdana" font-size="12.5" font-weight="bold" lengthAdjust="spacing" textLength="182.2917" x="45.8333" y="1070.1444">presentation_layer.dart</text></g><!--class BaseStateListener--><g id="elem_BaseStateListener"><rect codeLine="8" fill="#FFFFFF" height="50.8382" id="BaseStateListener" rx="4.1667" ry="4.1667" style="stroke:#4E5D6C;stroke-width:1.0416666666666667;" width="145.8333" x="82.8125" y="279.8958"/><ellipse cx="96.3542" cy="296.9816" fill="#FFFFFF" rx="9.375" ry="9.375" style="stroke:#4E5D6C;stroke-width:1.0416666666666667;"/><path d="M97.9004,298.1372 L98.1934,298.8534 L97.9004,298.8534 C97.5911,298.8534 97.4935,298.8696 97.3796,298.951 C97.2005,299.0487 97.0866,299.2765 97.0866,299.4881 C97.0866,299.6834 97.1842,299.8625 97.347,299.9764 C97.4609,300.0741 97.6074,300.1066 97.9004,300.1066 L99.6419,300.1066 C99.9023,300.1066 100.0651,300.0741 100.1628,300.0252 C100.3581,299.9113 100.472,299.6997 100.472,299.4881 C100.472,299.2765 100.3743,299.0975 100.2116,298.9836 C100.0814,298.8859 99.9674,298.8534 99.6257,298.8534 L97.1354,292.8149 L94.4336,292.8149 C94.0918,292.8149 94.0104,292.8312 93.8965,292.9126 C93.7012,293.0265 93.6035,293.2381 93.6035,293.4497 C93.6035,293.645 93.7012,293.8241 93.8639,293.9543 C93.9779,294.0519 94.1081,294.0682 94.4336,294.0682 L95.2148,294.0682 L93.278,298.8534 C92.9688,298.8534 92.8548,298.8696 92.7409,298.951 C92.5618,299.0487 92.4479,299.2765 92.4479,299.4881 C92.4479,299.895 92.7246,300.1066 93.278,300.1066 L94.9382,300.1066 C95.1986,300.1066 95.3613,300.0741 95.459,300.0252 C95.638,299.9113 95.752,299.6997 95.752,299.4881 C95.752,299.2765 95.6543,299.0975 95.4915,298.9673 C95.3776,298.8859 95.2637,298.8534 94.9382,298.8534 L94.6452,298.8534 L94.9382,298.1372 L97.9004,298.1372 Z M97.3958,296.884 L95.4264,296.884 L96.4193,294.4751 L97.3958,296.884 Z " fill="#4E5D6C"/><text fill="#4E5D6C" font-family="Verdana" font-size="11.4583" font-style="italic" lengthAdjust="spacing" textLength="106.25" x="114.0625" y="300.9484">BaseStateListener</text><line style="stroke:#4E5D6C;stroke-width:1.0416666666666667;" x1="83.8542" x2="227.6042" y1="314.0674" y2="314.0674"/><line style="stroke:#4E5D6C;stroke-width:1.0416666666666667;" x1="83.8542" x2="227.6042" y1="322.4007" y2="322.4007"/></g><!--class StateListener--><g id="elem_StateListener"><rect codeLine="11" fill="#FFFFFF" height="74.5931" id="StateListener" rx="4.1667" ry="4.1667" style="stroke:#4E5D6C;stroke-width:1.0416666666666667;" width="165.625" x="398.4375" y="267.9167"/><ellipse cx="432.6042" cy="285.0024" fill="#FFFFFF" rx="9.375" ry="9.375" style="stroke:#4E5D6C;stroke-width:1.0416666666666667;"/><path d="M434.541,281.617 C433.8574,281.2915 433.418,281.1938 432.7669,281.1938 C430.8464,281.1938 429.3652,282.7075 429.3652,284.7095 L429.3652,285.5396 C429.3652,287.4438 430.9277,288.8273 433.0436,288.8273 C433.9388,288.8273 434.8014,288.5994 435.3385,288.1925 C435.778,287.8996 436.0059,287.5741 436.0059,287.2811 C436.0059,286.9556 435.7129,286.6626 435.3874,286.6626 C435.2246,286.6626 435.0781,286.7277 434.9316,286.8579 C434.5898,287.216 434.5898,287.216 434.4596,287.2811 C434.1504,287.4764 433.6458,287.5741 433.0762,287.5741 C431.5788,287.5741 430.6185,286.7603 430.6185,285.507 L430.6185,284.7095 C430.6185,283.3911 431.5462,282.4308 432.8158,282.4308 C433.2389,282.4308 433.6947,282.5448 434.0365,282.7401 C434.3945,282.9354 434.5247,283.0981 434.5898,283.3911 C434.6387,283.7004 434.6549,283.7817 434.7526,283.8794 C434.8503,283.9933 435.0293,284.0584 435.1921,284.0584 C435.4036,284.0584 435.5827,283.9608 435.7129,283.798 C435.7943,283.6841 435.8268,283.5539 435.8268,283.2284 L435.8268,282.1867 C435.8268,281.8774 435.8105,281.7798 435.7292,281.6659 C435.6152,281.4705 435.4199,281.3566 435.1921,281.3566 C434.9805,281.3566 434.834,281.438 434.6712,281.6659 L434.541,281.617 Z " fill="#4E5D6C"/><text fill="#4E5D6C" font-family="Verdana" font-size="11.4583" lengthAdjust="spacing" textLength="80.2083" x="454.8958" y="288.9692">StateListener</text><line style="stroke:#4E5D6C;stroke-width:1.0416666666666667;" x1="399.4792" x2="563.0208" y1="302.0882" y2="302.0882"/><line style="stroke:#4E5D6C;stroke-width:1.0416666666666667;" x1="399.4792" x2="563.0208" y1="310.4215" y2="310.4215"/><ellipse cx="409.8958" cy="328.0282" fill="#FFFFFF" rx="3.125" ry="3.125" style="stroke:#4E5D6C;stroke-width:1.0416666666666667;"/><text fill="#4E5D6C" font-family="Verdana" font-size="11.4583" lengthAdjust="spacing" textLength="130.2083" x="422.3958" y="330.4324">void onChangeState()</text></g><!--class BaseDataSource--><g id="elem_BaseDataSource"><rect codeLine="17" fill="#FFFFFF" height="50.8382" id="BaseDataSource" rx="4.1667" ry="4.1667" style="stroke:#4E5D6C;stroke-width:1.0416666666666667;" width="136.4583" x="770.3125" y="116.3542"/><ellipse cx="783.8542" cy="133.4399" fill="#FFFFFF" rx="9.375" ry="9.375" style="stroke:#4E5D6C;stroke-width:1.0416666666666667;"/><path d="M785.4004,134.5955 L785.6934,135.3117 L785.4004,135.3117 C785.0911,135.3117 784.9935,135.328 784.8796,135.4093 C784.7005,135.507 784.5866,135.7349 784.5866,135.9465 C784.5866,136.1418 784.6842,136.3208 784.847,136.4347 C784.9609,136.5324 785.1074,136.5649 785.4004,136.5649 L787.1419,136.5649 C787.4023,136.5649 787.5651,136.5324 787.6628,136.4836 C787.8581,136.3696 787.972,136.158 787.972,135.9465 C787.972,135.7349 787.8743,135.5558 787.7116,135.4419 C787.5814,135.3442 787.4674,135.3117 787.1257,135.3117 L784.6354,129.2733 L781.9336,129.2733 C781.5918,129.2733 781.5104,129.2896 781.3965,129.3709 C781.2012,129.4849 781.1035,129.6965 781.1035,129.908 C781.1035,130.1034 781.2012,130.2824 781.3639,130.4126 C781.4779,130.5103 781.6081,130.5265 781.9336,130.5265 L782.7148,130.5265 L780.778,135.3117 C780.4688,135.3117 780.3548,135.328 780.2409,135.4093 C780.0618,135.507 779.9479,135.7349 779.9479,135.9465 C779.9479,136.3534 780.2246,136.5649 780.778,136.5649 L782.4382,136.5649 C782.6986,136.5649 782.8613,136.5324 782.959,136.4836 C783.138,136.3696 783.252,136.158 783.252,135.9465 C783.252,135.7349 783.1543,135.5558 782.9915,135.4256 C782.8776,135.3442 782.7637,135.3117 782.4382,135.3117 L782.1452,135.3117 L782.4382,134.5955 L785.4004,134.5955 Z M784.8958,133.3423 L782.9264,133.3423 L783.9193,130.9334 L784.8958,133.3423 Z " fill="#4E5D6C"/><text fill="#4E5D6C" font-family="Verdana" font-size="11.4583" font-style="italic" lengthAdjust="spacing" textLength="96.875" x="801.5625" y="137.4067">BaseDataSource</text><line style="stroke:#4E5D6C;stroke-width:1.0416666666666667;" x1="771.3542" x2="905.7292" y1="150.5257" y2="150.5257"/><line style="stroke:#4E5D6C;stroke-width:1.0416666666666667;" x1="771.3542" x2="905.7292" y1="158.859" y2="158.859"/></g><!--class BaseModel--><g id="elem_BaseModel"><rect codeLine="20" fill="#FFFFFF" height="50.8382" id="BaseModel" rx="4.1667" ry="4.1667" style="stroke:#4E5D6C;stroke-width:1.0416666666666667;" width="103.125" x="786.9792" y="203.8542"/><ellipse cx="800.5208" cy="220.9399" fill="#FFFFFF" rx="9.375" ry="9.375" style="stroke:#4E5D6C;stroke-width:1.0416666666666667;"/><path d="M802.0671,222.0955 L802.36,222.8117 L802.0671,222.8117 C801.7578,222.8117 801.6602,222.828 801.5462,222.9093 C801.3672,223.007 801.2533,223.2349 801.2533,223.4465 C801.2533,223.6418 801.3509,223.8208 801.5137,223.9347 C801.6276,224.0324 801.7741,224.0649 802.0671,224.0649 L803.8086,224.0649 C804.069,224.0649 804.2318,224.0324 804.3294,223.9836 C804.5247,223.8696 804.6387,223.658 804.6387,223.4465 C804.6387,223.2349 804.541,223.0558 804.3783,222.9419 C804.248,222.8442 804.1341,222.8117 803.7923,222.8117 L801.3021,216.7733 L798.6003,216.7733 C798.2585,216.7733 798.1771,216.7896 798.0632,216.8709 C797.8678,216.9849 797.7702,217.1965 797.7702,217.408 C797.7702,217.6034 797.8678,217.7824 798.0306,217.9126 C798.1445,218.0103 798.2747,218.0265 798.6003,218.0265 L799.3815,218.0265 L797.4447,222.8117 C797.1354,222.8117 797.0215,222.828 796.9076,222.9093 C796.7285,223.007 796.6146,223.2349 796.6146,223.4465 C796.6146,223.8534 796.8913,224.0649 797.4447,224.0649 L799.1048,224.0649 C799.3652,224.0649 799.528,224.0324 799.6257,223.9836 C799.8047,223.8696 799.9186,223.658 799.9186,223.4465 C799.9186,223.2349 799.821,223.0558 799.6582,222.9256 C799.5443,222.8442 799.4303,222.8117 799.1048,222.8117 L798.8118,222.8117 L799.1048,222.0955 L802.0671,222.0955 Z M801.5625,220.8423 L799.5931,220.8423 L800.5859,218.4334 L801.5625,220.8423 Z " fill="#4E5D6C"/><text fill="#4E5D6C" font-family="Verdana" font-size="11.4583" font-style="italic" lengthAdjust="spacing" textLength="63.5417" x="818.2292" y="224.9067">BaseModel</text><line style="stroke:#4E5D6C;stroke-width:1.0416666666666667;" x1="788.0208" x2="889.0625" y1="238.0257" y2="238.0257"/><line style="stroke:#4E5D6C;stroke-width:1.0416666666666667;" x1="788.0208" x2="889.0625" y1="246.359" y2="246.359"/></g><!--class BaseDataSources--><g id="elem_BaseDataSources"><rect codeLine="23" fill="#FFFFFF" height="50.8382" id="BaseDataSources" rx="4.1667" ry="4.1667" style="stroke:#4E5D6C;stroke-width:1.0416666666666667;" width="142.7083" x="767.1875" y="291.3542"/><ellipse cx="780.7292" cy="308.4399" fill="#FFFFFF" rx="9.375" ry="9.375" style="stroke:#4E5D6C;stroke-width:1.0416666666666667;"/><path d="M782.2754,309.5955 L782.5684,310.3117 L782.2754,310.3117 C781.9661,310.3117 781.8685,310.328 781.7546,310.4093 C781.5755,310.507 781.4616,310.7349 781.4616,310.9465 C781.4616,311.1418 781.5592,311.3208 781.722,311.4347 C781.8359,311.5324 781.9824,311.5649 782.2754,311.5649 L784.0169,311.5649 C784.2773,311.5649 784.4401,311.5324 784.5378,311.4836 C784.7331,311.3696 784.847,311.158 784.847,310.9465 C784.847,310.7349 784.7493,310.5558 784.5866,310.4419 C784.4564,310.3442 784.3424,310.3117 784.0007,310.3117 L781.5104,304.2733 L778.8086,304.2733 C778.4668,304.2733 778.3854,304.2896 778.2715,304.3709 C778.0762,304.4849 777.9785,304.6965 777.9785,304.908 C777.9785,305.1034 778.0762,305.2824 778.2389,305.4126 C778.3529,305.5103 778.4831,305.5265 778.8086,305.5265 L779.5898,305.5265 L777.653,310.3117 C777.3438,310.3117 777.2298,310.328 777.1159,310.4093 C776.9368,310.507 776.8229,310.7349 776.8229,310.9465 C776.8229,311.3534 777.0996,311.5649 777.653,311.5649 L779.3132,311.5649 C779.5736,311.5649 779.7363,311.5324 779.834,311.4836 C780.013,311.3696 780.127,311.158 780.127,310.9465 C780.127,310.7349 780.0293,310.5558 779.8665,310.4256 C779.7526,310.3442 779.6387,310.3117 779.3132,310.3117 L779.0202,310.3117 L779.3132,309.5955 L782.2754,309.5955 Z M781.7708,308.3423 L779.8014,308.3423 L780.7943,305.9334 L781.7708,308.3423 Z " fill="#4E5D6C"/><text fill="#4E5D6C" font-family="Verdana" font-size="11.4583" font-style="italic" lengthAdjust="spacing" textLength="103.125" x="798.4375" y="312.4067">BaseDataSources</text><line style="stroke:#4E5D6C;stroke-width:1.0416666666666667;" x1="768.2292" x2="908.8542" y1="325.5257" y2="325.5257"/><line style="stroke:#4E5D6C;stroke-width:1.0416666666666667;" x1="768.2292" x2="908.8542" y1="333.859" y2="333.859"/></g><!--class BaseEntity--><g id="elem_BaseEntity"><rect codeLine="26" fill="#FFFFFF" height="50.8382" id="BaseEntity" rx="4.1667" ry="4.1667" style="stroke:#4E5D6C;stroke-width:1.0416666666666667;" width="102.0833" x="430.2083" y="697.6042"/><ellipse cx="443.75" cy="714.6899" fill="#FFFFFF" rx="9.375" ry="9.375" style="stroke:#4E5D6C;stroke-width:1.0416666666666667;"/><path d="M445.2962,715.8455 L445.5892,716.5617 L445.2962,716.5617 C444.987,716.5617 444.8893,716.578 444.7754,716.6593 C444.5964,716.757 444.4824,716.9849 444.4824,717.1965 C444.4824,717.3918 444.5801,717.5708 444.7428,717.6847 C444.8568,717.7824 445.0033,717.8149 445.2962,717.8149 L447.0378,717.8149 C447.2982,717.8149 447.4609,717.7824 447.5586,717.7336 C447.7539,717.6196 447.8678,717.408 447.8678,717.1965 C447.8678,716.9849 447.7702,716.8058 447.6074,716.6919 C447.4772,716.5942 447.3633,716.5617 447.0215,716.5617 L444.5313,710.5233 L441.8294,710.5233 C441.4876,710.5233 441.4063,710.5396 441.2923,710.6209 C441.097,710.7349 440.9993,710.9465 440.9993,711.158 C440.9993,711.3534 441.097,711.5324 441.2598,711.6626 C441.3737,711.7603 441.5039,711.7765 441.8294,711.7765 L442.6107,711.7765 L440.6738,716.5617 C440.3646,716.5617 440.2507,716.578 440.1367,716.6593 C439.9577,716.757 439.8438,716.9849 439.8438,717.1965 C439.8438,717.6034 440.1204,717.8149 440.6738,717.8149 L442.334,717.8149 C442.5944,717.8149 442.7572,717.7824 442.8548,717.7336 C443.0339,717.6196 443.1478,717.408 443.1478,717.1965 C443.1478,716.9849 443.0501,716.8058 442.8874,716.6756 C442.7734,716.5942 442.6595,716.5617 442.334,716.5617 L442.041,716.5617 L442.334,715.8455 L445.2962,715.8455 Z M444.7917,714.5923 L442.8223,714.5923 L443.8151,712.1834 L444.7917,714.5923 Z " fill="#4E5D6C"/><text fill="#4E5D6C" font-family="Verdana" font-size="11.4583" font-style="italic" lengthAdjust="spacing" textLength="62.5" x="461.4583" y="718.6567">BaseEntity</text><line style="stroke:#4E5D6C;stroke-width:1.0416666666666667;" x1="431.25" x2="531.25" y1="731.7757" y2="731.7757"/><line style="stroke:#4E5D6C;stroke-width:1.0416666666666667;" x1="431.25" x2="531.25" y1="740.109" y2="740.109"/></g><!--class BaseMapper--><g id="elem_BaseMapper"><rect codeLine="29" fill="#FFFFFF" height="98.348" id="BaseMapper" rx="4.1667" ry="4.1667" style="stroke:#4E5D6C;stroke-width:1.0416666666666667;" width="112.5" x="425" y="428.3333"/><ellipse cx="438.5417" cy="445.4191" fill="#FFFFFF" rx="9.375" ry="9.375" style="stroke:#4E5D6C;stroke-width:1.0416666666666667;"/><path d="M440.0879,446.5747 L440.3809,447.2909 L440.0879,447.2909 C439.7786,447.2909 439.681,447.3071 439.5671,447.3885 C439.388,447.4862 439.2741,447.714 439.2741,447.9256 C439.2741,448.1209 439.3717,448.3 439.5345,448.4139 C439.6484,448.5116 439.7949,448.5441 440.0879,448.5441 L441.8294,448.5441 C442.0898,448.5441 442.2526,448.5116 442.3503,448.4627 C442.5456,448.3488 442.6595,448.1372 442.6595,447.9256 C442.6595,447.714 442.5618,447.535 442.3991,447.4211 C442.2689,447.3234 442.1549,447.2909 441.8132,447.2909 L439.3229,441.2524 L436.6211,441.2524 C436.2793,441.2524 436.1979,441.2687 436.084,441.3501 C435.8887,441.464 435.791,441.6756 435.791,441.8872 C435.791,442.0825 435.8887,442.2616 436.0514,442.3918 C436.1654,442.4894 436.2956,442.5057 436.6211,442.5057 L437.4023,442.5057 L435.4655,447.2909 C435.1563,447.2909 435.0423,447.3071 434.9284,447.3885 C434.7493,447.4862 434.6354,447.714 434.6354,447.9256 C434.6354,448.3325 434.9121,448.5441 435.4655,448.5441 L437.1257,448.5441 C437.3861,448.5441 437.5488,448.5116 437.6465,448.4627 C437.8255,448.3488 437.9395,448.1372 437.9395,447.9256 C437.9395,447.714 437.8418,447.535 437.679,447.4048 C437.5651,447.3234 437.4512,447.2909 437.1257,447.2909 L436.8327,447.2909 L437.1257,446.5747 L440.0879,446.5747 Z M439.5833,445.3215 L437.6139,445.3215 L438.6068,442.9126 L439.5833,445.3215 Z " fill="#4E5D6C"/><text fill="#4E5D6C" font-family="Verdana" font-size="11.4583" font-style="italic" lengthAdjust="spacing" textLength="72.9167" x="456.25" y="449.3859">BaseMapper</text><line style="stroke:#4E5D6C;stroke-width:1.0416666666666667;" x1="426.0417" x2="536.4583" y1="462.5049" y2="462.5049"/><line style="stroke:#4E5D6C;stroke-width:1.0416666666666667;" x1="426.0417" x2="536.4583" y1="470.8382" y2="470.8382"/><ellipse cx="436.4583" cy="488.4448" fill="#FFFFFF" rx="3.125" ry="3.125" style="stroke:#4E5D6C;stroke-width:1.0416666666666667;"/><text fill="#4E5D6C" font-family="Verdana" font-size="11.4583" lengthAdjust="spacing" textLength="64.5833" x="448.9583" y="490.8491">E toEntity()</text><ellipse cx="436.4583" cy="512.1997" fill="#FFFFFF" rx="3.125" ry="3.125" style="stroke:#4E5D6C;stroke-width:1.0416666666666667;"/><text fill="#4E5D6C" font-family="Verdana" font-size="11.4583" lengthAdjust="spacing" textLength="68.75" x="448.9583" y="514.604">M toModel()</text></g><!--class BaseRepository--><g id="elem_BaseRepository"><rect codeLine="34" fill="#FFFFFF" height="98.348" id="BaseRepository" rx="4.1667" ry="4.1667" style="stroke:#4E5D6C;stroke-width:1.0416666666666667;" width="320.8333" x="320.8333" y="562.7083"/><ellipse cx="425.7813" cy="579.7941" fill="#FFFFFF" rx="9.375" ry="9.375" style="stroke:#4E5D6C;stroke-width:1.0416666666666667;"/><path d="M427.3275,580.9497 L427.6204,581.6659 L427.3275,581.6659 C427.0182,581.6659 426.9206,581.6821 426.8066,581.7635 C426.6276,581.8612 426.5137,582.089 426.5137,582.3006 C426.5137,582.4959 426.6113,582.675 426.7741,582.7889 C426.888,582.8866 427.0345,582.9191 427.3275,582.9191 L429.069,582.9191 C429.3294,582.9191 429.4922,582.8866 429.5898,582.8377 C429.7852,582.7238 429.8991,582.5122 429.8991,582.3006 C429.8991,582.089 429.8014,581.91 429.6387,581.7961 C429.5085,581.6984 429.3945,581.6659 429.0527,581.6659 L426.5625,575.6274 L423.8607,575.6274 C423.5189,575.6274 423.4375,575.6437 423.3236,575.7251 C423.1283,575.839 423.0306,576.0506 423.0306,576.2622 C423.0306,576.4575 423.1283,576.6366 423.291,576.7668 C423.4049,576.8644 423.5352,576.8807 423.8607,576.8807 L424.6419,576.8807 L422.7051,581.6659 C422.3958,581.6659 422.2819,581.6821 422.168,581.7635 C421.9889,581.8612 421.875,582.089 421.875,582.3006 C421.875,582.7075 422.1517,582.9191 422.7051,582.9191 L424.3652,582.9191 C424.6257,582.9191 424.7884,582.8866 424.8861,582.8377 C425.0651,582.7238 425.179,582.5122 425.179,582.3006 C425.179,582.089 425.0814,581.91 424.9186,581.7798 C424.8047,581.6984 424.6908,581.6659 424.3652,581.6659 L424.0723,581.6659 L424.3652,580.9497 L427.3275,580.9497 Z M426.8229,579.6965 L424.8535,579.6965 L425.8464,577.2876 L426.8229,579.6965 Z " fill="#4E5D6C"/><text fill="#4E5D6C" font-family="Verdana" font-size="11.4583" font-style="italic" lengthAdjust="spacing" textLength="92.7083" x="449.2188" y="583.7609">BaseRepository</text><line style="stroke:#4E5D6C;stroke-width:1.0416666666666667;" x1="321.875" x2="640.625" y1="596.8799" y2="596.8799"/><ellipse cx="332.2917" cy="614.4865" fill="none" rx="3.125" ry="3.125" style="stroke:#4E5D6C;stroke-width:1.0416666666666667;"/><text fill="#4E5D6C" font-family="Verdana" font-size="11.4583" lengthAdjust="spacing" textLength="285.4167" x="344.7917" y="616.8908">BaseMapper&lt;BaseEntity, BaseModel&gt;? mapper</text><ellipse cx="332.2917" cy="638.2414" fill="none" rx="3.125" ry="3.125" style="stroke:#4E5D6C;stroke-width:1.0416666666666667;"/><text fill="#4E5D6C" font-family="Verdana" font-size="11.4583" lengthAdjust="spacing" textLength="178.125" x="344.7917" y="640.6457">BaseDataSource? dataSource</text><line style="stroke:#4E5D6C;stroke-width:1.0416666666666667;" x1="321.875" x2="640.625" y1="652.723" y2="652.723"/></g><!--class BaseMapper<BaseEntity, BaseModel>--><g id="elem_BaseMapper&lt;BaseEntity, BaseModel&gt;"><rect fill="#FFFFFF" height="50.8382" id="BaseMapper&lt;BaseEntity, BaseModel&gt;" rx="4.1667" ry="4.1667" style="stroke:#4E5D6C;stroke-width:1.0416666666666667;" width="268.75" x="704.1667" y="586.1458"/><ellipse cx="717.7083" cy="603.2316" fill="#FFFFFF" rx="9.375" ry="9.375" style="stroke:#4E5D6C;stroke-width:1.0416666666666667;"/><path d="M719.6452,599.8462 C718.9616,599.5207 718.5221,599.423 717.8711,599.423 C715.9505,599.423 714.4694,600.9367 714.4694,602.9386 L714.4694,603.7687 C714.4694,605.673 716.0319,607.0565 718.1478,607.0565 C719.043,607.0565 719.9056,606.8286 720.4427,606.4217 C720.8822,606.1287 721.11,605.8032 721.11,605.5103 C721.11,605.1847 720.8171,604.8918 720.4915,604.8918 C720.3288,604.8918 720.1823,604.9569 720.0358,605.0871 C719.694,605.4451 719.694,605.4451 719.5638,605.5103 C719.2546,605.7056 718.75,605.8032 718.1803,605.8032 C716.6829,605.8032 715.7227,604.9894 715.7227,603.7362 L715.7227,602.9386 C715.7227,601.6203 716.6504,600.66 717.9199,600.66 C718.3431,600.66 718.7988,600.7739 719.1406,600.9692 C719.4987,601.1646 719.6289,601.3273 719.694,601.6203 C719.7428,601.9295 719.7591,602.0109 719.8568,602.1086 C719.9544,602.2225 720.1335,602.2876 720.2962,602.2876 C720.5078,602.2876 720.6868,602.1899 720.8171,602.0272 C720.8984,601.9132 720.931,601.783 720.931,601.4575 L720.931,600.4159 C720.931,600.1066 720.9147,600.009 720.8333,599.895 C720.7194,599.6997 720.5241,599.5858 720.2962,599.5858 C720.0846,599.5858 719.9382,599.6672 719.7754,599.895 L719.6452,599.8462 Z " fill="#4E5D6C"/><text fill="#4E5D6C" font-family="Verdana" font-size="11.4583" lengthAdjust="spacing" textLength="229.1667" x="735.4167" y="607.1984">BaseMapper&lt;BaseEntity, BaseModel&gt;</text><line style="stroke:#4E5D6C;stroke-width:1.0416666666666667;" x1="705.2083" x2="971.875" y1="620.3174" y2="620.3174"/><line style="stroke:#4E5D6C;stroke-width:1.0416666666666667;" x1="705.2083" x2="971.875" y1="628.6507" y2="628.6507"/></g><!--class BaseService--><g id="elem_BaseService"><rect codeLine="42" fill="#FFFFFF" height="74.5931" id="BaseService" rx="4.1667" ry="4.1667" style="stroke:#4E5D6C;stroke-width:1.0416666666666667;" width="197.9167" x="56.7708" y="624.1667"/><ellipse cx="110.1563" cy="641.2524" fill="#FFFFFF" rx="9.375" ry="9.375" style="stroke:#4E5D6C;stroke-width:1.0416666666666667;"/><path d="M111.7025,642.408 L111.9954,643.1242 L111.7025,643.1242 C111.3932,643.1242 111.2956,643.1405 111.1816,643.2218 C111.0026,643.3195 110.8887,643.5474 110.8887,643.759 C110.8887,643.9543 110.9863,644.1333 111.1491,644.2472 C111.263,644.3449 111.4095,644.3774 111.7025,644.3774 L113.444,644.3774 C113.7044,644.3774 113.8672,644.3449 113.9648,644.2961 C114.1602,644.1821 114.2741,643.9705 114.2741,643.759 C114.2741,643.5474 114.1764,643.3683 114.0137,643.2544 C113.8835,643.1567 113.7695,643.1242 113.4277,643.1242 L110.9375,637.0858 L108.2357,637.0858 C107.8939,637.0858 107.8125,637.1021 107.6986,637.1834 C107.5033,637.2974 107.4056,637.509 107.4056,637.7205 C107.4056,637.9159 107.5033,638.0949 107.666,638.2251 C107.7799,638.3228 107.9102,638.339 108.2357,638.339 L109.0169,638.339 L107.0801,643.1242 C106.7708,643.1242 106.6569,643.1405 106.543,643.2218 C106.3639,643.3195 106.25,643.5474 106.25,643.759 C106.25,644.1659 106.5267,644.3774 107.0801,644.3774 L108.7402,644.3774 C109.0007,644.3774 109.1634,644.3449 109.2611,644.2961 C109.4401,644.1821 109.554,643.9705 109.554,643.759 C109.554,643.5474 109.4564,643.3683 109.2936,643.2381 C109.1797,643.1567 109.0658,643.1242 108.7402,643.1242 L108.4473,643.1242 L108.7402,642.408 L111.7025,642.408 Z M111.1979,641.1548 L109.2285,641.1548 L110.2214,638.7459 L111.1979,641.1548 Z " fill="#4E5D6C"/><text fill="#4E5D6C" font-family="Verdana" font-size="11.4583" font-style="italic" lengthAdjust="spacing" textLength="72.9167" x="133.5938" y="645.2192">BaseService</text><line style="stroke:#4E5D6C;stroke-width:1.0416666666666667;" x1="57.8125" x2="253.6458" y1="658.3382" y2="658.3382"/><ellipse cx="68.2292" cy="675.9448" fill="none" rx="3.125" ry="3.125" style="stroke:#4E5D6C;stroke-width:1.0416666666666667;"/><text fill="#4E5D6C" font-family="Verdana" font-size="11.4583" lengthAdjust="spacing" textLength="162.5" x="80.7292" y="678.3491">BaseRepository? repository</text><line style="stroke:#4E5D6C;stroke-width:1.0416666666666667;" x1="57.8125" x2="253.6458" y1="690.4264" y2="690.4264"/></g><!--class FeatureModel--><g id="elem_FeatureModel"><rect codeLine="48" fill="#FFFFFF" height="50.8382" id="FeatureModel" rx="4.1667" ry="4.1667" style="stroke:#4E5D6C;stroke-width:1.0416666666666667;" width="120.8333" x="1122.3958" y="912.1875"/><ellipse cx="1135.9375" cy="929.2733" fill="#FFFFFF" rx="9.375" ry="9.375" style="stroke:#4E5D6C;stroke-width:1.0416666666666667;"/><path d="M1137.8743,925.8879 C1137.1908,925.5623 1136.7513,925.4647 1136.1003,925.4647 C1134.1797,925.4647 1132.6986,926.9784 1132.6986,928.9803 L1132.6986,929.8104 C1132.6986,931.7147 1134.2611,933.0981 1136.377,933.0981 C1137.2721,933.0981 1138.1348,932.8703 1138.6719,932.4634 C1139.1113,932.1704 1139.3392,931.8449 1139.3392,931.5519 C1139.3392,931.2264 1139.0462,930.9334 1138.7207,930.9334 C1138.5579,930.9334 1138.4115,930.9985 1138.265,931.1287 C1137.9232,931.4868 1137.9232,931.4868 1137.793,931.5519 C1137.4837,931.7472 1136.9792,931.8449 1136.4095,931.8449 C1134.9121,931.8449 1133.9518,931.0311 1133.9518,929.7778 L1133.9518,928.9803 C1133.9518,927.6619 1134.8796,926.7017 1136.1491,926.7017 C1136.5723,926.7017 1137.028,926.8156 1137.3698,927.0109 C1137.7279,927.2062 1137.8581,927.369 1137.9232,927.6619 C1137.972,927.9712 1137.9883,928.0526 1138.0859,928.1502 C1138.1836,928.2642 1138.3626,928.3293 1138.5254,928.3293 C1138.737,928.3293 1138.916,928.2316 1139.0462,928.0688 C1139.1276,927.9549 1139.1602,927.8247 1139.1602,927.4992 L1139.1602,926.4575 C1139.1602,926.1483 1139.1439,926.0506 1139.0625,925.9367 C1138.9486,925.7414 1138.7533,925.6274 1138.5254,925.6274 C1138.3138,925.6274 1138.1673,925.7088 1138.0046,925.9367 L1137.8743,925.8879 Z " fill="#4E5D6C"/><text fill="#4E5D6C" font-family="Verdana" font-size="11.4583" lengthAdjust="spacing" textLength="81.25" x="1153.6458" y="933.2401">FeatureModel</text><line style="stroke:#4E5D6C;stroke-width:1.0416666666666667;" x1="1123.4375" x2="1242.1875" y1="946.359" y2="946.359"/><line style="stroke:#4E5D6C;stroke-width:1.0416666666666667;" x1="1123.4375" x2="1242.1875" y1="954.6924" y2="954.6924"/></g><!--class BaseFeatureDataSource--><g id="elem_BaseFeatureDataSource"><rect codeLine="53" fill="#FFFFFF" height="74.5931" id="BaseFeatureDataSource" rx="4.1667" ry="4.1667" style="stroke:#4E5D6C;stroke-width:1.0416666666666667;" width="181.25" x="1371.875" y="961.6667"/><ellipse cx="1385.4167" cy="978.7524" fill="#FFFFFF" rx="9.375" ry="9.375" style="stroke:#4E5D6C;stroke-width:1.0416666666666667;"/><path d="M1386.9629,979.908 L1387.2559,980.6242 L1386.9629,980.6242 C1386.6536,980.6242 1386.556,980.6405 1386.4421,980.7218 C1386.263,980.8195 1386.1491,981.0474 1386.1491,981.259 C1386.1491,981.4543 1386.2467,981.6333 1386.4095,981.7472 C1386.5234,981.8449 1386.6699,981.8774 1386.9629,981.8774 L1388.7044,981.8774 C1388.9648,981.8774 1389.1276,981.8449 1389.2253,981.7961 C1389.4206,981.6821 1389.5345,981.4705 1389.5345,981.259 C1389.5345,981.0474 1389.4368,980.8683 1389.2741,980.7544 C1389.1439,980.6567 1389.0299,980.6242 1388.6882,980.6242 L1386.1979,974.5858 L1383.4961,974.5858 C1383.1543,974.5858 1383.0729,974.6021 1382.959,974.6834 C1382.7637,974.7974 1382.666,975.009 1382.666,975.2205 C1382.666,975.4159 1382.7637,975.5949 1382.9264,975.7251 C1383.0404,975.8228 1383.1706,975.839 1383.4961,975.839 L1384.2773,975.839 L1382.3405,980.6242 C1382.0313,980.6242 1381.9173,980.6405 1381.8034,980.7218 C1381.6243,980.8195 1381.5104,981.0474 1381.5104,981.259 C1381.5104,981.6659 1381.7871,981.8774 1382.3405,981.8774 L1384.0007,981.8774 C1384.2611,981.8774 1384.4238,981.8449 1384.5215,981.7961 C1384.7005,981.6821 1384.8145,981.4705 1384.8145,981.259 C1384.8145,981.0474 1384.7168,980.8683 1384.554,980.7381 C1384.4401,980.6567 1384.3262,980.6242 1384.0007,980.6242 L1383.7077,980.6242 L1384.0007,979.908 L1386.9629,979.908 Z M1386.4583,978.6548 L1384.4889,978.6548 L1385.4818,976.2459 L1386.4583,978.6548 Z " fill="#4E5D6C"/><text fill="#4E5D6C" font-family="Verdana" font-size="11.4583" font-style="italic" lengthAdjust="spacing" textLength="141.6667" x="1403.125" y="982.7192">BaseFeatureDataSource</text><line style="stroke:#4E5D6C;stroke-width:1.0416666666666667;" x1="1372.9167" x2="1552.0833" y1="995.8382" y2="995.8382"/><line style="stroke:#4E5D6C;stroke-width:1.0416666666666667;" x1="1372.9167" x2="1552.0833" y1="1004.1715" y2="1004.1715"/><ellipse cx="1383.3333" cy="1021.7782" fill="#FFFFFF" rx="3.125" ry="3.125" style="stroke:#4E5D6C;stroke-width:1.0416666666666667;"/><text fill="#4E5D6C" font-family="Verdana" font-size="11.4583" lengthAdjust="spacing" textLength="110.4167" x="1395.8333" y="1024.1824">dynamic getData()</text></g><!--class RemoteFeatureDataSource--><g id="elem_RemoteFeatureDataSource"><rect codeLine="59" fill="#FFFFFF" height="74.5931" id="RemoteFeatureDataSource" rx="4.1667" ry="4.1667" style="stroke:#4E5D6C;stroke-width:1.0416666666666667;" width="202.0833" x="1615.625" y="1023.125"/><ellipse cx="1629.1667" cy="1040.2108" fill="#FFFFFF" rx="9.375" ry="9.375" style="stroke:#4E5D6C;stroke-width:1.0416666666666667;"/><path d="M1631.1035,1036.8254 C1630.4199,1036.4998 1629.9805,1036.4022 1629.3294,1036.4022 C1627.4089,1036.4022 1625.9277,1037.9159 1625.9277,1039.9178 L1625.9277,1040.7479 C1625.9277,1042.6522 1627.4902,1044.0356 1629.6061,1044.0356 C1630.5013,1044.0356 1631.3639,1043.8078 1631.901,1043.4009 C1632.3405,1043.1079 1632.5684,1042.7824 1632.5684,1042.4894 C1632.5684,1042.1639 1632.2754,1041.8709 1631.9499,1041.8709 C1631.7871,1041.8709 1631.6406,1041.936 1631.4941,1042.0662 C1631.1523,1042.4243 1631.1523,1042.4243 1631.0221,1042.4894 C1630.7129,1042.6847 1630.2083,1042.7824 1629.6387,1042.7824 C1628.1413,1042.7824 1627.181,1041.9686 1627.181,1040.7153 L1627.181,1039.9178 C1627.181,1038.5994 1628.1087,1037.6392 1629.3783,1037.6392 C1629.8014,1037.6392 1630.2572,1037.7531 1630.599,1037.9484 C1630.957,1038.1437 1631.0872,1038.3065 1631.1523,1038.5994 C1631.2012,1038.9087 1631.2174,1038.9901 1631.3151,1039.0877 C1631.4128,1039.2017 1631.5918,1039.2668 1631.7546,1039.2668 C1631.9661,1039.2668 1632.1452,1039.1691 1632.2754,1039.0063 C1632.3568,1038.8924 1632.3893,1038.7622 1632.3893,1038.4367 L1632.3893,1037.395 C1632.3893,1037.0858 1632.373,1036.9881 1632.2917,1036.8742 C1632.1777,1036.6789 1631.9824,1036.5649 1631.7546,1036.5649 C1631.543,1036.5649 1631.3965,1036.6463 1631.2337,1036.8742 L1631.1035,1036.8254 Z " fill="#4E5D6C"/><text fill="#4E5D6C" font-family="Verdana" font-size="11.4583" lengthAdjust="spacing" textLength="162.5" x="1646.875" y="1044.1776">RemoteFeatureDataSource</text><line style="stroke:#4E5D6C;stroke-width:1.0416666666666667;" x1="1616.6667" x2="1816.6667" y1="1057.2965" y2="1057.2965"/><line style="stroke:#4E5D6C;stroke-width:1.0416666666666667;" x1="1616.6667" x2="1816.6667" y1="1065.6299" y2="1065.6299"/><ellipse cx="1627.0833" cy="1083.2365" fill="#FFFFFF" rx="3.125" ry="3.125" style="stroke:#4E5D6C;stroke-width:1.0416666666666667;"/><text fill="#4E5D6C" font-family="Verdana" font-size="11.4583" lengthAdjust="spacing" textLength="110.4167" x="1639.5833" y="1085.6408">dynamic getData()</text></g><!--class LocalFeatureDataSource--><g id="elem_LocalFeatureDataSource"><rect codeLine="65" fill="#FFFFFF" height="74.5931" id="LocalFeatureDataSource" rx="4.1667" ry="4.1667" style="stroke:#4E5D6C;stroke-width:1.0416666666666667;" width="185.4167" x="1623.9583" y="911.6667"/><ellipse cx="1637.5" cy="928.7524" fill="#FFFFFF" rx="9.375" ry="9.375" style="stroke:#4E5D6C;stroke-width:1.0416666666666667;"/><path d="M1639.4368,925.367 C1638.7533,925.0415 1638.3138,924.9438 1637.6628,924.9438 C1635.7422,924.9438 1634.2611,926.4575 1634.2611,928.4595 L1634.2611,929.2896 C1634.2611,931.1938 1635.8236,932.5773 1637.9395,932.5773 C1638.8346,932.5773 1639.6973,932.3494 1640.2344,931.9425 C1640.6738,931.6496 1640.9017,931.3241 1640.9017,931.0311 C1640.9017,930.7056 1640.6087,930.4126 1640.2832,930.4126 C1640.1204,930.4126 1639.974,930.4777 1639.8275,930.6079 C1639.4857,930.966 1639.4857,930.966 1639.3555,931.0311 C1639.0462,931.2264 1638.5417,931.3241 1637.972,931.3241 C1636.4746,931.3241 1635.5143,930.5103 1635.5143,929.257 L1635.5143,928.4595 C1635.5143,927.1411 1636.4421,926.1808 1637.7116,926.1808 C1638.1348,926.1808 1638.5905,926.2948 1638.9323,926.4901 C1639.2904,926.6854 1639.4206,926.8481 1639.4857,927.1411 C1639.5345,927.4504 1639.5508,927.5317 1639.6484,927.6294 C1639.7461,927.7433 1639.9251,927.8084 1640.0879,927.8084 C1640.2995,927.8084 1640.4785,927.7108 1640.6087,927.548 C1640.6901,927.4341 1640.7227,927.3039 1640.7227,926.9784 L1640.7227,925.9367 C1640.7227,925.6274 1640.7064,925.5298 1640.625,925.4159 C1640.5111,925.2205 1640.3158,925.1066 1640.0879,925.1066 C1639.8763,925.1066 1639.7298,925.188 1639.5671,925.4159 L1639.4368,925.367 Z " fill="#4E5D6C"/><text fill="#4E5D6C" font-family="Verdana" font-size="11.4583" lengthAdjust="spacing" textLength="145.8333" x="1655.2083" y="932.7192">LocalFeatureDataSource</text><line style="stroke:#4E5D6C;stroke-width:1.0416666666666667;" x1="1625" x2="1808.3333" y1="945.8382" y2="945.8382"/><line style="stroke:#4E5D6C;stroke-width:1.0416666666666667;" x1="1625" x2="1808.3333" y1="954.1715" y2="954.1715"/><ellipse cx="1635.4167" cy="971.7782" fill="#FFFFFF" rx="3.125" ry="3.125" style="stroke:#4E5D6C;stroke-width:1.0416666666666667;"/><text fill="#4E5D6C" font-family="Verdana" font-size="11.4583" lengthAdjust="spacing" textLength="110.4167" x="1647.9167" y="974.1824">dynamic getData()</text></g><!--class FeatureRepository--><g id="elem_FeatureRepository"><rect codeLine="71" fill="#FFFFFF" height="98.348" id="FeatureRepository" rx="4.1667" ry="4.1667" style="stroke:#4E5D6C;stroke-width:1.0416666666666667;" width="253.125" x="1056.25" y="1000.2083"/><ellipse cx="1119.5313" cy="1017.2941" fill="#FFFFFF" rx="9.375" ry="9.375" style="stroke:#4E5D6C;stroke-width:1.0416666666666667;"/><path d="M1121.4681,1013.9087 C1120.7845,1013.5832 1120.3451,1013.4855 1119.694,1013.4855 C1117.7734,1013.4855 1116.2923,1014.9992 1116.2923,1017.0011 L1116.2923,1017.8312 C1116.2923,1019.7355 1117.8548,1021.119 1119.9707,1021.119 C1120.8659,1021.119 1121.7285,1020.8911 1122.2656,1020.4842 C1122.7051,1020.1912 1122.9329,1019.8657 1122.9329,1019.5728 C1122.9329,1019.2472 1122.64,1018.9543 1122.3145,1018.9543 C1122.1517,1018.9543 1122.0052,1019.0194 1121.8587,1019.1496 C1121.5169,1019.5076 1121.5169,1019.5076 1121.3867,1019.5728 C1121.0775,1019.7681 1120.5729,1019.8657 1120.0033,1019.8657 C1118.5059,1019.8657 1117.5456,1019.0519 1117.5456,1017.7987 L1117.5456,1017.0011 C1117.5456,1015.6828 1118.4733,1014.7225 1119.7428,1014.7225 C1120.166,1014.7225 1120.6217,1014.8364 1120.9635,1015.0317 C1121.3216,1015.2271 1121.4518,1015.3898 1121.5169,1015.6828 C1121.5658,1015.992 1121.582,1016.0734 1121.6797,1016.1711 C1121.7773,1016.285 1121.9564,1016.3501 1122.1191,1016.3501 C1122.3307,1016.3501 1122.5098,1016.2524 1122.64,1016.0897 C1122.7214,1015.9757 1122.7539,1015.8455 1122.7539,1015.52 L1122.7539,1014.4784 C1122.7539,1014.1691 1122.7376,1014.0715 1122.6563,1013.9575 C1122.5423,1013.7622 1122.347,1013.6483 1122.1191,1013.6483 C1121.9076,1013.6483 1121.7611,1013.7297 1121.5983,1013.9575 L1121.4681,1013.9087 Z " fill="#4E5D6C"/><text fill="#4E5D6C" font-family="Verdana" font-size="11.4583" lengthAdjust="spacing" textLength="108.3333" x="1142.9688" y="1021.2609">FeatureRepository</text><line style="stroke:#4E5D6C;stroke-width:1.0416666666666667;" x1="1057.2917" x2="1308.3333" y1="1034.3799" y2="1034.3799"/><ellipse cx="1067.7083" cy="1051.9865" fill="none" rx="3.125" ry="3.125" style="stroke:#4E5D6C;stroke-width:1.0416666666666667;"/><text fill="#4E5D6C" font-family="Verdana" font-size="11.4583" lengthAdjust="spacing" textLength="217.7083" x="1080.2083" y="1054.3908">BaseFeatureDataSource dataSource</text><ellipse cx="1067.7083" cy="1075.7414" fill="none" rx="3.125" ry="3.125" style="stroke:#4E5D6C;stroke-width:1.0416666666666667;"/><text fill="#4E5D6C" font-family="Verdana" font-size="11.4583" lengthAdjust="spacing" textLength="139.5833" x="1080.2083" y="1078.1457">FeatureMapper mapper</text><line style="stroke:#4E5D6C;stroke-width:1.0416666666666667;" x1="1057.2917" x2="1308.3333" y1="1090.223" y2="1090.223"/></g><!--class FeatureMapper--><g id="elem_FeatureMapper"><rect codeLine="85" fill="#FFFFFF" height="98.348" id="FeatureMapper" rx="4.1667" ry="4.1667" style="stroke:#4E5D6C;stroke-width:1.0416666666666667;" width="160.4167" x="1382.2917" y="1183.5417"/><ellipse cx="1409.8958" cy="1200.6274" fill="#FFFFFF" rx="9.375" ry="9.375" style="stroke:#4E5D6C;stroke-width:1.0416666666666667;"/><path d="M1411.8327,1197.242 C1411.1491,1196.9165 1410.7096,1196.8188 1410.0586,1196.8188 C1408.138,1196.8188 1406.6569,1198.3325 1406.6569,1200.3345 L1406.6569,1201.1646 C1406.6569,1203.0688 1408.2194,1204.4523 1410.3353,1204.4523 C1411.2305,1204.4523 1412.0931,1204.2244 1412.6302,1203.8175 C1413.0697,1203.5246 1413.2975,1203.1991 1413.2975,1202.9061 C1413.2975,1202.5806 1413.0046,1202.2876 1412.679,1202.2876 C1412.5163,1202.2876 1412.3698,1202.3527 1412.2233,1202.4829 C1411.8815,1202.841 1411.8815,1202.841 1411.7513,1202.9061 C1411.4421,1203.1014 1410.9375,1203.1991 1410.3678,1203.1991 C1408.8704,1203.1991 1407.9102,1202.3853 1407.9102,1201.132 L1407.9102,1200.3345 C1407.9102,1199.0161 1408.8379,1198.0558 1410.1074,1198.0558 C1410.5306,1198.0558 1410.9863,1198.1698 1411.3281,1198.3651 C1411.6862,1198.5604 1411.8164,1198.7231 1411.8815,1199.0161 C1411.9303,1199.3254 1411.9466,1199.4067 1412.0443,1199.5044 C1412.1419,1199.6183 1412.321,1199.6834 1412.4837,1199.6834 C1412.6953,1199.6834 1412.8743,1199.5858 1413.0046,1199.423 C1413.0859,1199.3091 1413.1185,1199.1789 1413.1185,1198.8534 L1413.1185,1197.8117 C1413.1185,1197.5024 1413.1022,1197.4048 1413.0208,1197.2909 C1412.9069,1197.0955 1412.7116,1196.9816 1412.4837,1196.9816 C1412.2721,1196.9816 1412.1257,1197.063 1411.9629,1197.2909 L1411.8327,1197.242 Z " fill="#4E5D6C"/><text fill="#4E5D6C" font-family="Verdana" font-size="11.4583" lengthAdjust="spacing" textLength="89.5833" x="1430.7292" y="1204.5942">FeatureMapper</text><line style="stroke:#4E5D6C;stroke-width:1.0416666666666667;" x1="1383.3333" x2="1541.6667" y1="1217.7132" y2="1217.7132"/><line style="stroke:#4E5D6C;stroke-width:1.0416666666666667;" x1="1383.3333" x2="1541.6667" y1="1226.0465" y2="1226.0465"/><ellipse cx="1393.75" cy="1243.6532" fill="#FFFFFF" rx="3.125" ry="3.125" style="stroke:#4E5D6C;stroke-width:1.0416666666666667;"/><text fill="#4E5D6C" font-family="Verdana" font-size="11.4583" lengthAdjust="spacing" textLength="125" x="1406.25" y="1246.0574">BaseModel toModel()</text><ellipse cx="1393.75" cy="1267.408" fill="#FFFFFF" rx="3.125" ry="3.125" style="stroke:#4E5D6C;stroke-width:1.0416666666666667;"/><text fill="#4E5D6C" font-family="Verdana" font-size="11.4583" lengthAdjust="spacing" textLength="120.8333" x="1406.25" y="1269.8123">BaseEntity toEntity()</text></g><!--class BaseFeatureRepository--><g id="elem_BaseFeatureRepository"><rect codeLine="92" fill="#FFFFFF" height="98.348" id="BaseFeatureRepository" rx="4.1667" ry="4.1667" style="stroke:#4E5D6C;stroke-width:1.0416666666666667;" width="207.2917" x="1079.1667" y="1183.5417"/><ellipse cx="1106.3021" cy="1200.6274" fill="#FFFFFF" rx="9.375" ry="9.375" style="stroke:#4E5D6C;stroke-width:1.0416666666666667;"/><path d="M1107.8483,1201.783 L1108.1413,1202.4992 L1107.8483,1202.4992 C1107.5391,1202.4992 1107.4414,1202.5155 1107.3275,1202.5968 C1107.1484,1202.6945 1107.0345,1202.9224 1107.0345,1203.134 C1107.0345,1203.3293 1107.1322,1203.5083 1107.2949,1203.6222 C1107.4089,1203.7199 1107.5553,1203.7524 1107.8483,1203.7524 L1109.5898,1203.7524 C1109.8503,1203.7524 1110.013,1203.7199 1110.1107,1203.6711 C1110.306,1203.5571 1110.4199,1203.3455 1110.4199,1203.134 C1110.4199,1202.9224 1110.3223,1202.7433 1110.1595,1202.6294 C1110.0293,1202.5317 1109.9154,1202.4992 1109.5736,1202.4992 L1107.0833,1196.4608 L1104.3815,1196.4608 C1104.0397,1196.4608 1103.9583,1196.4771 1103.8444,1196.5584 C1103.6491,1196.6724 1103.5514,1196.884 1103.5514,1197.0955 C1103.5514,1197.2909 1103.6491,1197.4699 1103.8118,1197.6001 C1103.9258,1197.6978 1104.056,1197.714 1104.3815,1197.714 L1105.1628,1197.714 L1103.2259,1202.4992 C1102.9167,1202.4992 1102.8027,1202.5155 1102.6888,1202.5968 C1102.5098,1202.6945 1102.3958,1202.9224 1102.3958,1203.134 C1102.3958,1203.5409 1102.6725,1203.7524 1103.2259,1203.7524 L1104.8861,1203.7524 C1105.1465,1203.7524 1105.3092,1203.7199 1105.4069,1203.6711 C1105.5859,1203.5571 1105.6999,1203.3455 1105.6999,1203.134 C1105.6999,1202.9224 1105.6022,1202.7433 1105.4395,1202.6131 C1105.3255,1202.5317 1105.2116,1202.4992 1104.8861,1202.4992 L1104.5931,1202.4992 L1104.8861,1201.783 L1107.8483,1201.783 Z M1107.3438,1200.5298 L1105.3743,1200.5298 L1106.3672,1198.1209 L1107.3438,1200.5298 Z " fill="#4E5D6C"/><text fill="#4E5D6C" font-family="Verdana" font-size="11.4583" font-style="italic" lengthAdjust="spacing" textLength="137.5" x="1127.0313" y="1204.5942">BaseFeatureRepository</text><line style="stroke:#4E5D6C;stroke-width:1.0416666666666667;" x1="1080.2083" x2="1285.4167" y1="1217.7132" y2="1217.7132"/><ellipse cx="1090.625" cy="1235.3198" fill="none" rx="3.125" ry="3.125" style="stroke:#4E5D6C;stroke-width:1.0416666666666667;"/><text fill="#4E5D6C" font-family="Verdana" font-size="11.4583" lengthAdjust="spacing" textLength="171.875" x="1103.125" y="1237.7241">BaseDataSource dataSource</text><ellipse cx="1090.625" cy="1259.0747" fill="none" rx="3.125" ry="3.125" style="stroke:#4E5D6C;stroke-width:1.0416666666666667;"/><text fill="#4E5D6C" font-family="Verdana" font-size="11.4583" lengthAdjust="spacing" textLength="139.5833" x="1103.125" y="1261.479">FeatureMapper mapper</text><line style="stroke:#4E5D6C;stroke-width:1.0416666666666667;" x1="1080.2083" x2="1285.4167" y1="1273.5563" y2="1273.5563"/></g><!--class FeatureEntity--><g id="elem_FeatureEntity"><rect codeLine="80" fill="#FFFFFF" height="50.8382" id="FeatureEntity" rx="4.1667" ry="4.1667" style="stroke:#4E5D6C;stroke-width:1.0416666666666667;" width="118.75" x="1123.4375" y="1318.4375"/><ellipse cx="1136.9792" cy="1335.5233" fill="#FFFFFF" rx="9.375" ry="9.375" style="stroke:#4E5D6C;stroke-width:1.0416666666666667;"/><path d="M1138.916,1332.1379 C1138.2324,1331.8123 1137.793,1331.7147 1137.1419,1331.7147 C1135.2214,1331.7147 1133.7402,1333.2284 1133.7402,1335.2303 L1133.7402,1336.0604 C1133.7402,1337.9647 1135.3027,1339.3481 1137.4186,1339.3481 C1138.3138,1339.3481 1139.1764,1339.1203 1139.7135,1338.7134 C1140.153,1338.4204 1140.3809,1338.0949 1140.3809,1337.8019 C1140.3809,1337.4764 1140.0879,1337.1834 1139.7624,1337.1834 C1139.5996,1337.1834 1139.4531,1337.2485 1139.3066,1337.3787 C1138.9648,1337.7368 1138.9648,1337.7368 1138.8346,1337.8019 C1138.5254,1337.9972 1138.0208,1338.0949 1137.4512,1338.0949 C1135.9538,1338.0949 1134.9935,1337.2811 1134.9935,1336.0278 L1134.9935,1335.2303 C1134.9935,1333.9119 1135.9212,1332.9517 1137.1908,1332.9517 C1137.6139,1332.9517 1138.0697,1333.0656 1138.4115,1333.2609 C1138.7695,1333.4562 1138.8997,1333.619 1138.9648,1333.9119 C1139.0137,1334.2212 1139.0299,1334.3026 1139.1276,1334.4002 C1139.2253,1334.5142 1139.4043,1334.5793 1139.5671,1334.5793 C1139.7786,1334.5793 1139.9577,1334.4816 1140.0879,1334.3188 C1140.1693,1334.2049 1140.2018,1334.0747 1140.2018,1333.7492 L1140.2018,1332.7075 C1140.2018,1332.3983 1140.1855,1332.3006 1140.1042,1332.1867 C1139.9902,1331.9914 1139.7949,1331.8774 1139.5671,1331.8774 C1139.3555,1331.8774 1139.209,1331.9588 1139.0462,1332.1867 L1138.916,1332.1379 Z " fill="#4E5D6C"/><text fill="#4E5D6C" font-family="Verdana" font-size="11.4583" lengthAdjust="spacing" textLength="79.1667" x="1154.6875" y="1339.4901">FeatureEntity</text><line style="stroke:#4E5D6C;stroke-width:1.0416666666666667;" x1="1124.4792" x2="1241.1458" y1="1352.609" y2="1352.609"/><line style="stroke:#4E5D6C;stroke-width:1.0416666666666667;" x1="1124.4792" x2="1241.1458" y1="1360.9424" y2="1360.9424"/></g><!--class BaseFeatureService--><g id="elem_BaseFeatureService"><rect codeLine="101" fill="#FFFFFF" height="98.348" id="BaseFeatureService" rx="4.1667" ry="4.1667" style="stroke:#4E5D6C;stroke-width:1.0416666666666667;" width="243.75" x="359.375" y="911.6667"/><ellipse cx="413.2813" cy="928.7524" fill="#FFFFFF" rx="9.375" ry="9.375" style="stroke:#4E5D6C;stroke-width:1.0416666666666667;"/><path d="M414.8275,929.908 L415.1204,930.6242 L414.8275,930.6242 C414.5182,930.6242 414.4206,930.6405 414.3066,930.7218 C414.1276,930.8195 414.0137,931.0474 414.0137,931.259 C414.0137,931.4543 414.1113,931.6333 414.2741,931.7472 C414.388,931.8449 414.5345,931.8774 414.8275,931.8774 L416.569,931.8774 C416.8294,931.8774 416.9922,931.8449 417.0898,931.7961 C417.2852,931.6821 417.3991,931.4705 417.3991,931.259 C417.3991,931.0474 417.3014,930.8683 417.1387,930.7544 C417.0085,930.6567 416.8945,930.6242 416.5527,930.6242 L414.0625,924.5858 L411.3607,924.5858 C411.0189,924.5858 410.9375,924.6021 410.8236,924.6834 C410.6283,924.7974 410.5306,925.009 410.5306,925.2205 C410.5306,925.4159 410.6283,925.5949 410.791,925.7251 C410.9049,925.8228 411.0352,925.839 411.3607,925.839 L412.1419,925.839 L410.2051,930.6242 C409.8958,930.6242 409.7819,930.6405 409.668,930.7218 C409.4889,930.8195 409.375,931.0474 409.375,931.259 C409.375,931.6659 409.6517,931.8774 410.2051,931.8774 L411.8652,931.8774 C412.1257,931.8774 412.2884,931.8449 412.3861,931.7961 C412.5651,931.6821 412.679,931.4705 412.679,931.259 C412.679,931.0474 412.5814,930.8683 412.4186,930.7381 C412.3047,930.6567 412.1908,930.6242 411.8652,930.6242 L411.5723,930.6242 L411.8652,929.908 L414.8275,929.908 Z M414.3229,928.6548 L412.3535,928.6548 L413.3464,926.2459 L414.3229,928.6548 Z " fill="#4E5D6C"/><text fill="#4E5D6C" font-family="Verdana" font-size="11.4583" font-style="italic" lengthAdjust="spacing" textLength="117.7083" x="436.7188" y="932.7192">BaseFeatureService</text><line style="stroke:#4E5D6C;stroke-width:1.0416666666666667;" x1="360.4167" x2="602.0833" y1="945.8382" y2="945.8382"/><ellipse cx="370.8333" cy="963.4448" fill="none" rx="3.125" ry="3.125" style="stroke:#4E5D6C;stroke-width:1.0416666666666667;"/><text fill="#4E5D6C" font-family="Verdana" font-size="11.4583" lengthAdjust="spacing" textLength="208.3333" x="383.3333" y="965.8491">BaseFeatureRepository? repository</text><line style="stroke:#4E5D6C;stroke-width:1.0416666666666667;" x1="360.4167" x2="602.0833" y1="977.9264" y2="977.9264"/><ellipse cx="370.8333" cy="995.533" fill="#FFFFFF" rx="3.125" ry="3.125" style="stroke:#4E5D6C;stroke-width:1.0416666666666667;"/><text fill="#4E5D6C" font-family="Verdana" font-size="11.4583" lengthAdjust="spacing" textLength="110.4167" x="383.3333" y="997.9373">dynamic getData()</text></g><!--class FeatureService--><g id="elem_FeatureService"><rect codeLine="109" fill="#FFFFFF" height="98.348" id="FeatureService" rx="4.1667" ry="4.1667" style="stroke:#4E5D6C;stroke-width:1.0416666666666667;" width="243.75" x="716.6667" y="911.6667"/><ellipse cx="783.5938" cy="928.7524" fill="#FFFFFF" rx="9.375" ry="9.375" style="stroke:#4E5D6C;stroke-width:1.0416666666666667;"/><path d="M785.5306,925.367 C784.847,925.0415 784.4076,924.9438 783.7565,924.9438 C781.8359,924.9438 780.3548,926.4575 780.3548,928.4595 L780.3548,929.2896 C780.3548,931.1938 781.9173,932.5773 784.0332,932.5773 C784.9284,932.5773 785.791,932.3494 786.3281,931.9425 C786.7676,931.6496 786.9954,931.3241 786.9954,931.0311 C786.9954,930.7056 786.7025,930.4126 786.377,930.4126 C786.2142,930.4126 786.0677,930.4777 785.9212,930.6079 C785.5794,930.966 785.5794,930.966 785.4492,931.0311 C785.14,931.2264 784.6354,931.3241 784.0658,931.3241 C782.5684,931.3241 781.6081,930.5103 781.6081,929.257 L781.6081,928.4595 C781.6081,927.1411 782.5358,926.1808 783.8053,926.1808 C784.2285,926.1808 784.6842,926.2948 785.026,926.4901 C785.3841,926.6854 785.5143,926.8481 785.5794,927.1411 C785.6283,927.4504 785.6445,927.5317 785.7422,927.6294 C785.8398,927.7433 786.0189,927.8084 786.1816,927.8084 C786.3932,927.8084 786.5723,927.7108 786.7025,927.548 C786.7839,927.4341 786.8164,927.3039 786.8164,926.9784 L786.8164,925.9367 C786.8164,925.6274 786.8001,925.5298 786.7188,925.4159 C786.6048,925.2205 786.4095,925.1066 786.1816,925.1066 C785.9701,925.1066 785.8236,925.188 785.6608,925.4159 L785.5306,925.367 Z " fill="#4E5D6C"/><text fill="#4E5D6C" font-family="Verdana" font-size="11.4583" lengthAdjust="spacing" textLength="91.6667" x="807.0313" y="932.7192">FeatureService</text><line style="stroke:#4E5D6C;stroke-width:1.0416666666666667;" x1="717.7083" x2="959.375" y1="945.8382" y2="945.8382"/><ellipse cx="728.125" cy="963.4448" fill="none" rx="3.125" ry="3.125" style="stroke:#4E5D6C;stroke-width:1.0416666666666667;"/><text fill="#4E5D6C" font-family="Verdana" font-size="11.4583" lengthAdjust="spacing" textLength="208.3333" x="740.625" y="965.8491">BaseFeatureRepository? repository</text><line style="stroke:#4E5D6C;stroke-width:1.0416666666666667;" x1="717.7083" x2="959.375" y1="977.9264" y2="977.9264"/><ellipse cx="728.125" cy="995.533" fill="#FFFFFF" rx="3.125" ry="3.125" style="stroke:#4E5D6C;stroke-width:1.0416666666666667;"/><text fill="#4E5D6C" font-family="Verdana" font-size="11.4583" lengthAdjust="spacing" textLength="110.4167" x="740.625" y="997.9373">dynamic getData()</text></g><!--class ExtendedBloc--><g id="elem_ExtendedBloc"><rect codeLine="117" fill="#FFFFFF" height="98.348" id="ExtendedBloc" rx="4.1667" ry="4.1667" style="stroke:#4E5D6C;stroke-width:1.0416666666666667;" width="165.625" x="398.4375" y="1095"/><ellipse cx="431.6667" cy="1112.0858" fill="#FFFFFF" rx="9.375" ry="9.375" style="stroke:#4E5D6C;stroke-width:1.0416666666666667;"/><path d="M433.6035,1108.7004 C432.9199,1108.3748 432.4805,1108.2772 431.8294,1108.2772 C429.9089,1108.2772 428.4277,1109.7909 428.4277,1111.7928 L428.4277,1112.6229 C428.4277,1114.5272 429.9902,1115.9106 432.1061,1115.9106 C433.0013,1115.9106 433.8639,1115.6828 434.401,1115.2759 C434.8405,1114.9829 435.0684,1114.6574 435.0684,1114.3644 C435.0684,1114.0389 434.7754,1113.7459 434.4499,1113.7459 C434.2871,1113.7459 434.1406,1113.811 433.9941,1113.9412 C433.6523,1114.2993 433.6523,1114.2993 433.5221,1114.3644 C433.2129,1114.5597 432.7083,1114.6574 432.1387,1114.6574 C430.6413,1114.6574 429.681,1113.8436 429.681,1112.5903 L429.681,1111.7928 C429.681,1110.4744 430.6087,1109.5142 431.8783,1109.5142 C432.3014,1109.5142 432.7572,1109.6281 433.099,1109.8234 C433.457,1110.0187 433.5872,1110.1815 433.6523,1110.4744 C433.7012,1110.7837 433.7174,1110.8651 433.8151,1110.9627 C433.9128,1111.0767 434.0918,1111.1418 434.2546,1111.1418 C434.4661,1111.1418 434.6452,1111.0441 434.7754,1110.8813 C434.8568,1110.7674 434.8893,1110.6372 434.8893,1110.3117 L434.8893,1109.27 C434.8893,1108.9608 434.873,1108.8631 434.7917,1108.7492 C434.6777,1108.5539 434.4824,1108.4399 434.2546,1108.4399 C434.043,1108.4399 433.8965,1108.5213 433.7337,1108.7492 L433.6035,1108.7004 Z " fill="#4E5D6C"/><text fill="#4E5D6C" font-family="Verdana" font-size="11.4583" lengthAdjust="spacing" textLength="82.2917" x="453.75" y="1116.0526">ExtendedBloc</text><line style="stroke:#4E5D6C;stroke-width:1.0416666666666667;" x1="399.4792" x2="563.0208" y1="1129.1715" y2="1129.1715"/><line style="stroke:#4E5D6C;stroke-width:1.0416666666666667;" x1="399.4792" x2="563.0208" y1="1137.5049" y2="1137.5049"/><ellipse cx="409.8958" cy="1155.1115" fill="#FFFFFF" rx="3.125" ry="3.125" style="stroke:#4E5D6C;stroke-width:1.0416666666666667;"/><text fill="#4E5D6C" font-family="Verdana" font-size="11.4583" lengthAdjust="spacing" textLength="110.4167" x="422.3958" y="1157.5158">dynamic getData()</text><ellipse cx="409.8958" cy="1178.8664" fill="#FFFFFF" rx="3.125" ry="3.125" style="stroke:#4E5D6C;stroke-width:1.0416666666666667;"/><text fill="#4E5D6C" font-family="Verdana" font-size="11.4583" lengthAdjust="spacing" textLength="130.2083" x="422.3958" y="1181.2707">void onChangeState()</text></g><!--class Bloc--><g id="elem_Bloc"><rect codeLine="125" fill="#FFFFFF" height="74.5931" id="Bloc" rx="4.1667" ry="4.1667" style="stroke:#4E5D6C;stroke-width:1.0416666666666667;" width="205.2083" x="53.125" y="1095"/><ellipse cx="134.1146" cy="1112.0858" fill="#FFFFFF" rx="9.375" ry="9.375" style="stroke:#4E5D6C;stroke-width:1.0416666666666667;"/><path d="M136.0514,1108.7004 C135.3678,1108.3748 134.9284,1108.2772 134.2773,1108.2772 C132.3568,1108.2772 130.8757,1109.7909 130.8757,1111.7928 L130.8757,1112.6229 C130.8757,1114.5272 132.4382,1115.9106 134.554,1115.9106 C135.4492,1115.9106 136.3118,1115.6828 136.849,1115.2759 C137.2884,1114.9829 137.5163,1114.6574 137.5163,1114.3644 C137.5163,1114.0389 137.2233,1113.7459 136.8978,1113.7459 C136.735,1113.7459 136.5885,1113.811 136.4421,1113.9412 C136.1003,1114.2993 136.1003,1114.2993 135.9701,1114.3644 C135.6608,1114.5597 135.1563,1114.6574 134.5866,1114.6574 C133.0892,1114.6574 132.1289,1113.8436 132.1289,1112.5903 L132.1289,1111.7928 C132.1289,1110.4744 133.0566,1109.5142 134.3262,1109.5142 C134.7493,1109.5142 135.2051,1109.6281 135.5469,1109.8234 C135.9049,1110.0187 136.0352,1110.1815 136.1003,1110.4744 C136.1491,1110.7837 136.1654,1110.8651 136.263,1110.9627 C136.3607,1111.0767 136.5397,1111.1418 136.7025,1111.1418 C136.9141,1111.1418 137.0931,1111.0441 137.2233,1110.8813 C137.3047,1110.7674 137.3372,1110.6372 137.3372,1110.3117 L137.3372,1109.27 C137.3372,1108.9608 137.321,1108.8631 137.2396,1108.7492 C137.1257,1108.5539 136.9303,1108.4399 136.7025,1108.4399 C136.4909,1108.4399 136.3444,1108.5213 136.1816,1108.7492 L136.0514,1108.7004 Z " fill="#4E5D6C"/><text fill="#4E5D6C" font-family="Verdana" font-size="11.4583" lengthAdjust="spacing" textLength="25" x="157.5521" y="1116.0526">Bloc</text><line style="stroke:#4E5D6C;stroke-width:1.0416666666666667;" x1="54.1667" x2="257.2917" y1="1129.1715" y2="1129.1715"/><ellipse cx="64.5833" cy="1146.7782" fill="none" rx="3.125" ry="3.125" style="stroke:#4E5D6C;stroke-width:1.0416666666666667;"/><text fill="#4E5D6C" font-family="Verdana" font-size="11.4583" lengthAdjust="spacing" textLength="169.7917" x="77.0833" y="1149.1824">BaseFeatureService service</text><line style="stroke:#4E5D6C;stroke-width:1.0416666666666667;" x1="54.1667" x2="257.2917" y1="1161.2598" y2="1161.2598"/></g><!--class Widget--><g id="elem_Widget"><rect codeLine="131" fill="#FFFFFF" height="50.8382" id="Widget" rx="4.1667" ry="4.1667" style="stroke:#4E5D6C;stroke-width:1.0416666666666667;" width="81.25" x="115.1042" y="1206.9792"/><ellipse cx="128.6458" cy="1224.0649" fill="#FFFFFF" rx="9.375" ry="9.375" style="stroke:#4E5D6C;stroke-width:1.0416666666666667;"/><path d="M130.5827,1220.6795 C129.8991,1220.354 129.4596,1220.2563 128.8086,1220.2563 C126.888,1220.2563 125.4069,1221.77 125.4069,1223.772 L125.4069,1224.6021 C125.4069,1226.5063 126.9694,1227.8898 129.0853,1227.8898 C129.9805,1227.8898 130.8431,1227.6619 131.3802,1227.255 C131.8197,1226.9621 132.0475,1226.6366 132.0475,1226.3436 C132.0475,1226.0181 131.7546,1225.7251 131.429,1225.7251 C131.2663,1225.7251 131.1198,1225.7902 130.9733,1225.9204 C130.6315,1226.2785 130.6315,1226.2785 130.5013,1226.3436 C130.1921,1226.5389 129.6875,1226.6366 129.1178,1226.6366 C127.6204,1226.6366 126.6602,1225.8228 126.6602,1224.5695 L126.6602,1223.772 C126.6602,1222.4536 127.5879,1221.4933 128.8574,1221.4933 C129.2806,1221.4933 129.7363,1221.6073 130.0781,1221.8026 C130.4362,1221.9979 130.5664,1222.1606 130.6315,1222.4536 C130.6803,1222.7629 130.6966,1222.8442 130.7943,1222.9419 C130.8919,1223.0558 131.071,1223.1209 131.2337,1223.1209 C131.4453,1223.1209 131.6243,1223.0233 131.7546,1222.8605 C131.8359,1222.7466 131.8685,1222.6164 131.8685,1222.2909 L131.8685,1221.2492 C131.8685,1220.9399 131.8522,1220.8423 131.7708,1220.7284 C131.6569,1220.533 131.4616,1220.4191 131.2337,1220.4191 C131.0221,1220.4191 130.8757,1220.5005 130.7129,1220.7284 L130.5827,1220.6795 Z " fill="#4E5D6C"/><text fill="#4E5D6C" font-family="Verdana" font-size="11.4583" lengthAdjust="spacing" textLength="41.6667" x="146.3542" y="1228.0317">Widget</text><line style="stroke:#4E5D6C;stroke-width:1.0416666666666667;" x1="116.1458" x2="195.3125" y1="1241.1507" y2="1241.1507"/><line style="stroke:#4E5D6C;stroke-width:1.0416666666666667;" x1="116.1458" x2="195.3125" y1="1249.484" y2="1249.484"/></g><!--class Page--><g id="elem_Page"><rect codeLine="134" fill="#FFFFFF" height="98.348" id="Page" rx="4.1667" ry="4.1667" style="stroke:#4E5D6C;stroke-width:1.0416666666666667;" width="165.625" x="72.9167" y="1295"/><ellipse cx="132.0313" cy="1312.0858" fill="#FFFFFF" rx="9.375" ry="9.375" style="stroke:#4E5D6C;stroke-width:1.0416666666666667;"/><path d="M133.9681,1308.7004 C133.2845,1308.3748 132.8451,1308.2772 132.194,1308.2772 C130.2734,1308.2772 128.7923,1309.7909 128.7923,1311.7928 L128.7923,1312.6229 C128.7923,1314.5272 130.3548,1315.9106 132.4707,1315.9106 C133.3659,1315.9106 134.2285,1315.6828 134.7656,1315.2759 C135.2051,1314.9829 135.4329,1314.6574 135.4329,1314.3644 C135.4329,1314.0389 135.14,1313.7459 134.8145,1313.7459 C134.6517,1313.7459 134.5052,1313.811 134.3587,1313.9412 C134.0169,1314.2993 134.0169,1314.2993 133.8867,1314.3644 C133.5775,1314.5597 133.0729,1314.6574 132.5033,1314.6574 C131.0059,1314.6574 130.0456,1313.8436 130.0456,1312.5903 L130.0456,1311.7928 C130.0456,1310.4744 130.9733,1309.5142 132.2428,1309.5142 C132.666,1309.5142 133.1217,1309.6281 133.4635,1309.8234 C133.8216,1310.0187 133.9518,1310.1815 134.0169,1310.4744 C134.0658,1310.7837 134.082,1310.8651 134.1797,1310.9627 C134.2773,1311.0767 134.4564,1311.1418 134.6191,1311.1418 C134.8307,1311.1418 135.0098,1311.0441 135.14,1310.8813 C135.2214,1310.7674 135.2539,1310.6372 135.2539,1310.3117 L135.2539,1309.27 C135.2539,1308.9608 135.2376,1308.8631 135.1563,1308.7492 C135.0423,1308.5539 134.847,1308.4399 134.6191,1308.4399 C134.4076,1308.4399 134.2611,1308.5213 134.0983,1308.7492 L133.9681,1308.7004 Z " fill="#4E5D6C"/><text fill="#4E5D6C" font-family="Verdana" font-size="11.4583" lengthAdjust="spacing" textLength="29.1667" x="155.4688" y="1316.0526">Page</text><line style="stroke:#4E5D6C;stroke-width:1.0416666666666667;" x1="73.9583" x2="237.5" y1="1329.1715" y2="1329.1715"/><ellipse cx="84.375" cy="1346.7782" fill="none" rx="3.125" ry="3.125" style="stroke:#4E5D6C;stroke-width:1.0416666666666667;"/><text fill="#4E5D6C" font-family="Verdana" font-size="11.4583" lengthAdjust="spacing" textLength="110.4167" x="96.875" y="1349.1824">ExtendedBloc bloc</text><ellipse cx="84.375" cy="1370.533" fill="none" rx="3.125" ry="3.125" style="stroke:#4E5D6C;stroke-width:1.0416666666666667;"/><text fill="#4E5D6C" font-family="Verdana" font-size="11.4583" lengthAdjust="spacing" textLength="130.2083" x="96.875" y="1372.9373">List&lt;Widget&gt; widgets</text><line style="stroke:#4E5D6C;stroke-width:1.0416666666666667;" x1="73.9583" x2="237.5" y1="1385.0146" y2="1385.0146"/></g><!--reverse link BaseStateListener to StateListener--><g id="link_BaseStateListener_StateListener"><path codeLine="15" d="M250.0771,305.4167 C296.9104,305.4167 353.1292,305.4167 398.2771,305.4167 " fill="none" id="BaseStateListener-backto-StateListener" style="stroke:#4E5D6C;stroke-width:1.0416666666666667;"/><polygon fill="none" points="249.7875,312.7083,228.9542,305.4167,249.7875,298.125,249.7875,312.7083" style="stroke:#4E5D6C;stroke-width:1.0416666666666667;"/></g><!--reverse link BaseRepository to BaseMapper<BaseEntity, BaseModel>--><g id="link_BaseRepository_BaseMapper&lt;BaseEntity, BaseModel&gt;"><path codeLine="39" d="M655.426,611.6667 C671.7792,611.6667 688.1844,611.6667 704.0833,611.6667 " fill="none" id="BaseRepository-backto-BaseMapper&lt;BaseEntity, BaseModel&gt;" style="stroke:#4E5D6C;stroke-width:1.0416666666666667;"/><polygon fill="none" points="641.7125,611.6667,647.9625,615.8333,654.2125,611.6667,647.9625,607.5,641.7125,611.6667" style="stroke:#4E5D6C;stroke-width:1.0416666666666667;"/></g><!--reverse link BaseRepository to BaseDataSource--><g id="link_BaseRepository_BaseDataSource"><path codeLine="40" d="M634.2427,553.3906 C636.8542,550.7167 639.3354,547.9219 641.6667,545 C742.7729,418.2708 598.1271,308.2604 704.1667,185.625 C720.8188,166.3646 746.0938,155.5417 770.176,149.4688 " fill="none" id="BaseRepository-backto-BaseDataSource" style="stroke:#4E5D6C;stroke-width:1.0416666666666667;"/><polygon fill="none" points="624.25,562.5521,631.6726,561.3991,633.4631,554.1041,626.0406,555.2571,624.25,562.5521" style="stroke:#4E5D6C;stroke-width:1.0416666666666667;"/></g><!--reverse link BaseService to BaseRepository--><g id="link_BaseService_BaseRepository"><path codeLine="46" d="M268.1365,644.451 C285.1448,641.8219 302.9781,639.0646 320.774,636.3135 " fill="none" id="BaseService-backto-BaseRepository" style="stroke:#4E5D6C;stroke-width:1.0416666666666667;"/><polygon fill="none" points="254.6906,646.5292,261.5037,649.6924,267.044,644.62,260.2309,641.4568,254.6906,646.5292" style="stroke:#4E5D6C;stroke-width:1.0416666666666667;"/></g><!--reverse link BaseModel to FeatureModel--><g id="link_BaseModel_FeatureModel"><path codeLine="51" d="M911.1521,226.8958 C950.4135,229.6979 996.375,240.6146 1022.9167,273.125 C1031.8156,284.0208 1028.5677,512.4375 1031.25,526.25 C1060.7604,678.201 1138.4688,848.574 1169.0938,912.0635 " fill="none" id="BaseModel-backto-FeatureModel" style="stroke:#4E5D6C;stroke-width:1.0416666666666667;"/><polygon fill="none" points="910.7333,234.1771,890.1958,226.0937,911.2938,219.6042,910.7333,234.1771" style="stroke:#4E5D6C;stroke-width:1.0416666666666667;"/></g><!--reverse link BaseDataSource to BaseFeatureDataSource--><g id="link_BaseDataSource_BaseFeatureDataSource"><path codeLine="57" d="M927.6417,147.7917 C960.2177,153.6458 995.7823,164.7708 1022.9167,185.625 C1297.6979,396.8333 1420.9896,830.8 1452.8125,961.2573 " fill="none" id="BaseDataSource-backto-BaseFeatureDataSource" style="stroke:#4E5D6C;stroke-width:1.0416666666666667;"/><polygon fill="none" points="926.301,154.9688,906.7844,144.6563,928.4698,140.5521,926.301,154.9688" style="stroke:#4E5D6C;stroke-width:1.0416666666666667;"/></g><!--reverse link BaseFeatureDataSource to RemoteFeatureDataSource--><g id="link_BaseFeatureDataSource_RemoteFeatureDataSource"><path codeLine="63" d="M1573.4063,1025.9521 C1587.4375,1029.3729 1601.7396,1032.8604 1615.6042,1036.2406 " fill="none" id="BaseFeatureDataSource-backto-RemoteFeatureDataSource" style="stroke:#4E5D6C;stroke-width:1.0416666666666667;"/><polygon fill="none" points="1571.6354,1033.026,1553.125,1021.0073,1575.0938,1018.8583,1571.6354,1033.026" style="stroke:#4E5D6C;stroke-width:1.0416666666666667;"/></g><!--reverse link BaseFeatureDataSource to LocalFeatureDataSource--><g id="link_BaseFeatureDataSource_LocalFeatureDataSource"><path codeLine="69" d="M1573.6458,977.3281 C1590.375,974.0094 1607.4896,970.6156 1623.7708,967.3844 " fill="none" id="BaseFeatureDataSource-backto-LocalFeatureDataSource" style="stroke:#4E5D6C;stroke-width:1.0416666666666667;"/><polygon fill="none" points="1574.9792,984.4969,1553.125,981.3979,1572.1458,970.1917,1574.9792,984.4969" style="stroke:#4E5D6C;stroke-width:1.0416666666666667;"/></g><!--reverse link FeatureRepository to BaseFeatureDataSource--><g id="link_FeatureRepository_BaseFeatureDataSource"><path codeLine="76" d="M1323.4375,1024.025 C1339.8646,1021.0667 1356.2813,1018.1104 1371.7604,1015.3229 " fill="none" id="FeatureRepository-backto-BaseFeatureDataSource" style="stroke:#4E5D6C;stroke-width:1.0416666666666667;"/><polygon fill="none" points="1309.6563,1026.5073,1316.5449,1029.5024,1321.959,1024.2956,1315.0704,1021.3005,1309.6563,1026.5073" style="stroke:#4E5D6C;stroke-width:1.0416666666666667;"/></g><!--reverse link FeatureRepository to FeatureMapper--><g id="link_FeatureRepository_FeatureMapper"><path codeLine="77" d="M1269.6771,1105.8427 C1307.1667,1130.6063 1350.7396,1159.3771 1386.8646,1183.2344 " fill="none" id="FeatureRepository-backto-FeatureMapper" style="stroke:#4E5D6C;stroke-width:1.0416666666666667;"/><polygon fill="none" points="1258.25,1098.2969,1261.1724,1105.2166,1268.6839,1105.1805,1265.7615,1098.2607,1258.25,1098.2969" style="stroke:#4E5D6C;stroke-width:1.0416666666666667;"/></g><!--reverse link BaseFeatureRepository to FeatureRepository--><g id="link_BaseFeatureRepository_FeatureRepository"><path codeLine="78" d="M1182.8125,1162.4688 C1182.8125,1141.049 1182.8125,1119.6292 1182.8125,1098.2094 " fill="none" id="BaseFeatureRepository-backto-FeatureRepository" style="stroke:#4E5D6C;stroke-width:1.0416666666666667;"/><polygon fill="none" points="1190.1042,1162.6104,1182.8125,1183.4438,1175.5208,1162.6104,1190.1042,1162.6104" style="stroke:#4E5D6C;stroke-width:1.0416666666666667;"/></g><!--reverse link BaseEntity to FeatureEntity--><g id="link_BaseEntity_FeatureEntity"><path codeLine="83" d="M553.3615,721.675 C672.9542,723.5604 912.1906,746.8323 1022.9167,895 C1036.3948,913.0365 1017.5479,1282.3417 1031.25,1300.2083 C1052.6146,1328.0646 1090.6667,1338.9563 1123.1667,1342.9073 " fill="none" id="BaseEntity-backto-FeatureEntity" style="stroke:#4E5D6C;stroke-width:1.0416666666666667;"/><polygon fill="none" points="553.2698,728.9656,532.4813,721.5458,553.3594,714.3833,553.2698,728.9656" style="stroke:#4E5D6C;stroke-width:1.0416666666666667;"/></g><!--reverse link BaseMapper to FeatureMapper--><g id="link_BaseMapper_FeatureMapper"><path codeLine="90" d="M556.0406,438.3354 C586.7854,418.5958 620.249,391.9167 641.6667,359.5833 C707.4031,260.3542 610.6948,172.8542 704.1667,99.1667 C815.4167,11.4583 907.0146,17.7083 1022.9167,99.1667 C1330.4688,315.3333 1194.2396,537.1458 1309.375,895 C1340.4792,991.6771 1326.4479,1023.9625 1371.875,1114.7917 C1384,1139.0229 1401.3438,1163.2729 1417.5417,1183.4115 " fill="none" id="BaseMapper-backto-FeatureMapper" style="stroke:#4E5D6C;stroke-width:1.0416666666666667;"/><polygon fill="none" points="559.4542,444.7948,537.874,449.4313,551.8521,432.349,559.4542,444.7948" style="stroke:#4E5D6C;stroke-width:1.0416666666666667;"/></g><!--reverse link BaseFeatureRepository to BaseDataSource--><g id="link_BaseFeatureRepository_BaseDataSource"><path codeLine="97" d="M1081.8438,1175.0656 C1061.5,1158.3875 1042.8021,1138.2292 1031.25,1114.7917 C1019.8365,1091.6406 1039,205.8125 1022.9167,185.625 C995.7969,151.5833 947.3719,141.1042 907.1,138.8958 " fill="none" id="BaseFeatureRepository-backto-BaseDataSource" style="stroke:#4E5D6C;stroke-width:1.0416666666666667;"/><polygon fill="none" points="1092.6042,1183.4688,1090.2423,1176.3382,1082.7518,1175.7759,1085.1137,1182.9064,1092.6042,1183.4688" style="stroke:#4E5D6C;stroke-width:1.0416666666666667;"/></g><!--reverse link BaseFeatureRepository to FeatureMapper--><g id="link_BaseFeatureRepository_FeatureMapper"><path codeLine="98" d="M1300.625,1232.5 C1328.0729,1232.5 1356.7083,1232.5 1382.0833,1232.5 " fill="none" id="BaseFeatureRepository-backto-FeatureMapper" style="stroke:#4E5D6C;stroke-width:1.0416666666666667;"/><polygon fill="none" points="1286.8333,1232.5,1293.0833,1236.6667,1299.3333,1232.5,1293.0833,1228.3333,1286.8333,1232.5" style="stroke:#4E5D6C;stroke-width:1.0416666666666667;"/></g><!--reverse link BaseRepository to BaseFeatureRepository--><g id="link_BaseRepository_BaseFeatureRepository"><path codeLine="99" d="M662.6063,647.0906 C802.1563,678.5448 978.8479,728.6104 1022.9167,787.7083 C1044.6458,816.8521 1014.9052,1082.3188 1031.25,1114.7917 C1045.0417,1142.201 1068.5208,1165.1708 1092.8854,1183.3302 " fill="none" id="BaseRepository-backto-BaseFeatureRepository" style="stroke:#4E5D6C;stroke-width:1.0416666666666667;"/><polygon fill="none" points="660.6292,654.1208,641.8698,642.4906,663.7875,639.8844,660.6292,654.1208" style="stroke:#4E5D6C;stroke-width:1.0416666666666667;"/></g><!--reverse link BaseFeatureService to BaseFeatureRepository--><g id="link_BaseFeatureService_BaseFeatureRepository"><path codeLine="106" d="M584.275,905.7531 C705.7677,848.7417 906.8417,782.1813 1022.9167,893.9583 C1040.6042,910.9906 1020.0771,1092.9271 1031.25,1114.7917 C1045.2917,1142.2635 1068.9896,1165.3104 1093.4896,1183.5208 " fill="none" id="BaseFeatureService-backto-BaseFeatureRepository" style="stroke:#4E5D6C;stroke-width:1.0416666666666667;"/><polygon fill="none" points="572.0458,911.5865,579.4808,912.6564,583.3281,906.2049,575.8931,905.1349,572.0458,911.5865" style="stroke:#4E5D6C;stroke-width:1.0416666666666667;"/></g><!--reverse link BaseService to BaseFeatureService--><g id="link_BaseService_BaseFeatureService"><path codeLine="107" d="M213.051,713.6875 C273.2969,769.374 368.1521,857.05 427.1354,911.5688 " fill="none" id="BaseService-backto-BaseFeatureService" style="stroke:#4E5D6C;stroke-width:1.0416666666666667;"/><polygon fill="none" points="207.7563,718.7229,197.4073,699.2271,217.6552,708.0135,207.7563,718.7229" style="stroke:#4E5D6C;stroke-width:1.0416666666666667;"/></g><!--reverse link FeatureService to BaseFeatureRepository--><g id="link_FeatureService_BaseFeatureRepository"><path codeLine="114" d="M911.1438,1018.5677 C947.0927,1047.5781 991.3771,1083.1677 1031.25,1114.7917 C1059.8438,1137.4677 1091.6563,1162.3885 1118.6354,1183.4396 " fill="none" id="FeatureService-backto-BaseFeatureRepository" style="stroke:#4E5D6C;stroke-width:1.0416666666666667;"/><polygon fill="none" points="900.2688,1009.7875,902.5137,1016.9557,909.994,1017.6405,907.749,1010.4723,900.2688,1009.7875" style="stroke:#4E5D6C;stroke-width:1.0416666666666667;"/></g><!--reverse link BaseFeatureService to FeatureService--><g id="link_BaseFeatureService_FeatureService"><path codeLine="115" d="M624.3854,960.625 C654.899,960.625 686.8708,960.625 716.4958,960.625 " fill="none" id="BaseFeatureService-backto-FeatureService" style="stroke:#4E5D6C;stroke-width:1.0416666666666667;"/><polygon fill="none" points="624.374,967.9167,603.5406,960.625,624.374,953.3333,624.374,967.9167" style="stroke:#4E5D6C;stroke-width:1.0416666666666667;"/></g><!--reverse link Bloc to ExtendedBloc--><g id="link_Bloc_ExtendedBloc"><path codeLine="122" d="M279.6698,1136.8542 C319.3344,1138.2594 362.3115,1139.7813 398.2677,1141.0552 " fill="none" id="Bloc-backto-ExtendedBloc" style="stroke:#4E5D6C;stroke-width:1.0416666666666667;"/><polygon fill="none" points="279.2271,1144.1344,258.6646,1136.1094,279.7427,1129.5604,279.2271,1144.1344" style="stroke:#4E5D6C;stroke-width:1.0416666666666667;"/></g><!--reverse link StateListener to ExtendedBloc--><g id="link_StateListener_ExtendedBloc"><path codeLine="123" d="M379.0156,335.9583 C337.6323,355.0104 297.3083,384.7604 287.7604,429.8958 C281.1135,461.3188 281.1135,976.5979 287.7604,1008.0208 C299.0813,1061.5406 351.0385,1096.175 398.2625,1117.0833 " fill="none" id="StateListener-backto-ExtendedBloc" style="stroke:#4E5D6C;stroke-width:1.0416666666666667;"/><polygon fill="none" points="376.2875,329.1875,398.3167,327.8125,381.9573,342.625,376.2875,329.1875" style="stroke:#4E5D6C;stroke-width:1.0416666666666667;"/></g><!--reverse link Bloc to BaseFeatureService--><g id="link_Bloc_BaseFeatureService"><path codeLine="129" d="M239.5313,1088.5208 C284.8792,1064.4229 341.2031,1034.4927 387.9604,1009.6458 " fill="none" id="Bloc-backto-BaseFeatureService" style="stroke:#4E5D6C;stroke-width:1.0416666666666667;"/><polygon fill="none" points="227.351,1094.9938,234.8254,1095.7402,238.3892,1089.1278,230.9148,1088.3814,227.351,1094.9938" style="stroke:#4E5D6C;stroke-width:1.0416666666666667;"/></g><!--reverse link Page to ExtendedBloc--><g id="link_Page_ExtendedBloc"><path codeLine="139" d="M250.6427,1293.2625 C260.5125,1287.6313 270.3469,1281.8917 279.6875,1276.25 C323.2417,1249.9438 370.824,1218.6656 408.7031,1193.1292 " fill="none" id="Page-backto-ExtendedBloc" style="stroke:#4E5D6C;stroke-width:1.0416666666666667;"/><polygon fill="none" points="238.6167,1300.0646,246.1081,1300.6145,249.497,1293.9108,242.0056,1293.3609,238.6167,1300.0646" style="stroke:#4E5D6C;stroke-width:1.0416666666666667;"/></g><!--SRC=[nLV9Rjim4BthAnYVMhJk1mX632HrJp5Gn8SUWuaqiGb8ea0oIOsq_rvAr49P8aMgGNkojfdtvircNiaJvaZWLQmPX-A8qPL-KcP0YoWIA4a1EOeI4ZnW2HmauoIEeoZ39qaa8vmUJvAab6CYALCsy2WaXqII90CXo2fX7EFuCMF9Gmu5795_IO7BEBu1WGS94k-ea5WWNv6tw7SKpTcDR0ZvzC9eIbXnUwg2g3_uyB7o5OI- -RLUU-FQ0ar1WW7nLTqUs3DFi8dEoshFKin237eOuJPZkKgiORWh99NdC9izb6Md_4uLWNQY55VtUtLVqzS9y7HvZoKJLDNMkN7Rusnwcfz99yxrbkJrw_RZNe4jIRjhemQScApFl2LS2urLi7jhVTZ4eeN4wYaRb2xo5wgBgX6WnziItbqR0hZzk1GmGkdQymb1FhS1FMHmxlhactvZrh2podNRUVeRYsGth30Qus4RAiNIivfhD257bDMxmRHmjF0Srsb83z7kCMSoa6rmv7FiRIGy-D-n1BB_JD_2mRza9wVGoA4vNjGtRNdMKw8TIkxu9k3OehhwAuowooSxJS_toFcjmSZ4y6nczqInCXjigxcLTabbpci8aS4Ax6QPiVgQnzgrkI8Tn5kdtiJRH3bcedVYtiQBDBpGlT7y5k9Ypo55xh6-vnCoJSQHc7uPs_oCD_m8OB3ev-Ti02PR6B3NNuqBEVrfZJlKOlkl9Nmt-PRaoa_EMIbBZW8BTSPHfxY1vUwdEl6acDwe8v5reRlEOFCGslL587w48k-3uZBt_ZeP-epJH8J-3HA4lLkVM85-q5GbSNZodhVwhbHkpt-6MgHAGlMm4dsZNL-Jr_fNU4QkNRC5gVe3]--></g></svg>