<?xml version="1.0" encoding="us-ascii" standalone="no"?><svg xmlns="http://www.w3.org/2000/svg" xmlns:xlink="http://www.w3.org/1999/xlink" contentStyleType="text/css" height="1064.5833px" preserveAspectRatio="none" style="width:2925px;height:1064px;background:#FFFFFF;" version="1.1" viewBox="0 0 2925 1064" width="2925px" zoomAndPan="magnify"><defs/><g><!--cluster Core--><g id="cluster_Core"><path d="M15.625,198.9583 L59.375,198.9583 A6.25,6.25 0 0 1 63.5417,203.125 L70.8333,230.1758 L910.4167,230.1758 A4.1667,4.1667 0 0 1 914.5833,234.3424 L914.5833,809.8958 A4.1667,4.1667 0 0 1 910.4167,814.0625 L15.625,814.0625 A4.1667,4.1667 0 0 1 11.4583,809.8958 L11.4583,203.125 A4.1667,4.1667 0 0 1 15.625,198.9583 " fill="#FFFFFF" style="stroke:#4E5D6C;stroke-width:1.0416666666666667;"/><line style="stroke:#4E5D6C;stroke-width:1.0416666666666667;" x1="11.4583" x2="70.8333" y1="230.1758" y2="230.1758"/><text fill="#4E5D6C" font-family="Verdana" font-size="12.5" font-weight="bold" lengthAdjust="spacing" textLength="35.4167" x="20.8333" y="217.8528">Core</text></g><!--cluster Contracts--><g id="cluster_Contracts"><path d="M40.625,251.0417 L125,251.0417 A6.25,6.25 0 0 1 129.1667,255.2083 L136.4583,282.2591 L685.4167,282.2591 A4.1667,4.1667 0 0 1 689.5833,286.4258 L689.5833,784.8958 A4.1667,4.1667 0 0 1 685.4167,789.0625 L40.625,789.0625 A4.1667,4.1667 0 0 1 36.4583,784.8958 L36.4583,255.2083 A4.1667,4.1667 0 0 1 40.625,251.0417 " fill="#FFFFFF" style="stroke:#4E5D6C;stroke-width:1.0416666666666667;"/><line style="stroke:#4E5D6C;stroke-width:1.0416666666666667;" x1="36.4583" x2="136.4583" y1="282.2591" y2="282.2591"/><text fill="#4E5D6C" font-family="Verdana" font-size="12.5" font-weight="bold" lengthAdjust="spacing" textLength="76.0417" x="45.8333" y="269.9361">Contracts</text></g><!--cluster State Listeners--><g id="cluster_State Listeners"><path d="M718.75,262.5 L845.8333,262.5 A6.25,6.25 0 0 1 850,266.6667 L857.2917,293.7174 L885.4167,293.7174 A4.1667,4.1667 0 0 1 889.5833,297.8841 L889.5833,393.75 A4.1667,4.1667 0 0 1 885.4167,397.9167 L718.75,397.9167 A4.1667,4.1667 0 0 1 714.5833,393.75 L714.5833,266.6667 A4.1667,4.1667 0 0 1 718.75,262.5 " fill="#FFFFFF" style="stroke:#4E5D6C;stroke-width:1.0416666666666667;"/><line style="stroke:#4E5D6C;stroke-width:1.0416666666666667;" x1="714.5833" x2="857.2917" y1="293.7174" y2="293.7174"/><text fill="#4E5D6C" font-family="Verdana" font-size="12.5" font-weight="bold" lengthAdjust="spacing" textLength="118.75" x="723.9583" y="281.3944">State Listeners</text></g><!--cluster Feature--><g id="cluster_Feature"><path d="M943.75,11.4583 L1012.5,11.4583 A6.25,6.25 0 0 1 1016.6667,15.625 L1023.9583,42.6758 L2913.5417,42.6758 A4.1667,4.1667 0 0 1 2917.7083,46.8424 L2917.7083,1053.125 A4.1667,4.1667 0 0 1 2913.5417,1057.2917 L943.75,1057.2917 A4.1667,4.1667 0 0 1 939.5833,1053.125 L939.5833,15.625 A4.1667,4.1667 0 0 1 943.75,11.4583 " fill="#FFFFFF" style="stroke:#4E5D6C;stroke-width:1.0416666666666667;"/><line style="stroke:#4E5D6C;stroke-width:1.0416666666666667;" x1="939.5833" x2="1023.9583" y1="42.6758" y2="42.6758"/><text fill="#4E5D6C" font-family="Verdana" font-size="12.5" font-weight="bold" lengthAdjust="spacing" textLength="60.4167" x="948.9583" y="30.3528">Feature</text></g><!--cluster Data--><g id="cluster_Data"><path d="M968.75,594.7917 L1013.5417,594.7917 A6.25,6.25 0 0 1 1017.7083,598.9583 L1025,626.0091 L1743.75,626.0091 A4.1667,4.1667 0 0 1 1747.9167,630.1758 L1747.9167,867.7083 A4.1667,4.1667 0 0 1 1743.75,871.875 L968.75,871.875 A4.1667,4.1667 0 0 1 964.5833,867.7083 L964.5833,598.9583 A4.1667,4.1667 0 0 1 968.75,594.7917 " fill="#FFFFFF" style="stroke:#4E5D6C;stroke-width:1.0416666666666667;"/><line style="stroke:#4E5D6C;stroke-width:1.0416666666666667;" x1="964.5833" x2="1025" y1="626.0091" y2="626.0091"/><text fill="#4E5D6C" font-family="Verdana" font-size="12.5" font-weight="bold" lengthAdjust="spacing" textLength="36.4583" x="973.9583" y="613.6861">Data</text></g><!--cluster Domain--><g id="cluster_Domain"><path d="M1777.0833,422.9167 L1840.625,422.9167 A6.25,6.25 0 0 1 1844.7917,427.0833 L1852.0833,454.1341 L2293.75,454.1341 A4.1667,4.1667 0 0 1 2297.9167,458.3008 L2297.9167,1028.125 A4.1667,4.1667 0 0 1 2293.75,1032.2917 L1777.0833,1032.2917 A4.1667,4.1667 0 0 1 1772.9167,1028.125 L1772.9167,427.0833 A4.1667,4.1667 0 0 1 1777.0833,422.9167 " fill="#FFFFFF" style="stroke:#4E5D6C;stroke-width:1.0416666666666667;"/><line style="stroke:#4E5D6C;stroke-width:1.0416666666666667;" x1="1772.9167" x2="1852.0833" y1="454.1341" y2="454.1341"/><text fill="#4E5D6C" font-family="Verdana" font-size="12.5" font-weight="bold" lengthAdjust="spacing" textLength="55.2083" x="1782.2917" y="441.8111">Domain</text></g><!--cluster Presentation--><g id="cluster_Presentation"><path d="M2327.0833,63.5417 L2435.4167,63.5417 A6.25,6.25 0 0 1 2439.5833,67.7083 L2446.875,94.7591 L2888.5417,94.7591 A4.1667,4.1667 0 0 1 2892.7083,98.9258 L2892.7083,867.7083 A4.1667,4.1667 0 0 1 2888.5417,871.875 L2327.0833,871.875 A4.1667,4.1667 0 0 1 2322.9167,867.7083 L2322.9167,67.7083 A4.1667,4.1667 0 0 1 2327.0833,63.5417 " fill="#FFFFFF" style="stroke:#4E5D6C;stroke-width:1.0416666666666667;"/><line style="stroke:#4E5D6C;stroke-width:1.0416666666666667;" x1="2322.9167" x2="2446.875" y1="94.7591" y2="94.7591"/><text fill="#4E5D6C" font-family="Verdana" font-size="12.5" font-weight="bold" lengthAdjust="spacing" textLength="100" x="2332.2917" y="82.4361">Presentation</text></g><!--cluster State Managment--><g id="cluster_State Managment"><path d="M2352.0833,251.0417 L2495.8333,251.0417 A6.25,6.25 0 0 1 2500,255.2083 L2507.2917,282.2591 L2701.0417,282.2591 A4.1667,4.1667 0 0 1 2705.2083,286.4258 L2705.2083,565.625 A4.1667,4.1667 0 0 1 2701.0417,569.7917 L2352.0833,569.7917 A4.1667,4.1667 0 0 1 2347.9167,565.625 L2347.9167,255.2083 A4.1667,4.1667 0 0 1 2352.0833,251.0417 " fill="#FFFFFF" style="stroke:#4E5D6C;stroke-width:1.0416666666666667;"/><line style="stroke:#4E5D6C;stroke-width:1.0416666666666667;" x1="2347.9167" x2="2507.2917" y1="282.2591" y2="282.2591"/><text fill="#4E5D6C" font-family="Verdana" font-size="12.5" font-weight="bold" lengthAdjust="spacing" textLength="135.4167" x="2357.2917" y="269.9361">State Managment</text></g><!--class BaseModel--><g id="elem_BaseModel"><rect codeLine="6" fill="#FFFFFF" height="50.8382" id="BaseModel" rx="4.1667" ry="4.1667" style="stroke:#4E5D6C;stroke-width:1.0416666666666667;" width="103.125" x="430.7292" y="318.2292"/><ellipse cx="444.2708" cy="335.3149" fill="#FFFFFF" rx="9.375" ry="9.375" style="stroke:#4E5D6C;stroke-width:1.0416666666666667;"/><path d="M445.8171,336.4705 L446.11,337.1867 L445.8171,337.1867 C445.5078,337.1867 445.4102,337.203 445.2962,337.2843 C445.1172,337.382 445.0033,337.6099 445.0033,337.8215 C445.0033,338.0168 445.1009,338.1958 445.2637,338.3097 C445.3776,338.4074 445.5241,338.4399 445.8171,338.4399 L447.5586,338.4399 C447.819,338.4399 447.9818,338.4074 448.0794,338.3586 C448.2747,338.2446 448.3887,338.033 448.3887,337.8215 C448.3887,337.6099 448.291,337.4308 448.1283,337.3169 C447.998,337.2192 447.8841,337.1867 447.5423,337.1867 L445.0521,331.1483 L442.3503,331.1483 C442.0085,331.1483 441.9271,331.1646 441.8132,331.2459 C441.6178,331.3599 441.5202,331.5715 441.5202,331.783 C441.5202,331.9784 441.6178,332.1574 441.7806,332.2876 C441.8945,332.3853 442.0247,332.4015 442.3503,332.4015 L443.1315,332.4015 L441.1947,337.1867 C440.8854,337.1867 440.7715,337.203 440.6576,337.2843 C440.4785,337.382 440.3646,337.6099 440.3646,337.8215 C440.3646,338.2284 440.6413,338.4399 441.1947,338.4399 L442.8548,338.4399 C443.1152,338.4399 443.278,338.4074 443.3757,338.3586 C443.5547,338.2446 443.6686,338.033 443.6686,337.8215 C443.6686,337.6099 443.571,337.4308 443.4082,337.3006 C443.2943,337.2192 443.1803,337.1867 442.8548,337.1867 L442.5618,337.1867 L442.8548,336.4705 L445.8171,336.4705 Z M445.3125,335.2173 L443.3431,335.2173 L444.3359,332.8084 L445.3125,335.2173 Z " fill="#4E5D6C"/><text fill="#4E5D6C" font-family="Verdana" font-size="11.4583" font-style="italic" lengthAdjust="spacing" textLength="63.5417" x="461.9792" y="339.2817">BaseModel</text><line style="stroke:#4E5D6C;stroke-width:1.0416666666666667;" x1="431.7708" x2="532.8125" y1="352.4007" y2="352.4007"/><line style="stroke:#4E5D6C;stroke-width:1.0416666666666667;" x1="431.7708" x2="532.8125" y1="360.734" y2="360.734"/></g><!--class BaseRepository--><g id="elem_BaseRepository"><rect codeLine="9" fill="#FFFFFF" height="98.348" id="BaseRepository" rx="4.1667" ry="4.1667" style="stroke:#4E5D6C;stroke-width:1.0416666666666667;" width="314.5833" x="261.4583" y="466.6667"/><ellipse cx="363.2813" cy="483.7524" fill="#FFFFFF" rx="9.375" ry="9.375" style="stroke:#4E5D6C;stroke-width:1.0416666666666667;"/><path d="M364.8275,484.908 L365.1204,485.6242 L364.8275,485.6242 C364.5182,485.6242 364.4206,485.6405 364.3066,485.7218 C364.1276,485.8195 364.0137,486.0474 364.0137,486.259 C364.0137,486.4543 364.1113,486.6333 364.2741,486.7472 C364.388,486.8449 364.5345,486.8774 364.8275,486.8774 L366.569,486.8774 C366.8294,486.8774 366.9922,486.8449 367.0898,486.7961 C367.2852,486.6821 367.3991,486.4705 367.3991,486.259 C367.3991,486.0474 367.3014,485.8683 367.1387,485.7544 C367.0085,485.6567 366.8945,485.6242 366.5527,485.6242 L364.0625,479.5858 L361.3607,479.5858 C361.0189,479.5858 360.9375,479.6021 360.8236,479.6834 C360.6283,479.7974 360.5306,480.009 360.5306,480.2205 C360.5306,480.4159 360.6283,480.5949 360.791,480.7251 C360.9049,480.8228 361.0352,480.839 361.3607,480.839 L362.1419,480.839 L360.2051,485.6242 C359.8958,485.6242 359.7819,485.6405 359.668,485.7218 C359.4889,485.8195 359.375,486.0474 359.375,486.259 C359.375,486.6659 359.6517,486.8774 360.2051,486.8774 L361.8652,486.8774 C362.1257,486.8774 362.2884,486.8449 362.3861,486.7961 C362.5651,486.6821 362.679,486.4705 362.679,486.259 C362.679,486.0474 362.5814,485.8683 362.4186,485.7381 C362.3047,485.6567 362.1908,485.6242 361.8652,485.6242 L361.5723,485.6242 L361.8652,484.908 L364.8275,484.908 Z M364.3229,483.6548 L362.3535,483.6548 L363.3464,481.2459 L364.3229,483.6548 Z " fill="#4E5D6C"/><text fill="#4E5D6C" font-family="Verdana" font-size="11.4583" font-style="italic" lengthAdjust="spacing" textLength="92.7083" x="386.7188" y="487.7192">BaseRepository</text><line style="stroke:#4E5D6C;stroke-width:1.0416666666666667;" x1="262.5" x2="575" y1="500.8382" y2="500.8382"/><ellipse cx="272.9167" cy="518.4448" fill="none" rx="3.125" ry="3.125" style="stroke:#4E5D6C;stroke-width:1.0416666666666667;"/><text fill="#4E5D6C" font-family="Verdana" font-size="11.4583" lengthAdjust="spacing" textLength="279.1667" x="285.4167" y="520.8491">BaseMapper&lt;BaseEntity, BaseModel&gt; mapper</text><ellipse cx="272.9167" cy="542.1997" fill="none" rx="3.125" ry="3.125" style="stroke:#4E5D6C;stroke-width:1.0416666666666667;"/><text fill="#4E5D6C" font-family="Verdana" font-size="11.4583" lengthAdjust="spacing" textLength="171.875" x="285.4167" y="544.604">BaseDataSource dataSource</text><line style="stroke:#4E5D6C;stroke-width:1.0416666666666667;" x1="262.5" x2="575" y1="556.6813" y2="556.6813"/></g><!--class BaseMapper<BaseEntity, BaseModel>--><g id="elem_BaseMapper&lt;BaseEntity, BaseModel&gt;"><rect fill="#FFFFFF" height="50.8382" id="BaseMapper&lt;BaseEntity, BaseModel&gt;" rx="4.1667" ry="4.1667" style="stroke:#4E5D6C;stroke-width:1.0416666666666667;" width="268.75" x="230.2083" y="721.3542"/><ellipse cx="243.75" cy="738.4399" fill="#FFFFFF" rx="9.375" ry="9.375" style="stroke:#4E5D6C;stroke-width:1.0416666666666667;"/><path d="M245.6868,735.0545 C245.0033,734.729 244.5638,734.6313 243.9128,734.6313 C241.9922,734.6313 240.5111,736.145 240.5111,738.147 L240.5111,738.9771 C240.5111,740.8813 242.0736,742.2648 244.1895,742.2648 C245.0846,742.2648 245.9473,742.0369 246.4844,741.63 C246.9238,741.3371 247.1517,741.0116 247.1517,740.7186 C247.1517,740.3931 246.8587,740.1001 246.5332,740.1001 C246.3704,740.1001 246.224,740.1652 246.0775,740.2954 C245.7357,740.6535 245.7357,740.6535 245.6055,740.7186 C245.2962,740.9139 244.7917,741.0116 244.222,741.0116 C242.7246,741.0116 241.7643,740.1978 241.7643,738.9445 L241.7643,738.147 C241.7643,736.8286 242.6921,735.8683 243.9616,735.8683 C244.3848,735.8683 244.8405,735.9823 245.1823,736.1776 C245.5404,736.3729 245.6706,736.5356 245.7357,736.8286 C245.7845,737.1379 245.8008,737.2192 245.8984,737.3169 C245.9961,737.4308 246.1751,737.4959 246.3379,737.4959 C246.5495,737.4959 246.7285,737.3983 246.8587,737.2355 C246.9401,737.1216 246.9727,736.9914 246.9727,736.6659 L246.9727,735.6242 C246.9727,735.3149 246.9564,735.2173 246.875,735.1034 C246.7611,734.908 246.5658,734.7941 246.3379,734.7941 C246.1263,734.7941 245.9798,734.8755 245.8171,735.1034 L245.6868,735.0545 Z " fill="#4E5D6C"/><text fill="#4E5D6C" font-family="Verdana" font-size="11.4583" lengthAdjust="spacing" textLength="229.1667" x="261.4583" y="742.4067">BaseMapper&lt;BaseEntity, BaseModel&gt;</text><line style="stroke:#4E5D6C;stroke-width:1.0416666666666667;" x1="231.25" x2="497.9167" y1="755.5257" y2="755.5257"/><line style="stroke:#4E5D6C;stroke-width:1.0416666666666667;" x1="231.25" x2="497.9167" y1="763.859" y2="763.859"/></g><!--class BaseDataSource--><g id="elem_BaseDataSource"><rect codeLine="28" fill="#FFFFFF" height="50.8382" id="BaseDataSource" rx="4.1667" ry="4.1667" style="stroke:#4E5D6C;stroke-width:1.0416666666666667;" width="136.4583" x="535.9375" y="721.3542"/><ellipse cx="549.4792" cy="738.4399" fill="#FFFFFF" rx="9.375" ry="9.375" style="stroke:#4E5D6C;stroke-width:1.0416666666666667;"/><path d="M551.0254,739.5955 L551.3184,740.3117 L551.0254,740.3117 C550.7161,740.3117 550.6185,740.328 550.5046,740.4093 C550.3255,740.507 550.2116,740.7349 550.2116,740.9465 C550.2116,741.1418 550.3092,741.3208 550.472,741.4347 C550.5859,741.5324 550.7324,741.5649 551.0254,741.5649 L552.7669,741.5649 C553.0273,741.5649 553.1901,741.5324 553.2878,741.4836 C553.4831,741.3696 553.597,741.158 553.597,740.9465 C553.597,740.7349 553.4993,740.5558 553.3366,740.4419 C553.2064,740.3442 553.0924,740.3117 552.7507,740.3117 L550.2604,734.2733 L547.5586,734.2733 C547.2168,734.2733 547.1354,734.2896 547.0215,734.3709 C546.8262,734.4849 546.7285,734.6965 546.7285,734.908 C546.7285,735.1034 546.8262,735.2824 546.9889,735.4126 C547.1029,735.5103 547.2331,735.5265 547.5586,735.5265 L548.3398,735.5265 L546.403,740.3117 C546.0938,740.3117 545.9798,740.328 545.8659,740.4093 C545.6868,740.507 545.5729,740.7349 545.5729,740.9465 C545.5729,741.3534 545.8496,741.5649 546.403,741.5649 L548.0632,741.5649 C548.3236,741.5649 548.4863,741.5324 548.584,741.4836 C548.763,741.3696 548.877,741.158 548.877,740.9465 C548.877,740.7349 548.7793,740.5558 548.6165,740.4256 C548.5026,740.3442 548.3887,740.3117 548.0632,740.3117 L547.7702,740.3117 L548.0632,739.5955 L551.0254,739.5955 Z M550.5208,738.3423 L548.5514,738.3423 L549.5443,735.9334 L550.5208,738.3423 Z " fill="#4E5D6C"/><text fill="#4E5D6C" font-family="Verdana" font-size="11.4583" font-style="italic" lengthAdjust="spacing" textLength="96.875" x="567.1875" y="742.4067">BaseDataSource</text><line style="stroke:#4E5D6C;stroke-width:1.0416666666666667;" x1="536.9792" x2="671.3542" y1="755.5257" y2="755.5257"/><line style="stroke:#4E5D6C;stroke-width:1.0416666666666667;" x1="536.9792" x2="671.3542" y1="763.859" y2="763.859"/></g><!--class BaseMapper--><g id="elem_BaseMapper"><rect codeLine="17" fill="#FFFFFF" height="98.348" id="BaseMapper" rx="4.1667" ry="4.1667" style="stroke:#4E5D6C;stroke-width:1.0416666666666667;" width="112.5" x="53.125" y="294.7917"/><ellipse cx="66.6667" cy="311.8774" fill="#FFFFFF" rx="9.375" ry="9.375" style="stroke:#4E5D6C;stroke-width:1.0416666666666667;"/><path d="M68.2129,313.033 L68.5059,313.7492 L68.2129,313.7492 C67.9036,313.7492 67.806,313.7655 67.6921,313.8468 C67.513,313.9445 67.3991,314.1724 67.3991,314.384 C67.3991,314.5793 67.4967,314.7583 67.6595,314.8722 C67.7734,314.9699 67.9199,315.0024 68.2129,315.0024 L69.9544,315.0024 C70.2148,315.0024 70.3776,314.9699 70.4753,314.9211 C70.6706,314.8071 70.7845,314.5955 70.7845,314.384 C70.7845,314.1724 70.6868,313.9933 70.5241,313.8794 C70.3939,313.7817 70.2799,313.7492 69.9382,313.7492 L67.4479,307.7108 L64.7461,307.7108 C64.4043,307.7108 64.3229,307.7271 64.209,307.8084 C64.0137,307.9224 63.916,308.134 63.916,308.3455 C63.916,308.5409 64.0137,308.7199 64.1764,308.8501 C64.2904,308.9478 64.4206,308.964 64.7461,308.964 L65.5273,308.964 L63.5905,313.7492 C63.2813,313.7492 63.1673,313.7655 63.0534,313.8468 C62.8743,313.9445 62.7604,314.1724 62.7604,314.384 C62.7604,314.7909 63.0371,315.0024 63.5905,315.0024 L65.2507,315.0024 C65.5111,315.0024 65.6738,314.9699 65.7715,314.9211 C65.9505,314.8071 66.0645,314.5955 66.0645,314.384 C66.0645,314.1724 65.9668,313.9933 65.804,313.8631 C65.6901,313.7817 65.5762,313.7492 65.2507,313.7492 L64.9577,313.7492 L65.2507,313.033 L68.2129,313.033 Z M67.7083,311.7798 L65.7389,311.7798 L66.7318,309.3709 L67.7083,311.7798 Z " fill="#4E5D6C"/><text fill="#4E5D6C" font-family="Verdana" font-size="11.4583" font-style="italic" lengthAdjust="spacing" textLength="72.9167" x="84.375" y="315.8442">BaseMapper</text><line style="stroke:#4E5D6C;stroke-width:1.0416666666666667;" x1="54.1667" x2="164.5833" y1="328.9632" y2="328.9632"/><line style="stroke:#4E5D6C;stroke-width:1.0416666666666667;" x1="54.1667" x2="164.5833" y1="337.2965" y2="337.2965"/><ellipse cx="64.5833" cy="354.9032" fill="#FFFFFF" rx="3.125" ry="3.125" style="stroke:#4E5D6C;stroke-width:1.0416666666666667;"/><text fill="#4E5D6C" font-family="Verdana" font-size="11.4583" lengthAdjust="spacing" textLength="68.75" x="77.0833" y="357.3074">M toModel()</text><ellipse cx="64.5833" cy="378.658" fill="#FFFFFF" rx="3.125" ry="3.125" style="stroke:#4E5D6C;stroke-width:1.0416666666666667;"/><text fill="#4E5D6C" font-family="Verdana" font-size="11.4583" lengthAdjust="spacing" textLength="64.5833" x="77.0833" y="381.0623">E toEntity()</text></g><!--class BaseService--><g id="elem_BaseService"><rect codeLine="22" fill="#FFFFFF" height="74.5931" id="BaseService" rx="4.1667" ry="4.1667" style="stroke:#4E5D6C;stroke-width:1.0416666666666667;" width="191.6667" x="202.0833" y="306.25"/><ellipse cx="252.3438" cy="323.3358" fill="#FFFFFF" rx="9.375" ry="9.375" style="stroke:#4E5D6C;stroke-width:1.0416666666666667;"/><path d="M253.89,324.4914 L254.1829,325.2075 L253.89,325.2075 C253.5807,325.2075 253.4831,325.2238 253.3691,325.3052 C253.1901,325.4028 253.0762,325.6307 253.0762,325.8423 C253.0762,326.0376 253.1738,326.2166 253.3366,326.3306 C253.4505,326.4282 253.597,326.4608 253.89,326.4608 L255.6315,326.4608 C255.8919,326.4608 256.0547,326.4282 256.1523,326.3794 C256.3477,326.2655 256.4616,326.0539 256.4616,325.8423 C256.4616,325.6307 256.3639,325.4517 256.2012,325.3377 C256.071,325.2401 255.957,325.2075 255.6152,325.2075 L253.125,319.1691 L250.4232,319.1691 C250.0814,319.1691 250,319.1854 249.8861,319.2668 C249.6908,319.3807 249.5931,319.5923 249.5931,319.8039 C249.5931,319.9992 249.6908,320.1782 249.8535,320.3084 C249.9674,320.4061 250.0977,320.4224 250.4232,320.4224 L251.2044,320.4224 L249.2676,325.2075 C248.9583,325.2075 248.8444,325.2238 248.7305,325.3052 C248.5514,325.4028 248.4375,325.6307 248.4375,325.8423 C248.4375,326.2492 248.7142,326.4608 249.2676,326.4608 L250.9277,326.4608 C251.1882,326.4608 251.3509,326.4282 251.4486,326.3794 C251.6276,326.2655 251.7415,326.0539 251.7415,325.8423 C251.7415,325.6307 251.6439,325.4517 251.4811,325.3215 C251.3672,325.2401 251.2533,325.2075 250.9277,325.2075 L250.6348,325.2075 L250.9277,324.4914 L253.89,324.4914 Z M253.3854,323.2381 L251.416,323.2381 L252.4089,320.8293 L253.3854,323.2381 Z " fill="#4E5D6C"/><text fill="#4E5D6C" font-family="Verdana" font-size="11.4583" font-style="italic" lengthAdjust="spacing" textLength="72.9167" x="275.7813" y="327.3026">BaseService</text><line style="stroke:#4E5D6C;stroke-width:1.0416666666666667;" x1="203.125" x2="392.7083" y1="340.4215" y2="340.4215"/><ellipse cx="213.5417" cy="358.0282" fill="none" rx="3.125" ry="3.125" style="stroke:#4E5D6C;stroke-width:1.0416666666666667;"/><text fill="#4E5D6C" font-family="Verdana" font-size="11.4583" lengthAdjust="spacing" textLength="156.25" x="226.0417" y="360.4324">BaseRepository repository</text><line style="stroke:#4E5D6C;stroke-width:1.0416666666666667;" x1="203.125" x2="392.7083" y1="372.5098" y2="372.5098"/></g><!--class BaseEntity--><g id="elem_BaseEntity"><rect codeLine="31" fill="#FFFFFF" height="50.8382" id="BaseEntity" rx="4.1667" ry="4.1667" style="stroke:#4E5D6C;stroke-width:1.0416666666666667;" width="102.0833" x="570.8333" y="318.2292"/><ellipse cx="584.375" cy="335.3149" fill="#FFFFFF" rx="9.375" ry="9.375" style="stroke:#4E5D6C;stroke-width:1.0416666666666667;"/><path d="M585.9212,336.4705 L586.2142,337.1867 L585.9212,337.1867 C585.612,337.1867 585.5143,337.203 585.4004,337.2843 C585.2214,337.382 585.1074,337.6099 585.1074,337.8215 C585.1074,338.0168 585.2051,338.1958 585.3678,338.3097 C585.4818,338.4074 585.6283,338.4399 585.9212,338.4399 L587.6628,338.4399 C587.9232,338.4399 588.0859,338.4074 588.1836,338.3586 C588.3789,338.2446 588.4928,338.033 588.4928,337.8215 C588.4928,337.6099 588.3952,337.4308 588.2324,337.3169 C588.1022,337.2192 587.9883,337.1867 587.6465,337.1867 L585.1563,331.1483 L582.4544,331.1483 C582.1126,331.1483 582.0313,331.1646 581.9173,331.2459 C581.722,331.3599 581.6243,331.5715 581.6243,331.783 C581.6243,331.9784 581.722,332.1574 581.8848,332.2876 C581.9987,332.3853 582.1289,332.4015 582.4544,332.4015 L583.2357,332.4015 L581.2988,337.1867 C580.9896,337.1867 580.8757,337.203 580.7617,337.2843 C580.5827,337.382 580.4688,337.6099 580.4688,337.8215 C580.4688,338.2284 580.7454,338.4399 581.2988,338.4399 L582.959,338.4399 C583.2194,338.4399 583.3822,338.4074 583.4798,338.3586 C583.6589,338.2446 583.7728,338.033 583.7728,337.8215 C583.7728,337.6099 583.6751,337.4308 583.5124,337.3006 C583.3984,337.2192 583.2845,337.1867 582.959,337.1867 L582.666,337.1867 L582.959,336.4705 L585.9212,336.4705 Z M585.4167,335.2173 L583.4473,335.2173 L584.4401,332.8084 L585.4167,335.2173 Z " fill="#4E5D6C"/><text fill="#4E5D6C" font-family="Verdana" font-size="11.4583" font-style="italic" lengthAdjust="spacing" textLength="62.5" x="602.0833" y="339.2817">BaseEntity</text><line style="stroke:#4E5D6C;stroke-width:1.0416666666666667;" x1="571.875" x2="671.875" y1="352.4007" y2="352.4007"/><line style="stroke:#4E5D6C;stroke-width:1.0416666666666667;" x1="571.875" x2="671.875" y1="360.734" y2="360.734"/></g><!--class StateListener--><g id="elem_StateListener"><rect codeLine="34" fill="#FFFFFF" height="74.5931" id="StateListener" rx="4.1667" ry="4.1667" style="stroke:#4E5D6C;stroke-width:1.0416666666666667;" width="140.625" x="731.7708" y="306.25"/><ellipse cx="756.0938" cy="323.3358" fill="#FFFFFF" rx="9.375" ry="9.375" style="stroke:#4E5D6C;stroke-width:1.0416666666666667;"/><path d="M757.64,324.4914 L757.9329,325.2075 L757.64,325.2075 C757.3307,325.2075 757.2331,325.2238 757.1191,325.3052 C756.9401,325.4028 756.8262,325.6307 756.8262,325.8423 C756.8262,326.0376 756.9238,326.2166 757.0866,326.3306 C757.2005,326.4282 757.347,326.4608 757.64,326.4608 L759.3815,326.4608 C759.6419,326.4608 759.8047,326.4282 759.9023,326.3794 C760.0977,326.2655 760.2116,326.0539 760.2116,325.8423 C760.2116,325.6307 760.1139,325.4517 759.9512,325.3377 C759.821,325.2401 759.707,325.2075 759.3652,325.2075 L756.875,319.1691 L754.1732,319.1691 C753.8314,319.1691 753.75,319.1854 753.6361,319.2668 C753.4408,319.3807 753.3431,319.5923 753.3431,319.8039 C753.3431,319.9992 753.4408,320.1782 753.6035,320.3084 C753.7174,320.4061 753.8477,320.4224 754.1732,320.4224 L754.9544,320.4224 L753.0176,325.2075 C752.7083,325.2075 752.5944,325.2238 752.4805,325.3052 C752.3014,325.4028 752.1875,325.6307 752.1875,325.8423 C752.1875,326.2492 752.4642,326.4608 753.0176,326.4608 L754.6777,326.4608 C754.9382,326.4608 755.1009,326.4282 755.1986,326.3794 C755.3776,326.2655 755.4915,326.0539 755.4915,325.8423 C755.4915,325.6307 755.3939,325.4517 755.2311,325.3215 C755.1172,325.2401 755.0033,325.2075 754.6777,325.2075 L754.3848,325.2075 L754.6777,324.4914 L757.64,324.4914 Z M757.1354,323.2381 L755.166,323.2381 L756.1589,320.8293 L757.1354,323.2381 Z " fill="#4E5D6C"/><text fill="#4E5D6C" font-family="Verdana" font-size="11.4583" font-style="italic" lengthAdjust="spacing" textLength="77.0833" x="776.1979" y="327.3026">StateListener</text><line style="stroke:#4E5D6C;stroke-width:1.0416666666666667;" x1="732.8125" x2="871.3542" y1="340.4215" y2="340.4215"/><line style="stroke:#4E5D6C;stroke-width:1.0416666666666667;" x1="732.8125" x2="871.3542" y1="348.7549" y2="348.7549"/><ellipse cx="743.2292" cy="366.3615" fill="#FFFFFF" rx="3.125" ry="3.125" style="stroke:#4E5D6C;stroke-width:1.0416666666666667;"/><text fill="#4E5D6C" font-family="Verdana" font-size="11.4583" lengthAdjust="spacing" textLength="105.2083" x="755.7292" y="368.7658">void onChanged()</text></g><!--class FeatureRepoistory--><g id="elem_FeatureRepoistory"><rect codeLine="38" fill="#FFFFFF" height="122.1029" id="FeatureRepoistory" rx="4.1667" ry="4.1667" style="stroke:#4E5D6C;stroke-width:1.0416666666666667;" width="276.0417" x="1454.6875" y="685.9375"/><ellipse cx="1529.4271" cy="703.0233" fill="#FFFFFF" rx="9.375" ry="9.375" style="stroke:#4E5D6C;stroke-width:1.0416666666666667;"/><path d="M1531.3639,699.6379 C1530.6803,699.3123 1530.2409,699.2147 1529.5898,699.2147 C1527.6693,699.2147 1526.1882,700.7284 1526.1882,702.7303 L1526.1882,703.5604 C1526.1882,705.4647 1527.7507,706.8481 1529.8665,706.8481 C1530.7617,706.8481 1531.6243,706.6203 1532.1615,706.2134 C1532.6009,705.9204 1532.8288,705.5949 1532.8288,705.3019 C1532.8288,704.9764 1532.5358,704.6834 1532.2103,704.6834 C1532.0475,704.6834 1531.901,704.7485 1531.7546,704.8787 C1531.4128,705.2368 1531.4128,705.2368 1531.2826,705.3019 C1530.9733,705.4972 1530.4688,705.5949 1529.8991,705.5949 C1528.4017,705.5949 1527.4414,704.7811 1527.4414,703.5278 L1527.4414,702.7303 C1527.4414,701.4119 1528.3691,700.4517 1529.6387,700.4517 C1530.0618,700.4517 1530.5176,700.5656 1530.8594,700.7609 C1531.2174,700.9562 1531.3477,701.119 1531.4128,701.4119 C1531.4616,701.7212 1531.4779,701.8026 1531.5755,701.9002 C1531.6732,702.0142 1531.8522,702.0793 1532.015,702.0793 C1532.2266,702.0793 1532.4056,701.9816 1532.5358,701.8188 C1532.6172,701.7049 1532.6497,701.5747 1532.6497,701.2492 L1532.6497,700.2075 C1532.6497,699.8983 1532.6335,699.8006 1532.5521,699.6867 C1532.4382,699.4914 1532.2428,699.3774 1532.015,699.3774 C1531.8034,699.3774 1531.6569,699.4588 1531.4941,699.6867 L1531.3639,699.6379 Z " fill="#4E5D6C"/><text fill="#4E5D6C" font-family="Verdana" font-size="11.4583" lengthAdjust="spacing" textLength="108.3333" x="1552.8646" y="706.9901">FeatureRepoistory</text><line style="stroke:#4E5D6C;stroke-width:1.0416666666666667;" x1="1455.7292" x2="1729.6875" y1="720.109" y2="720.109"/><ellipse cx="1466.1458" cy="737.7157" fill="none" rx="3.125" ry="3.125" style="stroke:#4E5D6C;stroke-width:1.0416666666666667;"/><text fill="#4E5D6C" font-family="Verdana" font-size="11.4583" lengthAdjust="spacing" textLength="139.5833" x="1478.6458" y="740.1199">FeatureMapper mapper</text><ellipse cx="1466.1458" cy="761.4705" fill="none" rx="3.125" ry="3.125" style="stroke:#4E5D6C;stroke-width:1.0416666666666667;"/><text fill="#4E5D6C" font-family="Verdana" font-size="11.4583" lengthAdjust="spacing" textLength="217.7083" x="1478.6458" y="763.8748">BaseFeatureDataSource dataSource</text><line style="stroke:#4E5D6C;stroke-width:1.0416666666666667;" x1="1455.7292" x2="1729.6875" y1="775.9521" y2="775.9521"/><ellipse cx="1466.1458" cy="793.5588" fill="#FFFFFF" rx="3.125" ry="3.125" style="stroke:#4E5D6C;stroke-width:1.0416666666666667;"/><text fill="#4E5D6C" font-family="Verdana" font-size="11.4583" lengthAdjust="spacing" textLength="240.625" x="1478.6458" y="795.963">Stream&lt;FeatureEntity&gt; doSomeAction()</text></g><!--class FeatureModel--><g id="elem_FeatureModel"><rect codeLine="48" fill="#FFFFFF" height="217.1224" id="FeatureModel" rx="4.1667" ry="4.1667" style="stroke:#4E5D6C;stroke-width:1.0416666666666667;" width="120.8333" x="1296.875" y="638.5417"/><ellipse cx="1310.4167" cy="655.6274" fill="#FFFFFF" rx="9.375" ry="9.375" style="stroke:#4E5D6C;stroke-width:1.0416666666666667;"/><path d="M1312.3535,652.242 C1311.6699,651.9165 1311.2305,651.8188 1310.5794,651.8188 C1308.6589,651.8188 1307.1777,653.3325 1307.1777,655.3345 L1307.1777,656.1646 C1307.1777,658.0688 1308.7402,659.4523 1310.8561,659.4523 C1311.7513,659.4523 1312.6139,659.2244 1313.151,658.8175 C1313.5905,658.5246 1313.8184,658.1991 1313.8184,657.9061 C1313.8184,657.5806 1313.5254,657.2876 1313.1999,657.2876 C1313.0371,657.2876 1312.8906,657.3527 1312.7441,657.4829 C1312.4023,657.841 1312.4023,657.841 1312.2721,657.9061 C1311.9629,658.1014 1311.4583,658.1991 1310.8887,658.1991 C1309.3913,658.1991 1308.431,657.3853 1308.431,656.132 L1308.431,655.3345 C1308.431,654.0161 1309.3587,653.0558 1310.6283,653.0558 C1311.0514,653.0558 1311.5072,653.1698 1311.849,653.3651 C1312.207,653.5604 1312.3372,653.7231 1312.4023,654.0161 C1312.4512,654.3254 1312.4674,654.4067 1312.5651,654.5044 C1312.6628,654.6183 1312.8418,654.6834 1313.0046,654.6834 C1313.2161,654.6834 1313.3952,654.5858 1313.5254,654.423 C1313.6068,654.3091 1313.6393,654.1789 1313.6393,653.8534 L1313.6393,652.8117 C1313.6393,652.5024 1313.623,652.4048 1313.5417,652.2909 C1313.4277,652.0955 1313.2324,651.9816 1313.0046,651.9816 C1312.793,651.9816 1312.6465,652.063 1312.4837,652.2909 L1312.3535,652.242 Z " fill="#4E5D6C"/><text fill="#4E5D6C" font-family="Verdana" font-size="11.4583" lengthAdjust="spacing" textLength="81.25" x="1328.125" y="659.5942">FeatureModel</text><line style="stroke:#4E5D6C;stroke-width:1.0416666666666667;" x1="1297.9167" x2="1416.6667" y1="672.7132" y2="672.7132"/><ellipse cx="1308.3333" cy="690.3198" fill="none" rx="3.125" ry="3.125" style="stroke:#4E5D6C;stroke-width:1.0416666666666667;"/><text fill="#4E5D6C" font-family="Verdana" font-size="11.4583" lengthAdjust="spacing" textLength="64.5833" x="1320.8333" y="692.7241">double ask</text><ellipse cx="1308.3333" cy="714.0747" fill="none" rx="3.125" ry="3.125" style="stroke:#4E5D6C;stroke-width:1.0416666666666667;"/><text fill="#4E5D6C" font-family="Verdana" font-size="11.4583" lengthAdjust="spacing" textLength="62.5" x="1320.8333" y="716.479">double bid</text><ellipse cx="1308.3333" cy="737.8296" fill="none" rx="3.125" ry="3.125" style="stroke:#4E5D6C;stroke-width:1.0416666666666667;"/><text fill="#4E5D6C" font-family="Verdana" font-size="11.4583" lengthAdjust="spacing" textLength="55.2083" x="1320.8333" y="740.2339">int epoch</text><ellipse cx="1308.3333" cy="761.5845" fill="none" rx="3.125" ry="3.125" style="stroke:#4E5D6C;stroke-width:1.0416666666666667;"/><text fill="#4E5D6C" font-family="Verdana" font-size="11.4583" lengthAdjust="spacing" textLength="48.9583" x="1320.8333" y="763.9887">String id</text><ellipse cx="1308.3333" cy="785.3394" fill="none" rx="3.125" ry="3.125" style="stroke:#4E5D6C;stroke-width:1.0416666666666667;"/><text fill="#4E5D6C" font-family="Verdana" font-size="11.4583" lengthAdjust="spacing" textLength="63.5417" x="1320.8333" y="787.7436">int pipSize</text><ellipse cx="1308.3333" cy="809.0942" fill="none" rx="3.125" ry="3.125" style="stroke:#4E5D6C;stroke-width:1.0416666666666667;"/><text fill="#4E5D6C" font-family="Verdana" font-size="11.4583" lengthAdjust="spacing" textLength="79.1667" x="1320.8333" y="811.4985">double quote</text><ellipse cx="1308.3333" cy="832.8491" fill="none" rx="3.125" ry="3.125" style="stroke:#4E5D6C;stroke-width:1.0416666666666667;"/><text fill="#4E5D6C" font-family="Verdana" font-size="11.4583" lengthAdjust="spacing" textLength="81.25" x="1320.8333" y="835.2534">String symbol</text><line style="stroke:#4E5D6C;stroke-width:1.0416666666666667;" x1="1297.9167" x2="1416.6667" y1="847.3307" y2="847.3307"/></g><!--class FeatureDataSource--><g id="elem_FeatureDataSource"><rect codeLine="60" fill="#FFFFFF" height="74.5931" id="FeatureDataSource" rx="4.1667" ry="4.1667" style="stroke:#4E5D6C;stroke-width:1.0416666666666667;" width="278.125" x="981.7708" y="709.375"/><ellipse cx="1053.9063" cy="726.4608" fill="#FFFFFF" rx="9.375" ry="9.375" style="stroke:#4E5D6C;stroke-width:1.0416666666666667;"/><path d="M1055.8431,723.0754 C1055.1595,722.7498 1054.7201,722.6522 1054.069,722.6522 C1052.1484,722.6522 1050.6673,724.1659 1050.6673,726.1678 L1050.6673,726.9979 C1050.6673,728.9022 1052.2298,730.2856 1054.3457,730.2856 C1055.2409,730.2856 1056.1035,730.0578 1056.6406,729.6509 C1057.0801,729.3579 1057.3079,729.0324 1057.3079,728.7394 C1057.3079,728.4139 1057.015,728.1209 1056.6895,728.1209 C1056.5267,728.1209 1056.3802,728.186 1056.2337,728.3162 C1055.8919,728.6743 1055.8919,728.6743 1055.7617,728.7394 C1055.4525,728.9347 1054.9479,729.0324 1054.3783,729.0324 C1052.8809,729.0324 1051.9206,728.2186 1051.9206,726.9653 L1051.9206,726.1678 C1051.9206,724.8494 1052.8483,723.8892 1054.1178,723.8892 C1054.541,723.8892 1054.9967,724.0031 1055.3385,724.1984 C1055.6966,724.3937 1055.8268,724.5565 1055.8919,724.8494 C1055.9408,725.1587 1055.957,725.2401 1056.0547,725.3377 C1056.1523,725.4517 1056.3314,725.5168 1056.4941,725.5168 C1056.7057,725.5168 1056.8848,725.4191 1057.015,725.2563 C1057.0964,725.1424 1057.1289,725.0122 1057.1289,724.6867 L1057.1289,723.645 C1057.1289,723.3358 1057.1126,723.2381 1057.0313,723.1242 C1056.9173,722.9289 1056.722,722.8149 1056.4941,722.8149 C1056.2826,722.8149 1056.1361,722.8963 1055.9733,723.1242 L1055.8431,723.0754 Z " fill="#4E5D6C"/><text fill="#4E5D6C" font-family="Verdana" font-size="11.4583" lengthAdjust="spacing" textLength="115.625" x="1077.3438" y="730.4276">FeatureDataSource</text><line style="stroke:#4E5D6C;stroke-width:1.0416666666666667;" x1="982.8125" x2="1258.8542" y1="743.5465" y2="743.5465"/><line style="stroke:#4E5D6C;stroke-width:1.0416666666666667;" x1="982.8125" x2="1258.8542" y1="751.8799" y2="751.8799"/><ellipse cx="993.2292" cy="769.4865" fill="#FFFFFF" rx="3.125" ry="3.125" style="stroke:#4E5D6C;stroke-width:1.0416666666666667;"/><text fill="#4E5D6C" font-family="Verdana" font-size="11.4583" lengthAdjust="spacing" textLength="242.7083" x="1005.7292" y="771.8908">Stream&lt;FeatureModel&gt; doSomeAction()</text></g><!--class FeatureMapper--><g id="elem_FeatureMapper"><rect codeLine="74" fill="#FFFFFF" height="98.348" id="FeatureMapper" rx="4.1667" ry="4.1667" style="stroke:#4E5D6C;stroke-width:1.0416666666666667;" width="176.0417" x="2104.6875" y="917.7083"/><ellipse cx="2139.3229" cy="934.7941" fill="#FFFFFF" rx="9.375" ry="9.375" style="stroke:#4E5D6C;stroke-width:1.0416666666666667;"/><path d="M2141.2598,931.4087 C2140.5762,931.0832 2140.1367,930.9855 2139.4857,930.9855 C2137.5651,930.9855 2136.084,932.4992 2136.084,934.5011 L2136.084,935.3312 C2136.084,937.2355 2137.6465,938.619 2139.7624,938.619 C2140.6576,938.619 2141.5202,938.3911 2142.0573,937.9842 C2142.4967,937.6912 2142.7246,937.3657 2142.7246,937.0728 C2142.7246,936.7472 2142.4316,936.4543 2142.1061,936.4543 C2141.9434,936.4543 2141.7969,936.5194 2141.6504,936.6496 C2141.3086,937.0076 2141.3086,937.0076 2141.1784,937.0728 C2140.8691,937.2681 2140.3646,937.3657 2139.7949,937.3657 C2138.2975,937.3657 2137.3372,936.5519 2137.3372,935.2987 L2137.3372,934.5011 C2137.3372,933.1828 2138.265,932.2225 2139.5345,932.2225 C2139.9577,932.2225 2140.4134,932.3364 2140.7552,932.5317 C2141.1133,932.7271 2141.2435,932.8898 2141.3086,933.1828 C2141.3574,933.492 2141.3737,933.5734 2141.4714,933.6711 C2141.569,933.785 2141.748,933.8501 2141.9108,933.8501 C2142.1224,933.8501 2142.3014,933.7524 2142.4316,933.5897 C2142.513,933.4757 2142.5456,933.3455 2142.5456,933.02 L2142.5456,931.9784 C2142.5456,931.6691 2142.5293,931.5715 2142.4479,931.4575 C2142.334,931.2622 2142.1387,931.1483 2141.9108,931.1483 C2141.6992,931.1483 2141.5527,931.2297 2141.39,931.4575 L2141.2598,931.4087 Z " fill="#4E5D6C"/><text fill="#4E5D6C" font-family="Verdana" font-size="11.4583" lengthAdjust="spacing" textLength="89.5833" x="2161.7188" y="938.7609">FeatureMapper</text><line style="stroke:#4E5D6C;stroke-width:1.0416666666666667;" x1="2105.7292" x2="2279.6875" y1="951.8799" y2="951.8799"/><line style="stroke:#4E5D6C;stroke-width:1.0416666666666667;" x1="2105.7292" x2="2279.6875" y1="960.2132" y2="960.2132"/><ellipse cx="2116.1458" cy="977.8198" fill="#FFFFFF" rx="3.125" ry="3.125" style="stroke:#4E5D6C;stroke-width:1.0416666666666667;"/><text fill="#4E5D6C" font-family="Verdana" font-size="11.4583" lengthAdjust="spacing" textLength="140.625" x="2128.6458" y="980.2241">FeatureModel toModel()</text><ellipse cx="2116.1458" cy="1001.5747" fill="#FFFFFF" rx="3.125" ry="3.125" style="stroke:#4E5D6C;stroke-width:1.0416666666666667;"/><text fill="#4E5D6C" font-family="Verdana" font-size="11.4583" lengthAdjust="spacing" textLength="136.4583" x="2128.6458" y="1003.979">FeatureEntity toEntity()</text></g><!--class BaseFeatureDataSource--><g id="elem_BaseFeatureDataSource"><rect codeLine="81" fill="#FFFFFF" height="74.5931" id="BaseFeatureDataSource" rx="4.1667" ry="4.1667" style="stroke:#4E5D6C;stroke-width:1.0416666666666667;" width="278.125" x="1790.1042" y="929.1667"/><ellipse cx="1849.2188" cy="946.2524" fill="#FFFFFF" rx="9.375" ry="9.375" style="stroke:#4E5D6C;stroke-width:1.0416666666666667;"/><path d="M1850.765,947.408 L1851.0579,948.1242 L1850.765,948.1242 C1850.4557,948.1242 1850.3581,948.1405 1850.2441,948.2218 C1850.0651,948.3195 1849.9512,948.5474 1849.9512,948.759 C1849.9512,948.9543 1850.0488,949.1333 1850.2116,949.2472 C1850.3255,949.3449 1850.472,949.3774 1850.765,949.3774 L1852.5065,949.3774 C1852.7669,949.3774 1852.9297,949.3449 1853.0273,949.2961 C1853.2227,949.1821 1853.3366,948.9705 1853.3366,948.759 C1853.3366,948.5474 1853.2389,948.3683 1853.0762,948.2544 C1852.946,948.1567 1852.832,948.1242 1852.4902,948.1242 L1850,942.0858 L1847.2982,942.0858 C1846.9564,942.0858 1846.875,942.1021 1846.7611,942.1834 C1846.5658,942.2974 1846.4681,942.509 1846.4681,942.7205 C1846.4681,942.9159 1846.5658,943.0949 1846.7285,943.2251 C1846.8424,943.3228 1846.9727,943.339 1847.2982,943.339 L1848.0794,943.339 L1846.1426,948.1242 C1845.8333,948.1242 1845.7194,948.1405 1845.6055,948.2218 C1845.4264,948.3195 1845.3125,948.5474 1845.3125,948.759 C1845.3125,949.1659 1845.5892,949.3774 1846.1426,949.3774 L1847.8027,949.3774 C1848.0632,949.3774 1848.2259,949.3449 1848.3236,949.2961 C1848.5026,949.1821 1848.6165,948.9705 1848.6165,948.759 C1848.6165,948.5474 1848.5189,948.3683 1848.3561,948.2381 C1848.2422,948.1567 1848.1283,948.1242 1847.8027,948.1242 L1847.5098,948.1242 L1847.8027,947.408 L1850.765,947.408 Z M1850.2604,946.1548 L1848.291,946.1548 L1849.2839,943.7459 L1850.2604,946.1548 Z " fill="#4E5D6C"/><text fill="#4E5D6C" font-family="Verdana" font-size="11.4583" font-style="italic" lengthAdjust="spacing" textLength="141.6667" x="1872.6563" y="950.2192">BaseFeatureDataSource</text><line style="stroke:#4E5D6C;stroke-width:1.0416666666666667;" x1="1791.1458" x2="2067.1875" y1="963.3382" y2="963.3382"/><line style="stroke:#4E5D6C;stroke-width:1.0416666666666667;" x1="1791.1458" x2="2067.1875" y1="971.6715" y2="971.6715"/><ellipse cx="1801.5625" cy="989.2782" fill="#FFFFFF" rx="3.125" ry="3.125" style="stroke:#4E5D6C;stroke-width:1.0416666666666667;"/><text fill="#4E5D6C" font-family="Verdana" font-size="11.4583" lengthAdjust="spacing" textLength="242.7083" x="1814.0625" y="991.6824">Stream&lt;FeatureModel&gt; doSomeAction()</text></g><!--class BaseFeatureRepository--><g id="elem_BaseFeatureRepository"><rect codeLine="87" fill="#FFFFFF" height="122.1029" id="BaseFeatureRepository" rx="4.1667" ry="4.1667" style="stroke:#4E5D6C;stroke-width:1.0416666666666667;" width="276.0417" x="1791.1458" y="685.9375"/><ellipse cx="1851.3021" cy="703.0233" fill="#FFFFFF" rx="9.375" ry="9.375" style="stroke:#4E5D6C;stroke-width:1.0416666666666667;"/><path d="M1852.8483,704.1789 L1853.1413,704.895 L1852.8483,704.895 C1852.5391,704.895 1852.4414,704.9113 1852.3275,704.9927 C1852.1484,705.0903 1852.0345,705.3182 1852.0345,705.5298 C1852.0345,705.7251 1852.1322,705.9041 1852.2949,706.0181 C1852.4089,706.1157 1852.5553,706.1483 1852.8483,706.1483 L1854.5898,706.1483 C1854.8503,706.1483 1855.013,706.1157 1855.1107,706.0669 C1855.306,705.953 1855.4199,705.7414 1855.4199,705.5298 C1855.4199,705.3182 1855.3223,705.1392 1855.1595,705.0252 C1855.0293,704.9276 1854.9154,704.895 1854.5736,704.895 L1852.0833,698.8566 L1849.3815,698.8566 C1849.0397,698.8566 1848.9583,698.8729 1848.8444,698.9543 C1848.6491,699.0682 1848.5514,699.2798 1848.5514,699.4914 C1848.5514,699.6867 1848.6491,699.8657 1848.8118,699.9959 C1848.9258,700.0936 1849.056,700.1099 1849.3815,700.1099 L1850.1628,700.1099 L1848.2259,704.895 C1847.9167,704.895 1847.8027,704.9113 1847.6888,704.9927 C1847.5098,705.0903 1847.3958,705.3182 1847.3958,705.5298 C1847.3958,705.9367 1847.6725,706.1483 1848.2259,706.1483 L1849.8861,706.1483 C1850.1465,706.1483 1850.3092,706.1157 1850.4069,706.0669 C1850.5859,705.953 1850.6999,705.7414 1850.6999,705.5298 C1850.6999,705.3182 1850.6022,705.1392 1850.4395,705.009 C1850.3255,704.9276 1850.2116,704.895 1849.8861,704.895 L1849.5931,704.895 L1849.8861,704.1789 L1852.8483,704.1789 Z M1852.3438,702.9256 L1850.3743,702.9256 L1851.3672,700.5168 L1852.3438,702.9256 Z " fill="#4E5D6C"/><text fill="#4E5D6C" font-family="Verdana" font-size="11.4583" font-style="italic" lengthAdjust="spacing" textLength="137.5" x="1874.7396" y="706.9901">BaseFeatureRepository</text><line style="stroke:#4E5D6C;stroke-width:1.0416666666666667;" x1="1792.1875" x2="2066.1458" y1="720.109" y2="720.109"/><ellipse cx="1802.6042" cy="737.7157" fill="none" rx="3.125" ry="3.125" style="stroke:#4E5D6C;stroke-width:1.0416666666666667;"/><text fill="#4E5D6C" font-family="Verdana" font-size="11.4583" lengthAdjust="spacing" textLength="139.5833" x="1815.1042" y="740.1199">FeatureMapper mapper</text><ellipse cx="1802.6042" cy="761.4705" fill="none" rx="3.125" ry="3.125" style="stroke:#4E5D6C;stroke-width:1.0416666666666667;"/><text fill="#4E5D6C" font-family="Verdana" font-size="11.4583" lengthAdjust="spacing" textLength="217.7083" x="1815.1042" y="763.8748">BaseFeatureDataSource dataSource</text><line style="stroke:#4E5D6C;stroke-width:1.0416666666666667;" x1="1792.1875" x2="2066.1458" y1="775.9521" y2="775.9521"/><ellipse cx="1802.6042" cy="793.5588" fill="#FFFFFF" rx="3.125" ry="3.125" style="stroke:#4E5D6C;stroke-width:1.0416666666666667;"/><text fill="#4E5D6C" font-family="Verdana" font-size="11.4583" lengthAdjust="spacing" textLength="240.625" x="1815.1042" y="795.963">Stream&lt;FeatureEntity&gt; doSomeAction()</text></g><!--class BaseFeatureService--><g id="elem_BaseFeatureService"><rect codeLine="66" fill="#FFFFFF" height="98.348" id="BaseFeatureService" rx="4.1667" ry="4.1667" style="stroke:#4E5D6C;stroke-width:1.0416666666666667;" width="276.0417" x="1897.3958" y="466.6667"/><ellipse cx="1967.4479" cy="483.7524" fill="#FFFFFF" rx="9.375" ry="9.375" style="stroke:#4E5D6C;stroke-width:1.0416666666666667;"/><path d="M1968.9941,484.908 L1969.2871,485.6242 L1968.9941,485.6242 C1968.6849,485.6242 1968.5872,485.6405 1968.4733,485.7218 C1968.2943,485.8195 1968.1803,486.0474 1968.1803,486.259 C1968.1803,486.4543 1968.278,486.6333 1968.4408,486.7472 C1968.5547,486.8449 1968.7012,486.8774 1968.9941,486.8774 L1970.7357,486.8774 C1970.9961,486.8774 1971.1589,486.8449 1971.2565,486.7961 C1971.4518,486.6821 1971.5658,486.4705 1971.5658,486.259 C1971.5658,486.0474 1971.4681,485.8683 1971.3053,485.7544 C1971.1751,485.6567 1971.0612,485.6242 1970.7194,485.6242 L1968.2292,479.5858 L1965.5273,479.5858 C1965.1855,479.5858 1965.1042,479.6021 1964.9902,479.6834 C1964.7949,479.7974 1964.6973,480.009 1964.6973,480.2205 C1964.6973,480.4159 1964.7949,480.5949 1964.9577,480.7251 C1965.0716,480.8228 1965.2018,480.839 1965.5273,480.839 L1966.3086,480.839 L1964.3717,485.6242 C1964.0625,485.6242 1963.9486,485.6405 1963.8346,485.7218 C1963.6556,485.8195 1963.5417,486.0474 1963.5417,486.259 C1963.5417,486.6659 1963.8184,486.8774 1964.3717,486.8774 L1966.0319,486.8774 C1966.2923,486.8774 1966.4551,486.8449 1966.5527,486.7961 C1966.7318,486.6821 1966.8457,486.4705 1966.8457,486.259 C1966.8457,486.0474 1966.748,485.8683 1966.5853,485.7381 C1966.4714,485.6567 1966.3574,485.6242 1966.0319,485.6242 L1965.7389,485.6242 L1966.0319,484.908 L1968.9941,484.908 Z M1968.4896,483.6548 L1966.5202,483.6548 L1967.513,481.2459 L1968.4896,483.6548 Z " fill="#4E5D6C"/><text fill="#4E5D6C" font-family="Verdana" font-size="11.4583" font-style="italic" lengthAdjust="spacing" textLength="117.7083" x="1990.8854" y="487.7192">BaseFeatureService</text><line style="stroke:#4E5D6C;stroke-width:1.0416666666666667;" x1="1898.4375" x2="2172.3958" y1="500.8382" y2="500.8382"/><ellipse cx="1908.8542" cy="518.4448" fill="none" rx="3.125" ry="3.125" style="stroke:#4E5D6C;stroke-width:1.0416666666666667;"/><text fill="#4E5D6C" font-family="Verdana" font-size="11.4583" lengthAdjust="spacing" textLength="202.0833" x="1921.3542" y="520.8491">BaseFeatureRepository repository</text><line style="stroke:#4E5D6C;stroke-width:1.0416666666666667;" x1="1898.4375" x2="2172.3958" y1="532.9264" y2="532.9264"/><ellipse cx="1908.8542" cy="550.533" fill="#FFFFFF" rx="3.125" ry="3.125" style="stroke:#4E5D6C;stroke-width:1.0416666666666667;"/><text fill="#4E5D6C" font-family="Verdana" font-size="11.4583" lengthAdjust="spacing" textLength="240.625" x="1921.3542" y="552.9373">Stream&lt;FeatureEntity&gt; doSomeAction()</text></g><!--class FeatureService--><g id="elem_FeatureService"><rect codeLine="97" fill="#FFFFFF" height="74.5931" id="FeatureService" rx="4.1667" ry="4.1667" style="stroke:#4E5D6C;stroke-width:1.0416666666666667;" width="276.0417" x="2340.1042" y="107.2917"/><ellipse cx="2423.1771" cy="124.3774" fill="#FFFFFF" rx="9.375" ry="9.375" style="stroke:#4E5D6C;stroke-width:1.0416666666666667;"/><path d="M2425.1139,120.992 C2424.4303,120.6665 2423.9909,120.5688 2423.3398,120.5688 C2421.4193,120.5688 2419.9382,122.0825 2419.9382,124.0845 L2419.9382,124.9146 C2419.9382,126.8188 2421.5007,128.2023 2423.6165,128.2023 C2424.5117,128.2023 2425.3743,127.9744 2425.9115,127.5675 C2426.3509,127.2746 2426.5788,126.9491 2426.5788,126.6561 C2426.5788,126.3306 2426.2858,126.0376 2425.9603,126.0376 C2425.7975,126.0376 2425.651,126.1027 2425.5046,126.2329 C2425.1628,126.591 2425.1628,126.591 2425.0326,126.6561 C2424.7233,126.8514 2424.2188,126.9491 2423.6491,126.9491 C2422.1517,126.9491 2421.1914,126.1353 2421.1914,124.882 L2421.1914,124.0845 C2421.1914,122.7661 2422.1191,121.8058 2423.3887,121.8058 C2423.8118,121.8058 2424.2676,121.9198 2424.6094,122.1151 C2424.9674,122.3104 2425.0977,122.4731 2425.1628,122.7661 C2425.2116,123.0754 2425.2279,123.1567 2425.3255,123.2544 C2425.4232,123.3683 2425.6022,123.4334 2425.765,123.4334 C2425.9766,123.4334 2426.1556,123.3358 2426.2858,123.173 C2426.3672,123.0591 2426.3997,122.9289 2426.3997,122.6034 L2426.3997,121.5617 C2426.3997,121.2524 2426.3835,121.1548 2426.3021,121.0409 C2426.1882,120.8455 2425.9928,120.7316 2425.765,120.7316 C2425.5534,120.7316 2425.4069,120.813 2425.2441,121.0409 L2425.1139,120.992 Z " fill="#4E5D6C"/><text fill="#4E5D6C" font-family="Verdana" font-size="11.4583" lengthAdjust="spacing" textLength="91.6667" x="2446.6146" y="128.3442">FeatureService</text><line style="stroke:#4E5D6C;stroke-width:1.0416666666666667;" x1="2341.1458" x2="2615.1042" y1="141.4632" y2="141.4632"/><line style="stroke:#4E5D6C;stroke-width:1.0416666666666667;" x1="2341.1458" x2="2615.1042" y1="149.7965" y2="149.7965"/><ellipse cx="2351.5625" cy="167.4032" fill="#FFFFFF" rx="3.125" ry="3.125" style="stroke:#4E5D6C;stroke-width:1.0416666666666667;"/><text fill="#4E5D6C" font-family="Verdana" font-size="11.4583" lengthAdjust="spacing" textLength="240.625" x="2364.0625" y="169.8074">Stream&lt;FeatureEntity&gt; doSomeAction()</text></g><!--class FeatureWidget--><g id="elem_FeatureWidget"><rect codeLine="103" fill="#FFFFFF" height="74.5931" id="FeatureWidget" rx="4.1667" ry="4.1667" style="stroke:#4E5D6C;stroke-width:1.0416666666666667;" width="153.125" x="2722.3958" y="306.25"/><ellipse cx="2747.6563" cy="323.3358" fill="#FFFFFF" rx="9.375" ry="9.375" style="stroke:#4E5D6C;stroke-width:1.0416666666666667;"/><path d="M2749.5931,319.9504 C2748.9095,319.6248 2748.4701,319.5272 2747.819,319.5272 C2745.8984,319.5272 2744.4173,321.0409 2744.4173,323.0428 L2744.4173,323.8729 C2744.4173,325.7772 2745.9798,327.1606 2748.0957,327.1606 C2748.9909,327.1606 2749.8535,326.9328 2750.3906,326.5259 C2750.8301,326.2329 2751.0579,325.9074 2751.0579,325.6144 C2751.0579,325.2889 2750.765,324.9959 2750.4395,324.9959 C2750.2767,324.9959 2750.1302,325.061 2749.9837,325.1912 C2749.6419,325.5493 2749.6419,325.5493 2749.5117,325.6144 C2749.2025,325.8097 2748.6979,325.9074 2748.1283,325.9074 C2746.6309,325.9074 2745.6706,325.0936 2745.6706,323.8403 L2745.6706,323.0428 C2745.6706,321.7244 2746.5983,320.7642 2747.8678,320.7642 C2748.291,320.7642 2748.7467,320.8781 2749.0885,321.0734 C2749.4466,321.2687 2749.5768,321.4315 2749.6419,321.7244 C2749.6908,322.0337 2749.707,322.1151 2749.8047,322.2127 C2749.9023,322.3267 2750.0814,322.3918 2750.2441,322.3918 C2750.4557,322.3918 2750.6348,322.2941 2750.765,322.1313 C2750.8464,322.0174 2750.8789,321.8872 2750.8789,321.5617 L2750.8789,320.52 C2750.8789,320.2108 2750.8626,320.1131 2750.7813,319.9992 C2750.6673,319.8039 2750.472,319.6899 2750.2441,319.6899 C2750.0326,319.6899 2749.8861,319.7713 2749.7233,319.9992 L2749.5931,319.9504 Z " fill="#4E5D6C"/><text fill="#4E5D6C" font-family="Verdana" font-size="11.4583" lengthAdjust="spacing" textLength="87.5" x="2767.9688" y="327.3026">FeatureWidget</text><line style="stroke:#4E5D6C;stroke-width:1.0416666666666667;" x1="2723.4375" x2="2874.4792" y1="340.4215" y2="340.4215"/><ellipse cx="2733.8542" cy="358.0282" fill="none" rx="3.125" ry="3.125" style="stroke:#4E5D6C;stroke-width:1.0416666666666667;"/><text fill="#4E5D6C" font-family="Verdana" font-size="11.4583" lengthAdjust="spacing" textLength="117.7083" x="2746.3542" y="360.4324">FeatureEntity entity</text><line style="stroke:#4E5D6C;stroke-width:1.0416666666666667;" x1="2723.4375" x2="2874.4792" y1="372.5098" y2="372.5098"/></g><!--class FeatureEntity--><g id="elem_FeatureEntity"><rect codeLine="116" fill="#FFFFFF" height="217.1224" id="FeatureEntity" rx="4.1667" ry="4.1667" style="stroke:#4E5D6C;stroke-width:1.0416666666666667;" width="118.75" x="2571.875" y="638.5417"/><ellipse cx="2585.4167" cy="655.6274" fill="#FFFFFF" rx="9.375" ry="9.375" style="stroke:#4E5D6C;stroke-width:1.0416666666666667;"/><path d="M2587.3535,652.242 C2586.6699,651.9165 2586.2305,651.8188 2585.5794,651.8188 C2583.6589,651.8188 2582.1777,653.3325 2582.1777,655.3345 L2582.1777,656.1646 C2582.1777,658.0688 2583.7402,659.4523 2585.8561,659.4523 C2586.7513,659.4523 2587.6139,659.2244 2588.151,658.8175 C2588.5905,658.5246 2588.8184,658.1991 2588.8184,657.9061 C2588.8184,657.5806 2588.5254,657.2876 2588.1999,657.2876 C2588.0371,657.2876 2587.8906,657.3527 2587.7441,657.4829 C2587.4023,657.841 2587.4023,657.841 2587.2721,657.9061 C2586.9629,658.1014 2586.4583,658.1991 2585.8887,658.1991 C2584.3913,658.1991 2583.431,657.3853 2583.431,656.132 L2583.431,655.3345 C2583.431,654.0161 2584.3587,653.0558 2585.6283,653.0558 C2586.0514,653.0558 2586.5072,653.1698 2586.849,653.3651 C2587.207,653.5604 2587.3372,653.7231 2587.4023,654.0161 C2587.4512,654.3254 2587.4674,654.4067 2587.5651,654.5044 C2587.6628,654.6183 2587.8418,654.6834 2588.0046,654.6834 C2588.2161,654.6834 2588.3952,654.5858 2588.5254,654.423 C2588.6068,654.3091 2588.6393,654.1789 2588.6393,653.8534 L2588.6393,652.8117 C2588.6393,652.5024 2588.623,652.4048 2588.5417,652.2909 C2588.4277,652.0955 2588.2324,651.9816 2588.0046,651.9816 C2587.793,651.9816 2587.6465,652.063 2587.4837,652.2909 L2587.3535,652.242 Z " fill="#4E5D6C"/><text fill="#4E5D6C" font-family="Verdana" font-size="11.4583" lengthAdjust="spacing" textLength="79.1667" x="2603.125" y="659.5942">FeatureEntity</text><line style="stroke:#4E5D6C;stroke-width:1.0416666666666667;" x1="2572.9167" x2="2689.5833" y1="672.7132" y2="672.7132"/><ellipse cx="2583.3333" cy="690.3198" fill="none" rx="3.125" ry="3.125" style="stroke:#4E5D6C;stroke-width:1.0416666666666667;"/><text fill="#4E5D6C" font-family="Verdana" font-size="11.4583" lengthAdjust="spacing" textLength="64.5833" x="2595.8333" y="692.7241">double ask</text><ellipse cx="2583.3333" cy="714.0747" fill="none" rx="3.125" ry="3.125" style="stroke:#4E5D6C;stroke-width:1.0416666666666667;"/><text fill="#4E5D6C" font-family="Verdana" font-size="11.4583" lengthAdjust="spacing" textLength="62.5" x="2595.8333" y="716.479">double bid</text><ellipse cx="2583.3333" cy="737.8296" fill="none" rx="3.125" ry="3.125" style="stroke:#4E5D6C;stroke-width:1.0416666666666667;"/><text fill="#4E5D6C" font-family="Verdana" font-size="11.4583" lengthAdjust="spacing" textLength="55.2083" x="2595.8333" y="740.2339">int epoch</text><ellipse cx="2583.3333" cy="761.5845" fill="none" rx="3.125" ry="3.125" style="stroke:#4E5D6C;stroke-width:1.0416666666666667;"/><text fill="#4E5D6C" font-family="Verdana" font-size="11.4583" lengthAdjust="spacing" textLength="48.9583" x="2595.8333" y="763.9887">String id</text><ellipse cx="2583.3333" cy="785.3394" fill="none" rx="3.125" ry="3.125" style="stroke:#4E5D6C;stroke-width:1.0416666666666667;"/><text fill="#4E5D6C" font-family="Verdana" font-size="11.4583" lengthAdjust="spacing" textLength="63.5417" x="2595.8333" y="787.7436">int pipSize</text><ellipse cx="2583.3333" cy="809.0942" fill="none" rx="3.125" ry="3.125" style="stroke:#4E5D6C;stroke-width:1.0416666666666667;"/><text fill="#4E5D6C" font-family="Verdana" font-size="11.4583" lengthAdjust="spacing" textLength="79.1667" x="2595.8333" y="811.4985">double quote</text><ellipse cx="2583.3333" cy="832.8491" fill="none" rx="3.125" ry="3.125" style="stroke:#4E5D6C;stroke-width:1.0416666666666667;"/><text fill="#4E5D6C" font-family="Verdana" font-size="11.4583" lengthAdjust="spacing" textLength="81.25" x="2595.8333" y="835.2534">String symbol</text><line style="stroke:#4E5D6C;stroke-width:1.0416666666666667;" x1="2572.9167" x2="2689.5833" y1="847.3307" y2="847.3307"/></g><!--class FeaturePage--><g id="elem_FeaturePage"><rect codeLine="138" fill="#FFFFFF" height="50.8382" id="FeaturePage" rx="4.1667" ry="4.1667" style="stroke:#4E5D6C;stroke-width:1.0416666666666667;" width="114.5833" x="2696.875" y="119.2708"/><ellipse cx="2710.4167" cy="136.3566" fill="#FFFFFF" rx="9.375" ry="9.375" style="stroke:#4E5D6C;stroke-width:1.0416666666666667;"/><path d="M2712.3535,132.9712 C2711.6699,132.6457 2711.2305,132.548 2710.5794,132.548 C2708.6589,132.548 2707.1777,134.0617 2707.1777,136.0636 L2707.1777,136.8937 C2707.1777,138.798 2708.7402,140.1815 2710.8561,140.1815 C2711.7513,140.1815 2712.6139,139.9536 2713.151,139.5467 C2713.5905,139.2537 2713.8184,138.9282 2713.8184,138.6353 C2713.8184,138.3097 2713.5254,138.0168 2713.1999,138.0168 C2713.0371,138.0168 2712.8906,138.0819 2712.7441,138.2121 C2712.4023,138.5701 2712.4023,138.5701 2712.2721,138.6353 C2711.9629,138.8306 2711.4583,138.9282 2710.8887,138.9282 C2709.3913,138.9282 2708.431,138.1144 2708.431,136.8612 L2708.431,136.0636 C2708.431,134.7453 2709.3587,133.785 2710.6283,133.785 C2711.0514,133.785 2711.5072,133.8989 2711.849,134.0942 C2712.207,134.2896 2712.3372,134.4523 2712.4023,134.7453 C2712.4512,135.0545 2712.4674,135.1359 2712.5651,135.2336 C2712.6628,135.3475 2712.8418,135.4126 2713.0046,135.4126 C2713.2161,135.4126 2713.3952,135.3149 2713.5254,135.1522 C2713.6068,135.0382 2713.6393,134.908 2713.6393,134.5825 L2713.6393,133.5409 C2713.6393,133.2316 2713.623,133.134 2713.5417,133.02 C2713.4277,132.8247 2713.2324,132.7108 2713.0046,132.7108 C2712.793,132.7108 2712.6465,132.7922 2712.4837,133.02 L2712.3535,132.9712 Z " fill="#4E5D6C"/><text fill="#4E5D6C" font-family="Verdana" font-size="11.4583" lengthAdjust="spacing" textLength="75" x="2728.125" y="140.3234">FeaturePage</text><line style="stroke:#4E5D6C;stroke-width:1.0416666666666667;" x1="2697.9167" x2="2810.4167" y1="153.4424" y2="153.4424"/><line style="stroke:#4E5D6C;stroke-width:1.0416666666666667;" x1="2697.9167" x2="2810.4167" y1="161.7757" y2="161.7757"/></g><!--class FeatureCubitExtended--><g id="elem_FeatureCubitExtended"><rect codeLine="109" fill="#FFFFFF" height="74.5931" id="FeatureCubitExtended" rx="4.1667" ry="4.1667" style="stroke:#4E5D6C;stroke-width:1.0416666666666667;" width="172.9167" x="2364.5833" y="478.125"/><ellipse cx="2378.125" cy="495.2108" fill="#FFFFFF" rx="9.375" ry="9.375" style="stroke:#4E5D6C;stroke-width:1.0416666666666667;"/><path d="M2380.0618,491.8254 C2379.3783,491.4998 2378.9388,491.4022 2378.2878,491.4022 C2376.3672,491.4022 2374.8861,492.9159 2374.8861,494.9178 L2374.8861,495.7479 C2374.8861,497.6522 2376.4486,499.0356 2378.5645,499.0356 C2379.4596,499.0356 2380.3223,498.8078 2380.8594,498.4009 C2381.2988,498.1079 2381.5267,497.7824 2381.5267,497.4894 C2381.5267,497.1639 2381.2337,496.8709 2380.9082,496.8709 C2380.7454,496.8709 2380.599,496.936 2380.4525,497.0662 C2380.1107,497.4243 2380.1107,497.4243 2379.9805,497.4894 C2379.6712,497.6847 2379.1667,497.7824 2378.597,497.7824 C2377.0996,497.7824 2376.1393,496.9686 2376.1393,495.7153 L2376.1393,494.9178 C2376.1393,493.5994 2377.0671,492.6392 2378.3366,492.6392 C2378.7598,492.6392 2379.2155,492.7531 2379.5573,492.9484 C2379.9154,493.1437 2380.0456,493.3065 2380.1107,493.5994 C2380.1595,493.9087 2380.1758,493.9901 2380.2734,494.0877 C2380.3711,494.2017 2380.5501,494.2668 2380.7129,494.2668 C2380.9245,494.2668 2381.1035,494.1691 2381.2337,494.0063 C2381.3151,493.8924 2381.3477,493.7622 2381.3477,493.4367 L2381.3477,492.395 C2381.3477,492.0858 2381.3314,491.9881 2381.25,491.8742 C2381.1361,491.6789 2380.9408,491.5649 2380.7129,491.5649 C2380.5013,491.5649 2380.3548,491.6463 2380.1921,491.8742 L2380.0618,491.8254 Z " fill="#4E5D6C"/><text fill="#4E5D6C" font-family="Verdana" font-size="11.4583" lengthAdjust="spacing" textLength="133.3333" x="2395.8333" y="499.1776">FeatureCubitExtended</text><line style="stroke:#4E5D6C;stroke-width:1.0416666666666667;" x1="2365.625" x2="2536.4583" y1="512.2965" y2="512.2965"/><line style="stroke:#4E5D6C;stroke-width:1.0416666666666667;" x1="2365.625" x2="2536.4583" y1="520.6299" y2="520.6299"/><ellipse cx="2376.0417" cy="538.2365" fill="#FFFFFF" rx="3.125" ry="3.125" style="stroke:#4E5D6C;stroke-width:1.0416666666666667;"/><text fill="#4E5D6C" font-family="Verdana" font-size="11.4583" lengthAdjust="spacing" textLength="105.2083" x="2388.5417" y="540.6408">void onChanged()</text></g><!--class FeatureCubit--><g id="elem_FeatureCubit"><rect codeLine="128" fill="#FFFFFF" height="98.348" id="FeatureCubit" rx="4.1667" ry="4.1667" style="stroke:#4E5D6C;stroke-width:1.0416666666666667;" width="205.2083" x="2422.3958" y="294.7917"/><ellipse cx="2477.8646" cy="311.8774" fill="#FFFFFF" rx="9.375" ry="9.375" style="stroke:#4E5D6C;stroke-width:1.0416666666666667;"/><path d="M2479.8014,308.492 C2479.1178,308.1665 2478.6784,308.0688 2478.0273,308.0688 C2476.1068,308.0688 2474.6257,309.5825 2474.6257,311.5845 L2474.6257,312.4146 C2474.6257,314.3188 2476.1882,315.7023 2478.304,315.7023 C2479.1992,315.7023 2480.0618,315.4744 2480.599,315.0675 C2481.0384,314.7746 2481.2663,314.4491 2481.2663,314.1561 C2481.2663,313.8306 2480.9733,313.5376 2480.6478,313.5376 C2480.485,313.5376 2480.3385,313.6027 2480.1921,313.7329 C2479.8503,314.091 2479.8503,314.091 2479.7201,314.1561 C2479.4108,314.3514 2478.9063,314.4491 2478.3366,314.4491 C2476.8392,314.4491 2475.8789,313.6353 2475.8789,312.382 L2475.8789,311.5845 C2475.8789,310.2661 2476.8066,309.3058 2478.0762,309.3058 C2478.4993,309.3058 2478.9551,309.4198 2479.2969,309.6151 C2479.6549,309.8104 2479.7852,309.9731 2479.8503,310.2661 C2479.8991,310.5754 2479.9154,310.6567 2480.013,310.7544 C2480.1107,310.8683 2480.2897,310.9334 2480.4525,310.9334 C2480.6641,310.9334 2480.8431,310.8358 2480.9733,310.673 C2481.0547,310.5591 2481.0872,310.4289 2481.0872,310.1034 L2481.0872,309.0617 C2481.0872,308.7524 2481.071,308.6548 2480.9896,308.5409 C2480.8757,308.3455 2480.6803,308.2316 2480.4525,308.2316 C2480.2409,308.2316 2480.0944,308.313 2479.9316,308.5409 L2479.8014,308.492 Z " fill="#4E5D6C"/><text fill="#4E5D6C" font-family="Verdana" font-size="11.4583" lengthAdjust="spacing" textLength="76.0417" x="2501.3021" y="315.8442">FeatureCubit</text><line style="stroke:#4E5D6C;stroke-width:1.0416666666666667;" x1="2423.4375" x2="2626.5625" y1="328.9632" y2="328.9632"/><ellipse cx="2433.8542" cy="346.5698" fill="none" rx="3.125" ry="3.125" style="stroke:#4E5D6C;stroke-width:1.0416666666666667;"/><text fill="#4E5D6C" font-family="Verdana" font-size="11.4583" lengthAdjust="spacing" textLength="169.7917" x="2446.3542" y="348.9741">BaseFeatureService service</text><line style="stroke:#4E5D6C;stroke-width:1.0416666666666667;" x1="2423.4375" x2="2626.5625" y1="361.0514" y2="361.0514"/><ellipse cx="2433.8542" cy="378.658" fill="#FFFFFF" rx="3.125" ry="3.125" style="stroke:#4E5D6C;stroke-width:1.0416666666666667;"/><text fill="#4E5D6C" font-family="Verdana" font-size="11.4583" lengthAdjust="spacing" textLength="123.9583" x="2446.3542" y="381.0623">void doSomeAction()</text></g><!--class FeatureState--><g id="elem_FeatureState"><rect codeLine="135" fill="#FFFFFF" height="50.8382" id="FeatureState" rx="4.1667" ry="4.1667" style="stroke:#4E5D6C;stroke-width:1.0416666666666667;" width="114.5833" x="2573.9583" y="490.1042"/><ellipse cx="2587.5" cy="507.1899" fill="#FFFFFF" rx="9.375" ry="9.375" style="stroke:#4E5D6C;stroke-width:1.0416666666666667;"/><path d="M2589.0462,508.3455 L2589.3392,509.0617 L2589.0462,509.0617 C2588.737,509.0617 2588.6393,509.078 2588.5254,509.1593 C2588.3464,509.257 2588.2324,509.4849 2588.2324,509.6965 C2588.2324,509.8918 2588.3301,510.0708 2588.4928,510.1847 C2588.6068,510.2824 2588.7533,510.3149 2589.0462,510.3149 L2590.7878,510.3149 C2591.0482,510.3149 2591.2109,510.2824 2591.3086,510.2336 C2591.5039,510.1196 2591.6178,509.908 2591.6178,509.6965 C2591.6178,509.4849 2591.5202,509.3058 2591.3574,509.1919 C2591.2272,509.0942 2591.1133,509.0617 2590.7715,509.0617 L2588.2813,503.0233 L2585.5794,503.0233 C2585.2376,503.0233 2585.1563,503.0396 2585.0423,503.1209 C2584.847,503.2349 2584.7493,503.4465 2584.7493,503.658 C2584.7493,503.8534 2584.847,504.0324 2585.0098,504.1626 C2585.1237,504.2603 2585.2539,504.2765 2585.5794,504.2765 L2586.3607,504.2765 L2584.4238,509.0617 C2584.1146,509.0617 2584.0007,509.078 2583.8867,509.1593 C2583.7077,509.257 2583.5938,509.4849 2583.5938,509.6965 C2583.5938,510.1034 2583.8704,510.3149 2584.4238,510.3149 L2586.084,510.3149 C2586.3444,510.3149 2586.5072,510.2824 2586.6048,510.2336 C2586.7839,510.1196 2586.8978,509.908 2586.8978,509.6965 C2586.8978,509.4849 2586.8001,509.3058 2586.6374,509.1756 C2586.5234,509.0942 2586.4095,509.0617 2586.084,509.0617 L2585.791,509.0617 L2586.084,508.3455 L2589.0462,508.3455 Z M2588.5417,507.0923 L2586.5723,507.0923 L2587.5651,504.6834 L2588.5417,507.0923 Z " fill="#4E5D6C"/><text fill="#4E5D6C" font-family="Verdana" font-size="11.4583" font-style="italic" lengthAdjust="spacing" textLength="75" x="2605.2083" y="511.1567">FeatureState</text><line style="stroke:#4E5D6C;stroke-width:1.0416666666666667;" x1="2575" x2="2687.5" y1="524.2757" y2="524.2757"/><line style="stroke:#4E5D6C;stroke-width:1.0416666666666667;" x1="2575" x2="2687.5" y1="532.609" y2="532.609"/></g><!--reverse link BaseRepository to BaseMapper<BaseEntity, BaseModel>--><g id="link_BaseRepository_BaseMapper&lt;BaseEntity, BaseModel&gt;"><path codeLine="14" d="M404.226,578.1146 C393.1354,625.0344 378.4365,687.2229 370.4167,721.1552 " fill="none" id="BaseRepository-backto-BaseMapper&lt;BaseEntity, BaseModel&gt;" style="stroke:#4E5D6C;stroke-width:1.0416666666666667;"/><polygon fill="none" points="407.3948,564.7073,401.9023,569.8314,404.5198,576.8722,410.0122,571.7481,407.3948,564.7073" style="stroke:#4E5D6C;stroke-width:1.0416666666666667;"/></g><!--reverse link BaseRepository to BaseDataSource--><g id="link_BaseRepository_BaseDataSource"><path codeLine="15" d="M504.3729,573.9344 C508.7083,577.976 512.8438,582.1583 516.6667,586.4583 C553.6875,628.0917 581.2531,688.075 594.8031,721.3146 " fill="none" id="BaseRepository-backto-BaseDataSource" style="stroke:#4E5D6C;stroke-width:1.0416666666666667;"/><polygon fill="none" points="493.9458,564.7729,495.8909,572.0283,503.3363,573.0234,501.3912,565.768,493.9458,564.7729" style="stroke:#4E5D6C;stroke-width:1.0416666666666667;"/></g><!--reverse link BaseService to BaseRepository--><g id="link_BaseService_BaseRepository"><path codeLine="26" d="M332.1448,392.8885 C348.5479,415.9375 368.1448,443.474 384.5448,466.5187 " fill="none" id="BaseService-backto-BaseRepository" style="stroke:#4E5D6C;stroke-width:1.0416666666666667;"/><polygon fill="none" points="324.1354,381.6344,324.3644,389.1425,331.383,391.8188,331.154,384.3108,324.1354,381.6344" style="stroke:#4E5D6C;stroke-width:1.0416666666666667;"/></g><!--reverse link FeatureRepoistory to FeatureMapper--><g id="link_FeatureRepoistory_FeatureMapper"><path codeLine="44" d="M1667.9792,816.626 C1698.4479,840.6719 1735.3021,865.3521 1772.9167,880.2083 C1903.4479,931.7625 1951.25,880.0906 2086.4583,917.7083 C2092.4063,919.3625 2098.4375,921.3031 2104.4688,923.4375 " fill="none" id="FeatureRepoistory-backto-FeatureMapper" style="stroke:#4E5D6C;stroke-width:1.0416666666666667;"/><polygon fill="none" points="1657.0417,807.8156,1659.2934,814.9818,1666.7743,815.6594,1664.5226,808.4933,1657.0417,807.8156" style="stroke:#4E5D6C;stroke-width:1.0416666666666667;"/></g><!--reverse link FeatureRepoistory to BaseFeatureDataSource--><g id="link_FeatureRepoistory_BaseFeatureDataSource"><path codeLine="45" d="M1680.4896,815.9698 C1709.3646,837.3677 1742,860.5302 1772.9167,880.2083 C1799.9063,897.3875 1830.6146,914.6385 1857.625,929.0938 " fill="none" id="FeatureRepoistory-backto-BaseFeatureDataSource" style="stroke:#4E5D6C;stroke-width:1.0416666666666667;"/><polygon fill="none" points="1669.625,807.8656,1672.1445,814.9421,1679.6456,815.3381,1677.1261,808.2617,1669.625,807.8656" style="stroke:#4E5D6C;stroke-width:1.0416666666666667;"/></g><!--reverse link BaseFeatureRepository to FeatureRepoistory--><g id="link_BaseFeatureRepository_FeatureRepoistory"><path codeLine="46" d="M1769.9271,746.875 C1756.9688,746.875 1744,746.875 1731.0417,746.875 " fill="none" id="BaseFeatureRepository-backto-FeatureRepoistory" style="stroke:#4E5D6C;stroke-width:1.0416666666666667;"/><polygon fill="none" points="1770.1875,739.5833,1791.0208,746.875,1770.1875,754.1667,1770.1875,739.5833" style="stroke:#4E5D6C;stroke-width:1.0416666666666667;"/></g><!--reverse link BaseModel to FeatureModel--><g id="link_BaseModel_FeatureModel"><path codeLine="58" d="M519.4542,383.8448 C529.3302,392.3531 540.4969,400.5135 552.0833,406.25 C569.0083,414.6292 575.3271,410.4302 593.75,414.5833 C899.6854,483.55 1033.8573,389.7708 1278.125,586.4583 C1295.3333,600.3125 1309.1042,618.8594 1320.0104,638.399 " fill="none" id="BaseModel-backto-FeatureModel" style="stroke:#4E5D6C;stroke-width:1.0416666666666667;"/><polygon fill="none" points="514.4292,389.1292,504.2063,369.5667,524.3969,378.4844,514.4292,389.1292" style="stroke:#4E5D6C;stroke-width:1.0416666666666667;"/></g><!--reverse link BaseFeatureDataSource to FeatureDataSource--><g id="link_BaseFeatureDataSource_FeatureDataSource"><path codeLine="64" d="M1768.875,954.9313 C1605.1979,942.1833 1363.3958,917.7625 1278.125,880.2083 C1228.3229,858.275 1182.0417,815.5281 1152.75,784.5479 " fill="none" id="BaseFeatureDataSource-backto-FeatureDataSource" style="stroke:#4E5D6C;stroke-width:1.0416666666666667;"/><polygon fill="none" points="1769.7188,947.6823,1789.9375,956.5406,1768.6042,962.2229,1769.7188,947.6823" style="stroke:#4E5D6C;stroke-width:1.0416666666666667;"/></g><!--reverse link BaseFeatureService to BaseFeatureRepository--><g id="link_BaseFeatureService_BaseFeatureRepository"><path codeLine="71" d="M2007.3854,577.1208 C1991.8542,610.6208 1972.6042,652.1344 1957.0938,685.599 " fill="none" id="BaseFeatureService-backto-BaseFeatureRepository" style="stroke:#4E5D6C;stroke-width:1.0416666666666667;"/><polygon fill="none" points="2013.1458,564.7073,2006.7374,568.6259,2007.8899,576.0486,2014.2983,572.1299,2013.1458,564.7073" style="stroke:#4E5D6C;stroke-width:1.0416666666666667;"/></g><!--reverse link BaseService to BaseFeatureService--><g id="link_BaseService_BaseFeatureService"><path codeLine="72" d="M372.6594,391.1271 C385.5396,397.2688 399.1042,402.6698 412.5,406.25 C442.2563,414.2042 658.824,412.9792 689.5833,414.5833 C1131.2188,437.6208 1653.2292,481.049 1897.0208,502.276 " fill="none" id="BaseService-backto-BaseFeatureService" style="stroke:#4E5D6C;stroke-width:1.0416666666666667;"/><polygon fill="none" points="368.9229,397.4052,353.7458,381.3781,375.6052,384.4427,368.9229,397.4052" style="stroke:#4E5D6C;stroke-width:1.0416666666666667;"/></g><!--reverse link BaseMapper to FeatureMapper--><g id="link_BaseMapper_FeatureMapper"><path codeLine="79" d="M98.4038,413.601 C84.1994,530.2677 75.4665,765.3854 211.4583,880.2083 C291.0646,947.4229 1984.8229,894.7854 2086.4583,917.7083 C2092.4792,919.0667 2098.5729,920.7802 2104.6354,922.7479 " fill="none" id="BaseMapper-backto-FeatureMapper" style="stroke:#4E5D6C;stroke-width:1.0416666666666667;"/><polygon fill="none" points="91.1786,412.6167,101.1333,392.9167,105.6365,414.525,91.1786,412.6167" style="stroke:#4E5D6C;stroke-width:1.0416666666666667;"/></g><!--reverse link BaseDataSource to BaseFeatureDataSource--><g id="link_BaseDataSource_BaseFeatureDataSource"><path codeLine="85" d="M676.6563,780.9792 C748.2469,812.0729 861.6458,857.1833 964.5833,880.2083 C1253.3333,944.7948 1600.9688,960.9479 1790.0417,964.7354 " fill="none" id="BaseDataSource-backto-BaseFeatureDataSource" style="stroke:#4E5D6C;stroke-width:1.0416666666666667;"/><polygon fill="none" points="673.3094,787.4729,657.1719,772.4135,679.1781,774.1229,673.3094,787.4729" style="stroke:#4E5D6C;stroke-width:1.0416666666666667;"/></g><!--reverse link BaseFeatureRepository to FeatureMapper--><g id="link_BaseFeatureRepository_FeatureMapper"><path codeLine="93" d="M2012.3438,816.625 C2052.0208,849.4073 2098.5417,887.8385 2134.4063,917.4583 " fill="none" id="BaseFeatureRepository-backto-FeatureMapper" style="stroke:#4E5D6C;stroke-width:1.0416666666666667;"/><polygon fill="none" points="2001.875,807.9823,2004.0434,815.1741,2011.516,815.9386,2009.3476,808.7468,2001.875,807.9823" style="stroke:#4E5D6C;stroke-width:1.0416666666666667;"/></g><!--reverse link BaseFeatureRepository to BaseFeatureDataSource--><g id="link_BaseFeatureRepository_BaseFeatureDataSource"><path codeLine="94" d="M1929.1667,821.9969 C1929.1667,858.051 1929.1667,899.7917 1929.1667,928.951 " fill="none" id="BaseFeatureRepository-backto-BaseFeatureDataSource" style="stroke:#4E5D6C;stroke-width:1.0416666666666667;"/><polygon fill="none" points="1929.1667,807.9823,1925,814.2323,1929.1667,820.4823,1933.3333,814.2323,1929.1667,807.9823" style="stroke:#4E5D6C;stroke-width:1.0416666666666667;"/></g><!--reverse link BaseRepository to BaseFeatureRepository--><g id="link_BaseRepository_BaseFeatureRepository"><path codeLine="95" d="M597.0521,529.9281 C793.4073,544.0458 1118.5208,565.9896 1398.9583,578.125 C1418.3333,578.9635 1729.8542,579.399 1747.9167,586.4583 C1800.2083,606.8969 1847.4167,649.6052 1880.5417,685.6708 " fill="none" id="BaseRepository-backto-BaseFeatureRepository" style="stroke:#4E5D6C;stroke-width:1.0416666666666667;"/><polygon fill="none" points="596.3646,537.1896,576.1094,528.4167,597.4135,522.6438,596.3646,537.1896" style="stroke:#4E5D6C;stroke-width:1.0416666666666667;"/></g><!--reverse link BaseFeatureService to FeatureService--><g id="link_BaseFeatureService_FeatureService"><path codeLine="101" d="M2082.8125,449.4479 C2138.7083,376.9031 2238.0208,260.6531 2347.9167,190.625 C2352.4479,187.7344 2357.1979,185.0063 2362.0833,182.4333 " fill="none" id="BaseFeatureService-backto-FeatureService" style="stroke:#4E5D6C;stroke-width:1.0416666666666667;"/><polygon fill="none" points="2088.3021,454.276,2069.8854,466.451,2076.6875,445.4521,2088.3021,454.276" style="stroke:#4E5D6C;stroke-width:1.0416666666666667;"/></g><!--reverse link FeatureWidget to FeatureEntity--><g id="link_FeatureWidget_FeatureEntity"><path codeLine="107" d="M2779.7604,393.951 C2761.1354,441.3063 2731.8542,514.8719 2705.2083,578.125 C2696.9896,597.6271 2688.0521,618.3135 2679.3229,638.2531 " fill="none" id="FeatureWidget-backto-FeatureEntity" style="stroke:#4E5D6C;stroke-width:1.0416666666666667;"/><polygon fill="none" points="2784.7188,381.3198,2778.556,385.6144,2780.1499,392.9549,2786.3127,388.6603,2784.7188,381.3198" style="stroke:#4E5D6C;stroke-width:1.0416666666666667;"/></g><!--reverse link FeatureCubit to FeatureCubitExtended--><g id="link_FeatureCubit_FeatureCubitExtended"><path codeLine="113" d="M2495.6875,412.0938 C2485.9167,434.5198 2475.4063,458.6594 2467.0313,477.875 " fill="none" id="FeatureCubit-backto-FeatureCubitExtended" style="stroke:#4E5D6C;stroke-width:1.0416666666666667;"/><polygon fill="none" points="2489,409.1813,2504,392.9927,2502.3646,415.0052,2489,409.1813" style="stroke:#4E5D6C;stroke-width:1.0416666666666667;"/></g><!--reverse link StateListener to FeatureCubitExtended--><g id="link_StateListener_FeatureCubitExtended"><path codeLine="114" d="M893.7115,346.2656 C1198.2396,351.551 2164.8125,371.5677 2297.9167,414.5833 C2339.0104,427.8625 2379.6563,455.2552 2408.7292,478.0177 " fill="none" id="StateListener-backto-FeatureCubitExtended" style="stroke:#4E5D6C;stroke-width:1.0416666666666667;"/><polygon fill="none" points="893.2385,353.55,872.5323,345.9031,893.4875,338.9688,893.2385,353.55" style="stroke:#4E5D6C;stroke-width:1.0416666666666667;"/></g><!--reverse link BaseEntity to FeatureEntity--><g id="link_BaseEntity_FeatureEntity"><path codeLine="126" d="M667.0521,381.8896 C681.4042,391.6365 697.9021,400.9083 714.5833,406.25 C765.7583,422.6396 902.876,408.3615 956.25,414.5833 C1323.9271,457.4469 1404.8542,538.6823 1772.9167,578.125 C1830.9271,584.3417 2241.125,573.1052 2297.9167,586.4583 C2399.8542,610.426 2507.3333,668.6365 2571.8333,707.6698 " fill="none" id="BaseEntity-backto-FeatureEntity" style="stroke:#4E5D6C;stroke-width:1.0416666666666667;"/><polygon fill="none" points="662.6875,387.7313,650.1698,369.551,671.2927,375.9573,662.6875,387.7313" style="stroke:#4E5D6C;stroke-width:1.0416666666666667;"/></g><!--reverse link FeatureCubit to BaseFeatureService--><g id="link_FeatureCubit_BaseFeatureService"><path codeLine="133" d="M2409.4271,384.874 C2338.8125,409.3646 2248.0833,440.8292 2173.6771,466.6344 " fill="none" id="FeatureCubit-backto-BaseFeatureService" style="stroke:#4E5D6C;stroke-width:1.0416666666666667;"/><polygon fill="none" points="2422.3646,380.3854,2415.0947,378.4953,2410.5539,384.4789,2417.8237,386.3691,2422.3646,380.3854" style="stroke:#4E5D6C;stroke-width:1.0416666666666667;"/></g><!--reverse link FeatureCubit to FeatureState--><g id="link_FeatureCubit_FeatureState"><path codeLine="141" d="M2562.5417,404.7896 C2580.8438,434.024 2601.8333,467.5802 2615.75,489.8208 " fill="none" id="FeatureCubit-backto-FeatureState" style="stroke:#4E5D6C;stroke-width:1.0416666666666667;"/><polygon fill="none" points="2555.1667,392.9927,2554.9516,400.5012,2561.7998,403.5876,2562.0149,396.0791,2555.1667,392.9927" style="stroke:#4E5D6C;stroke-width:1.0416666666666667;"/></g><!--reverse link FeatureState to FeatureEntity--><g id="link_FeatureState_FeatureEntity"><path codeLine="142" d="M2631.25,554.8052 C2631.25,577.8208 2631.25,608.4031 2631.25,638.3375 " fill="none" id="FeatureState-backto-FeatureEntity" style="stroke:#4E5D6C;stroke-width:1.0416666666666667;"/><polygon fill="none" points="2631.25,541.1917,2627.0833,547.4417,2631.25,553.6917,2635.4167,547.4417,2631.25,541.1917" style="stroke:#4E5D6C;stroke-width:1.0416666666666667;"/></g><!--reverse link FeaturePage to FeatureWidget--><g id="link_FeaturePage_FeatureWidget"><path codeLine="143" d="M2762.8229,183.9031 C2770.8542,219.1823 2782.7188,271.3146 2790.6354,306.1146 " fill="none" id="FeaturePage-backto-FeatureWidget" style="stroke:#4E5D6C;stroke-width:1.0416666666666667;"/><polygon fill="none" points="2759.75,170.3698,2757.0744,177.3887,2762.5243,182.558,2765.1999,175.5391,2759.75,170.3698" style="stroke:#4E5D6C;stroke-width:1.0416666666666667;"/></g><!--reverse link FeaturePage to FeatureCubit--><g id="link_FeaturePage_FeatureCubit"><path codeLine="144" d="M2683.8542,163.1781 C2665.5625,169.8229 2646.6875,178.7635 2631.25,190.625 C2595.3646,218.199 2566.8646,261.3156 2548.4583,294.6094 " fill="none" id="FeaturePage-backto-FeatureCubit" style="stroke:#4E5D6C;stroke-width:1.0416666666666667;"/><polygon fill="none" points="2696.6771,158.8365,2689.4207,156.8953,2684.8379,162.8469,2692.0943,164.7881,2696.6771,158.8365" style="stroke:#4E5D6C;stroke-width:1.0416666666666667;"/></g><!--SRC=[nLPDZvim4BtpAxmvjMhp1r2qKfkcfqPQbKFF1eyIgs1JssoRVlpt6d00Gx0D6xKdi34pRzxCFC-3EaC127-NMoumEq7qqEwKEQOiYYGen701iiGP951YWHKNA8wZ2ATI2PmfbELOIhJPSm5nlEUisPLn_1vBE782-GRzYlu4_l0PIYwfzd6f_qBeJMC5boM8NVrwO8ggorlK6Nz4HVFrUlO3LZZXbSW0aUwrTk_tnxVRkJ1S03OlCjtZtOHose0nz1oHuWsCLw_hvK4lMuHw7Sfv0kAPQlyzuJrq9BhNUH8x0_DX3iW8H3KWPa7zjC4x_qWKLe0-KQc0WP1cuxesB3npIX1d-tFT5AGbqrZv25XLjQ4QOHoRPHsWDj4NhjblipKgKlFjTgtgCuaIW8kTETR6z8W8JtW1xp95EMiH1M1fKj8VuuNkw-wWAQNrTcu6OzcR7XpsnUwtRNR6kuVxJcKqTOHNQQuLJNuTh59AwXLb2ccZsTbmJDa9zLzAMYRq9mn- -rPn1OEpybAaF9_l0uF35LHxn1EFNVgJUZ2wvom7PtwS29s2v78mbP59meTgigxC7Mwz5JhK88-GZGcQTtiZbJTxp1Q5EeEsSbiaZ5JSVG_CO1sr-A9KhYv0hvBxYLrTVvFHuHyhi1lHKXrUOsrEZRtZYJyhrlqzJiQJ00bCtwAQbYucMmxks-eZl4x_WN2_K782PLUEQKPe7ZOwfmtkHsVc51-uTbOvOePFXTxjVjzNALM77tfY8K0S8yigknv-mp15WTFMFLo5PRWV3V_pc7054bB5zwYJwOriUWF9zjbLZwiV5pdauTVdhCI7EMpspRmVL0PF-7GzVvVWbi2CLaQtG522eW-mPxJivVRSPFu5]--></g></svg>