<?xml version="1.0" encoding="us-ascii" standalone="no"?><svg xmlns="http://www.w3.org/2000/svg" xmlns:xlink="http://www.w3.org/1999/xlink" contentStyleType="text/css" height="1185.4167px" preserveAspectRatio="none" style="width:2248px;height:1185px;background:#FFFFFF;" version="1.1" viewBox="0 0 2248 1185" width="2248.9583px" zoomAndPan="magnify"><defs/><g><!--cluster core--><g id="cluster_core"><path d="M306.25,11.4583 L348.9583,11.4583 A6.25,6.25 0 0 1 353.125,15.625 L360.4167,42.6758 L1610.4167,42.6758 A4.1667,4.1667 0 0 1 1614.5833,46.8424 L1614.5833,530.2083 A4.1667,4.1667 0 0 1 1610.4167,534.375 L306.25,534.375 A4.1667,4.1667 0 0 1 302.0833,530.2083 L302.0833,15.625 A4.1667,4.1667 0 0 1 306.25,11.4583 " fill="#FFFFFF" style="stroke:#4E5D6C;stroke-width:1.0416666666666667;"/><line style="stroke:#4E5D6C;stroke-width:1.0416666666666667;" x1="302.0833" x2="360.4167" y1="42.6758" y2="42.6758"/><text fill="#4E5D6C" font-family="Verdana" font-size="12.5" font-weight="bold" lengthAdjust="spacing" textLength="34.375" x="311.4583" y="30.3528">core</text></g><!--cluster interactor.dart--><g id="cluster_interactor.dart"><path d="M331.25,213.5417 L456.25,213.5417 A6.25,6.25 0 0 1 460.4167,217.7083 L467.7083,244.7591 L547.9167,244.7591 A4.1667,4.1667 0 0 1 552.0833,248.9258 L552.0833,344.7917 A4.1667,4.1667 0 0 1 547.9167,348.9583 L331.25,348.9583 A4.1667,4.1667 0 0 1 327.0833,344.7917 L327.0833,217.7083 A4.1667,4.1667 0 0 1 331.25,213.5417 " fill="#FFFFFF" style="stroke:#4E5D6C;stroke-width:1.0416666666666667;"/><line style="stroke:#4E5D6C;stroke-width:1.0416666666666667;" x1="327.0833" x2="467.7083" y1="244.7591" y2="244.7591"/><text fill="#4E5D6C" font-family="Verdana" font-size="12.5" font-weight="bold" lengthAdjust="spacing" textLength="116.6667" x="336.4583" y="232.4361">interactor.dart</text></g><!--cluster domain.dart--><g id="cluster_domain.dart"><path d="M620.3125,125 L720.3125,125 A6.25,6.25 0 0 1 724.4792,129.1667 L731.7708,156.2174 L858.8542,156.2174 A4.1667,4.1667 0 0 1 863.0208,160.3841 L863.0208,344.7917 A4.1667,4.1667 0 0 1 858.8542,348.9583 L620.3125,348.9583 A4.1667,4.1667 0 0 1 616.1458,344.7917 L616.1458,129.1667 A4.1667,4.1667 0 0 1 620.3125,125 " fill="#FFFFFF" style="stroke:#4E5D6C;stroke-width:1.0416666666666667;"/><line style="stroke:#4E5D6C;stroke-width:1.0416666666666667;" x1="616.1458" x2="731.7708" y1="156.2174" y2="156.2174"/><text fill="#4E5D6C" font-family="Verdana" font-size="12.5" font-weight="bold" lengthAdjust="spacing" textLength="91.6667" x="625.5208" y="143.8944">domain.dart</text></g><!--cluster data.dart--><g id="cluster_data.dart"><path d="M908.3333,63.5417 L989.5833,63.5417 A6.25,6.25 0 0 1 993.75,67.7083 L1001.0417,94.7591 L1585.4167,94.7591 A4.1667,4.1667 0 0 1 1589.5833,98.9258 L1589.5833,505.2083 A4.1667,4.1667 0 0 1 1585.4167,509.375 L908.3333,509.375 A4.1667,4.1667 0 0 1 904.1667,505.2083 L904.1667,67.7083 A4.1667,4.1667 0 0 1 908.3333,63.5417 " fill="#FFFFFF" style="stroke:#4E5D6C;stroke-width:1.0416666666666667;"/><line style="stroke:#4E5D6C;stroke-width:1.0416666666666667;" x1="904.1667" x2="1001.0417" y1="94.7591" y2="94.7591"/><text fill="#4E5D6C" font-family="Verdana" font-size="12.5" font-weight="bold" lengthAdjust="spacing" textLength="72.9167" x="913.5417" y="82.4361">data.dart</text></g><!--cluster bloc_manager.dart--><g id="cluster_bloc_manager.dart"><path d="M354.1667,373.9583 L504.1667,373.9583 A6.25,6.25 0 0 1 508.3333,378.125 L515.625,405.1758 L834.8958,405.1758 A4.1667,4.1667 0 0 1 839.0625,409.3424 L839.0625,505.2083 A4.1667,4.1667 0 0 1 834.8958,509.375 L354.1667,509.375 A4.1667,4.1667 0 0 1 350,505.2083 L350,378.125 A4.1667,4.1667 0 0 1 354.1667,373.9583 " fill="#FFFFFF" style="stroke:#4E5D6C;stroke-width:1.0416666666666667;"/><line style="stroke:#4E5D6C;stroke-width:1.0416666666666667;" x1="350" x2="515.625" y1="405.1758" y2="405.1758"/><text fill="#4E5D6C" font-family="Verdana" font-size="12.5" font-weight="bold" lengthAdjust="spacing" textLength="141.6667" x="359.375" y="392.8528">bloc_manager.dart</text></g><!--cluster feature--><g id="cluster_feature"><path d="M15.625,559.375 L83.3333,559.375 A6.25,6.25 0 0 1 87.5,563.5417 L94.7917,590.5924 L2237.5,590.5924 A4.1667,4.1667 0 0 1 2241.6667,594.7591 L2241.6667,1173.9583 A4.1667,4.1667 0 0 1 2237.5,1178.125 L15.625,1178.125 A4.1667,4.1667 0 0 1 11.4583,1173.9583 L11.4583,563.5417 A4.1667,4.1667 0 0 1 15.625,559.375 " fill="#FFFFFF" style="stroke:#4E5D6C;stroke-width:1.0416666666666667;"/><line style="stroke:#4E5D6C;stroke-width:1.0416666666666667;" x1="11.4583" x2="94.7917" y1="590.5924" y2="590.5924"/><text fill="#4E5D6C" font-family="Verdana" font-size="12.5" font-weight="bold" lengthAdjust="spacing" textLength="59.375" x="20.8333" y="578.2694">feature</text></g><!--cluster domain_layer.dart--><g id="cluster_domain_layer.dart"><path d="M965.1042,679.1667 L1109.8958,679.1667 A6.25,6.25 0 0 1 1114.0625,683.3333 L1121.3542,710.3841 L1197.3958,710.3841 A4.1667,4.1667 0 0 1 1201.5625,714.5508 L1201.5625,898.9583 A4.1667,4.1667 0 0 1 1197.3958,903.125 L965.1042,903.125 A4.1667,4.1667 0 0 1 960.9375,898.9583 L960.9375,683.3333 A4.1667,4.1667 0 0 1 965.1042,679.1667 " fill="#FFFFFF" style="stroke:#4E5D6C;stroke-width:1.0416666666666667;"/><line style="stroke:#4E5D6C;stroke-width:1.0416666666666667;" x1="960.9375" x2="1121.3542" y1="710.3841" y2="710.3841"/><text fill="#4E5D6C" font-family="Verdana" font-size="12.5" font-weight="bold" lengthAdjust="spacing" textLength="136.4583" x="970.3125" y="698.0611">domain_layer.dart</text></g><!--cluster interactor_layer.dart--><g id="cluster_interactor_layer.dart"><path d="M308.3333,994.7917 L478.125,994.7917 A6.25,6.25 0 0 1 482.2917,998.9583 L489.5833,1026.0091 L870.8333,1026.0091 A4.1667,4.1667 0 0 1 875,1030.1758 L875,1148.9583 A4.1667,4.1667 0 0 1 870.8333,1153.125 L308.3333,1153.125 A4.1667,4.1667 0 0 1 304.1667,1148.9583 L304.1667,998.9583 A4.1667,4.1667 0 0 1 308.3333,994.7917 " fill="#FFFFFF" style="stroke:#4E5D6C;stroke-width:1.0416666666666667;"/><line style="stroke:#4E5D6C;stroke-width:1.0416666666666667;" x1="304.1667" x2="489.5833" y1="1026.0091" y2="1026.0091"/><text fill="#4E5D6C" font-family="Verdana" font-size="12.5" font-weight="bold" lengthAdjust="spacing" textLength="161.4583" x="313.5417" y="1013.6861">interactor_layer.dart</text></g><!--cluster data_layer.dart--><g id="cluster_data_layer.dart"><path d="M1299.4792,611.4583 L1425.5208,611.4583 A6.25,6.25 0 0 1 1429.6875,615.625 L1436.9792,642.6758 L2212.5,642.6758 A4.1667,4.1667 0 0 1 2216.6667,646.8424 L2216.6667,965.625 A4.1667,4.1667 0 0 1 2212.5,969.7917 L1299.4792,969.7917 A4.1667,4.1667 0 0 1 1295.3125,965.625 L1295.3125,615.625 A4.1667,4.1667 0 0 1 1299.4792,611.4583 " fill="#FFFFFF" style="stroke:#4E5D6C;stroke-width:1.0416666666666667;"/><line style="stroke:#4E5D6C;stroke-width:1.0416666666666667;" x1="1295.3125" x2="1436.9792" y1="642.6758" y2="642.6758"/><text fill="#4E5D6C" font-family="Verdana" font-size="12.5" font-weight="bold" lengthAdjust="spacing" textLength="117.7083" x="1304.6875" y="630.3528">data_layer.dart</text></g><!--cluster presentation_layer.dart--><g id="cluster_presentation_layer.dart"><path d="M40.625,611.4583 L231.25,611.4583 A6.25,6.25 0 0 1 235.4167,615.625 L242.7083,642.6758 L534.8958,642.6758 A4.1667,4.1667 0 0 1 539.0625,646.8424 L539.0625,965.625 A4.1667,4.1667 0 0 1 534.8958,969.7917 L40.625,969.7917 A4.1667,4.1667 0 0 1 36.4583,965.625 L36.4583,615.625 A4.1667,4.1667 0 0 1 40.625,611.4583 " fill="#FFFFFF" style="stroke:#4E5D6C;stroke-width:1.0416666666666667;"/><line style="stroke:#4E5D6C;stroke-width:1.0416666666666667;" x1="36.4583" x2="242.7083" y1="642.6758" y2="642.6758"/><text fill="#4E5D6C" font-family="Verdana" font-size="12.5" font-weight="bold" lengthAdjust="spacing" textLength="182.2917" x="45.8333" y="630.3528">presentation_layer.dart</text></g><!--class BaseService--><g id="elem_BaseService"><rect codeLine="8" fill="#FFFFFF" height="74.5931" id="BaseService" rx="4.1667" ry="4.1667" style="stroke:#4E5D6C;stroke-width:1.0416666666666667;" width="191.6667" x="343.75" y="257.2917"/><ellipse cx="394.0104" cy="274.3774" fill="#FFFFFF" rx="9.375" ry="9.375" style="stroke:#4E5D6C;stroke-width:1.0416666666666667;"/><path d="M395.5566,275.533 L395.8496,276.2492 L395.5566,276.2492 C395.2474,276.2492 395.1497,276.2655 395.0358,276.3468 C394.8568,276.4445 394.7428,276.6724 394.7428,276.884 C394.7428,277.0793 394.8405,277.2583 395.0033,277.3722 C395.1172,277.4699 395.2637,277.5024 395.5566,277.5024 L397.2982,277.5024 C397.5586,277.5024 397.7214,277.4699 397.819,277.4211 C398.0143,277.3071 398.1283,277.0955 398.1283,276.884 C398.1283,276.6724 398.0306,276.4933 397.8678,276.3794 C397.7376,276.2817 397.6237,276.2492 397.2819,276.2492 L394.7917,270.2108 L392.0898,270.2108 C391.748,270.2108 391.6667,270.2271 391.5527,270.3084 C391.3574,270.4224 391.2598,270.634 391.2598,270.8455 C391.2598,271.0409 391.3574,271.2199 391.5202,271.3501 C391.6341,271.4478 391.7643,271.464 392.0898,271.464 L392.8711,271.464 L390.9342,276.2492 C390.625,276.2492 390.5111,276.2655 390.3971,276.3468 C390.2181,276.4445 390.1042,276.6724 390.1042,276.884 C390.1042,277.2909 390.3809,277.5024 390.9342,277.5024 L392.5944,277.5024 C392.8548,277.5024 393.0176,277.4699 393.1152,277.4211 C393.2943,277.3071 393.4082,277.0955 393.4082,276.884 C393.4082,276.6724 393.3105,276.4933 393.1478,276.3631 C393.0339,276.2817 392.9199,276.2492 392.5944,276.2492 L392.3014,276.2492 L392.5944,275.533 L395.5566,275.533 Z M395.0521,274.2798 L393.0827,274.2798 L394.0755,271.8709 L395.0521,274.2798 Z " fill="#4E5D6C"/><text fill="#4E5D6C" font-family="Verdana" font-size="11.4583" font-style="italic" lengthAdjust="spacing" textLength="72.9167" x="417.4479" y="278.3442">BaseService</text><line style="stroke:#4E5D6C;stroke-width:1.0416666666666667;" x1="344.7917" x2="534.375" y1="291.4632" y2="291.4632"/><ellipse cx="355.2083" cy="309.0698" fill="none" rx="3.125" ry="3.125" style="stroke:#4E5D6C;stroke-width:1.0416666666666667;"/><text fill="#4E5D6C" font-family="Verdana" font-size="11.4583" lengthAdjust="spacing" textLength="156.25" x="367.7083" y="311.4741">BaseRepository repository</text><line style="stroke:#4E5D6C;stroke-width:1.0416666666666667;" x1="344.7917" x2="534.375" y1="323.5514" y2="323.5514"/></g><!--class BaseRepository--><g id="elem_BaseRepository"><rect codeLine="34" fill="#FFFFFF" height="74.5931" id="BaseRepository" rx="4.1667" ry="4.1667" style="stroke:#4E5D6C;stroke-width:1.0416666666666667;" width="213.5417" x="632.8125" y="257.2917"/><ellipse cx="684.1146" cy="274.3774" fill="#FFFFFF" rx="9.375" ry="9.375" style="stroke:#4E5D6C;stroke-width:1.0416666666666667;"/><path d="M685.6608,275.533 L685.9538,276.2492 L685.6608,276.2492 C685.3516,276.2492 685.2539,276.2655 685.14,276.3468 C684.9609,276.4445 684.847,276.6724 684.847,276.884 C684.847,277.0793 684.9447,277.2583 685.1074,277.3722 C685.2214,277.4699 685.3678,277.5024 685.6608,277.5024 L687.4023,277.5024 C687.6628,277.5024 687.8255,277.4699 687.9232,277.4211 C688.1185,277.3071 688.2324,277.0955 688.2324,276.884 C688.2324,276.6724 688.1348,276.4933 687.972,276.3794 C687.8418,276.2817 687.7279,276.2492 687.3861,276.2492 L684.8958,270.2108 L682.194,270.2108 C681.8522,270.2108 681.7708,270.2271 681.6569,270.3084 C681.4616,270.4224 681.3639,270.634 681.3639,270.8455 C681.3639,271.0409 681.4616,271.2199 681.6243,271.3501 C681.7383,271.4478 681.8685,271.464 682.194,271.464 L682.9753,271.464 L681.0384,276.2492 C680.7292,276.2492 680.6152,276.2655 680.5013,276.3468 C680.3223,276.4445 680.2083,276.6724 680.2083,276.884 C680.2083,277.2909 680.485,277.5024 681.0384,277.5024 L682.6986,277.5024 C682.959,277.5024 683.1217,277.4699 683.2194,277.4211 C683.3984,277.3071 683.5124,277.0955 683.5124,276.884 C683.5124,276.6724 683.4147,276.4933 683.252,276.3631 C683.138,276.2817 683.0241,276.2492 682.6986,276.2492 L682.4056,276.2492 L682.6986,275.533 L685.6608,275.533 Z M685.1563,274.2798 L683.1868,274.2798 L684.1797,271.8709 L685.1563,274.2798 Z " fill="#4E5D6C"/><text fill="#4E5D6C" font-family="Verdana" font-size="11.4583" font-style="italic" lengthAdjust="spacing" textLength="92.7083" x="707.5521" y="278.3442">BaseRepository</text><line style="stroke:#4E5D6C;stroke-width:1.0416666666666667;" x1="633.8542" x2="845.3125" y1="291.4632" y2="291.4632"/><ellipse cx="644.2708" cy="309.0698" fill="none" rx="3.125" ry="3.125" style="stroke:#4E5D6C;stroke-width:1.0416666666666667;"/><text fill="#4E5D6C" font-family="Verdana" font-size="11.4583" lengthAdjust="spacing" textLength="178.125" x="656.7708" y="311.4741">BaseDataSource? dataSource</text><line style="stroke:#4E5D6C;stroke-width:1.0416666666666667;" x1="633.8542" x2="845.3125" y1="323.5514" y2="323.5514"/></g><!--class BaseEntity--><g id="elem_BaseEntity"><rect codeLine="31" fill="#FFFFFF" height="50.8382" id="BaseEntity" rx="4.1667" ry="4.1667" style="stroke:#4E5D6C;stroke-width:1.0416666666666667;" width="102.0833" x="688.5417" y="169.2708"/><ellipse cx="702.0833" cy="186.3566" fill="#FFFFFF" rx="9.375" ry="9.375" style="stroke:#4E5D6C;stroke-width:1.0416666666666667;"/><path d="M703.6296,187.5122 L703.9225,188.2284 L703.6296,188.2284 C703.3203,188.2284 703.2227,188.2446 703.1087,188.326 C702.9297,188.4237 702.8158,188.6515 702.8158,188.8631 C702.8158,189.0584 702.9134,189.2375 703.0762,189.3514 C703.1901,189.4491 703.3366,189.4816 703.6296,189.4816 L705.3711,189.4816 C705.6315,189.4816 705.7943,189.4491 705.8919,189.4002 C706.0872,189.2863 706.2012,189.0747 706.2012,188.8631 C706.2012,188.6515 706.1035,188.4725 705.9408,188.3586 C705.8105,188.2609 705.6966,188.2284 705.3548,188.2284 L702.8646,182.1899 L700.1628,182.1899 C699.821,182.1899 699.7396,182.2062 699.6257,182.2876 C699.4303,182.4015 699.3327,182.6131 699.3327,182.8247 C699.3327,183.02 699.4303,183.1991 699.5931,183.3293 C699.707,183.4269 699.8372,183.4432 700.1628,183.4432 L700.944,183.4432 L699.0072,188.2284 C698.6979,188.2284 698.584,188.2446 698.4701,188.326 C698.291,188.4237 698.1771,188.6515 698.1771,188.8631 C698.1771,189.27 698.4538,189.4816 699.0072,189.4816 L700.6673,189.4816 C700.9277,189.4816 701.0905,189.4491 701.1882,189.4002 C701.3672,189.2863 701.4811,189.0747 701.4811,188.8631 C701.4811,188.6515 701.3835,188.4725 701.2207,188.3423 C701.1068,188.2609 700.9928,188.2284 700.6673,188.2284 L700.3743,188.2284 L700.6673,187.5122 L703.6296,187.5122 Z M703.125,186.259 L701.1556,186.259 L702.1484,183.8501 L703.125,186.259 Z " fill="#4E5D6C"/><text fill="#4E5D6C" font-family="Verdana" font-size="11.4583" font-style="italic" lengthAdjust="spacing" textLength="62.5" x="719.7917" y="190.3234">BaseEntity</text><line style="stroke:#4E5D6C;stroke-width:1.0416666666666667;" x1="689.5833" x2="789.5833" y1="203.4424" y2="203.4424"/><line style="stroke:#4E5D6C;stroke-width:1.0416666666666667;" x1="689.5833" x2="789.5833" y1="211.7757" y2="211.7757"/></g><!--class BaseDataSource--><g id="elem_BaseDataSource"><rect codeLine="14" fill="#FFFFFF" height="74.5931" id="BaseDataSource" rx="4.1667" ry="4.1667" style="stroke:#4E5D6C;stroke-width:1.0416666666666667;" width="320.8333" x="920.8333" y="107.2917"/><ellipse cx="1023.6979" cy="124.3774" fill="#FFFFFF" rx="9.375" ry="9.375" style="stroke:#4E5D6C;stroke-width:1.0416666666666667;"/><path d="M1025.2441,125.533 L1025.5371,126.2492 L1025.2441,126.2492 C1024.9349,126.2492 1024.8372,126.2655 1024.7233,126.3468 C1024.5443,126.4445 1024.4303,126.6724 1024.4303,126.884 C1024.4303,127.0793 1024.528,127.2583 1024.6908,127.3722 C1024.8047,127.4699 1024.9512,127.5024 1025.2441,127.5024 L1026.9857,127.5024 C1027.2461,127.5024 1027.4089,127.4699 1027.5065,127.4211 C1027.7018,127.3071 1027.8158,127.0955 1027.8158,126.884 C1027.8158,126.6724 1027.7181,126.4933 1027.5553,126.3794 C1027.4251,126.2817 1027.3112,126.2492 1026.9694,126.2492 L1024.4792,120.2108 L1021.7773,120.2108 C1021.4355,120.2108 1021.3542,120.2271 1021.2402,120.3084 C1021.0449,120.4224 1020.9473,120.634 1020.9473,120.8455 C1020.9473,121.0409 1021.0449,121.2199 1021.2077,121.3501 C1021.3216,121.4478 1021.4518,121.464 1021.7773,121.464 L1022.5586,121.464 L1020.6217,126.2492 C1020.3125,126.2492 1020.1986,126.2655 1020.0846,126.3468 C1019.9056,126.4445 1019.7917,126.6724 1019.7917,126.884 C1019.7917,127.2909 1020.0684,127.5024 1020.6217,127.5024 L1022.2819,127.5024 C1022.5423,127.5024 1022.7051,127.4699 1022.8027,127.4211 C1022.9818,127.3071 1023.0957,127.0955 1023.0957,126.884 C1023.0957,126.6724 1022.998,126.4933 1022.8353,126.3631 C1022.7214,126.2817 1022.6074,126.2492 1022.2819,126.2492 L1021.9889,126.2492 L1022.2819,125.533 L1025.2441,125.533 Z M1024.7396,124.2798 L1022.7702,124.2798 L1023.763,121.8709 L1024.7396,124.2798 Z " fill="#4E5D6C"/><text fill="#4E5D6C" font-family="Verdana" font-size="11.4583" font-style="italic" lengthAdjust="spacing" textLength="96.875" x="1047.1354" y="128.3442">BaseDataSource</text><line style="stroke:#4E5D6C;stroke-width:1.0416666666666667;" x1="921.875" x2="1240.625" y1="141.4632" y2="141.4632"/><ellipse cx="932.2917" cy="159.0698" fill="none" rx="3.125" ry="3.125" style="stroke:#4E5D6C;stroke-width:1.0416666666666667;"/><text fill="#4E5D6C" font-family="Verdana" font-size="11.4583" lengthAdjust="spacing" textLength="285.4167" x="944.7917" y="161.4741">BaseMapper&lt;BaseEntity, BaseModel&gt;? mapper</text><line style="stroke:#4E5D6C;stroke-width:1.0416666666666667;" x1="921.875" x2="1240.625" y1="173.5514" y2="173.5514"/></g><!--class BaseMapper<BaseEntity, BaseModel>--><g id="elem_BaseMapper&lt;BaseEntity, BaseModel&gt;"><rect fill="#FFFFFF" height="50.8382" id="BaseMapper&lt;BaseEntity, BaseModel&gt;" rx="4.1667" ry="4.1667" style="stroke:#4E5D6C;stroke-width:1.0416666666666667;" width="268.75" x="1304.1667" y="441.1458"/><ellipse cx="1317.7083" cy="458.2316" fill="#FFFFFF" rx="9.375" ry="9.375" style="stroke:#4E5D6C;stroke-width:1.0416666666666667;"/><path d="M1319.6452,454.8462 C1318.9616,454.5207 1318.5221,454.423 1317.8711,454.423 C1315.9505,454.423 1314.4694,455.9367 1314.4694,457.9386 L1314.4694,458.7687 C1314.4694,460.673 1316.0319,462.0565 1318.1478,462.0565 C1319.043,462.0565 1319.9056,461.8286 1320.4427,461.4217 C1320.8822,461.1287 1321.11,460.8032 1321.11,460.5103 C1321.11,460.1847 1320.8171,459.8918 1320.4915,459.8918 C1320.3288,459.8918 1320.1823,459.9569 1320.0358,460.0871 C1319.694,460.4451 1319.694,460.4451 1319.5638,460.5103 C1319.2546,460.7056 1318.75,460.8032 1318.1803,460.8032 C1316.6829,460.8032 1315.7227,459.9894 1315.7227,458.7362 L1315.7227,457.9386 C1315.7227,456.6203 1316.6504,455.66 1317.9199,455.66 C1318.3431,455.66 1318.7988,455.7739 1319.1406,455.9692 C1319.4987,456.1646 1319.6289,456.3273 1319.694,456.6203 C1319.7428,456.9295 1319.7591,457.0109 1319.8568,457.1086 C1319.9544,457.2225 1320.1335,457.2876 1320.2962,457.2876 C1320.5078,457.2876 1320.6868,457.1899 1320.8171,457.0272 C1320.8984,456.9132 1320.931,456.783 1320.931,456.4575 L1320.931,455.4159 C1320.931,455.1066 1320.9147,455.009 1320.8333,454.895 C1320.7194,454.6997 1320.5241,454.5858 1320.2962,454.5858 C1320.0846,454.5858 1319.9382,454.6672 1319.7754,454.895 L1319.6452,454.8462 Z " fill="#4E5D6C"/><text fill="#4E5D6C" font-family="Verdana" font-size="11.4583" lengthAdjust="spacing" textLength="229.1667" x="1335.4167" y="462.1984">BaseMapper&lt;BaseEntity, BaseModel&gt;</text><line style="stroke:#4E5D6C;stroke-width:1.0416666666666667;" x1="1305.2083" x2="1571.875" y1="475.3174" y2="475.3174"/><line style="stroke:#4E5D6C;stroke-width:1.0416666666666667;" x1="1305.2083" x2="1571.875" y1="483.6507" y2="483.6507"/></g><!--class BaseModel--><g id="elem_BaseModel"><rect codeLine="20" fill="#FFFFFF" height="50.8382" id="BaseModel" rx="4.1667" ry="4.1667" style="stroke:#4E5D6C;stroke-width:1.0416666666666667;" width="103.125" x="1029.6875" y="219.2708"/><ellipse cx="1043.2292" cy="236.3566" fill="#FFFFFF" rx="9.375" ry="9.375" style="stroke:#4E5D6C;stroke-width:1.0416666666666667;"/><path d="M1044.7754,237.5122 L1045.0684,238.2284 L1044.7754,238.2284 C1044.4661,238.2284 1044.3685,238.2446 1044.2546,238.326 C1044.0755,238.4237 1043.9616,238.6515 1043.9616,238.8631 C1043.9616,239.0584 1044.0592,239.2375 1044.222,239.3514 C1044.3359,239.4491 1044.4824,239.4816 1044.7754,239.4816 L1046.5169,239.4816 C1046.7773,239.4816 1046.9401,239.4491 1047.0378,239.4002 C1047.2331,239.2863 1047.347,239.0747 1047.347,238.8631 C1047.347,238.6515 1047.2493,238.4725 1047.0866,238.3586 C1046.9564,238.2609 1046.8424,238.2284 1046.5007,238.2284 L1044.0104,232.1899 L1041.3086,232.1899 C1040.9668,232.1899 1040.8854,232.2062 1040.7715,232.2876 C1040.5762,232.4015 1040.4785,232.6131 1040.4785,232.8247 C1040.4785,233.02 1040.5762,233.1991 1040.7389,233.3293 C1040.8529,233.4269 1040.9831,233.4432 1041.3086,233.4432 L1042.0898,233.4432 L1040.153,238.2284 C1039.8438,238.2284 1039.7298,238.2446 1039.6159,238.326 C1039.4368,238.4237 1039.3229,238.6515 1039.3229,238.8631 C1039.3229,239.27 1039.5996,239.4816 1040.153,239.4816 L1041.8132,239.4816 C1042.0736,239.4816 1042.2363,239.4491 1042.334,239.4002 C1042.513,239.2863 1042.627,239.0747 1042.627,238.8631 C1042.627,238.6515 1042.5293,238.4725 1042.3665,238.3423 C1042.2526,238.2609 1042.1387,238.2284 1041.8132,238.2284 L1041.5202,238.2284 L1041.8132,237.5122 L1044.7754,237.5122 Z M1044.2708,236.259 L1042.3014,236.259 L1043.2943,233.8501 L1044.2708,236.259 Z " fill="#4E5D6C"/><text fill="#4E5D6C" font-family="Verdana" font-size="11.4583" font-style="italic" lengthAdjust="spacing" textLength="63.5417" x="1060.9375" y="240.3234">BaseModel</text><line style="stroke:#4E5D6C;stroke-width:1.0416666666666667;" x1="1030.7292" x2="1131.7708" y1="253.4424" y2="253.4424"/><line style="stroke:#4E5D6C;stroke-width:1.0416666666666667;" x1="1030.7292" x2="1131.7708" y1="261.7757" y2="261.7757"/></g><!--class BaseDataSources--><g id="elem_BaseDataSources"><rect codeLine="23" fill="#FFFFFF" height="50.8382" id="BaseDataSources" rx="4.1667" ry="4.1667" style="stroke:#4E5D6C;stroke-width:1.0416666666666667;" width="142.7083" x="1009.8958" y="306.7708"/><ellipse cx="1023.4375" cy="323.8566" fill="#FFFFFF" rx="9.375" ry="9.375" style="stroke:#4E5D6C;stroke-width:1.0416666666666667;"/><path d="M1024.9837,325.0122 L1025.2767,325.7284 L1024.9837,325.7284 C1024.6745,325.7284 1024.5768,325.7446 1024.4629,325.826 C1024.2839,325.9237 1024.1699,326.1515 1024.1699,326.3631 C1024.1699,326.5584 1024.2676,326.7375 1024.4303,326.8514 C1024.5443,326.9491 1024.6908,326.9816 1024.9837,326.9816 L1026.7253,326.9816 C1026.9857,326.9816 1027.1484,326.9491 1027.2461,326.9002 C1027.4414,326.7863 1027.5553,326.5747 1027.5553,326.3631 C1027.5553,326.1515 1027.4577,325.9725 1027.2949,325.8586 C1027.1647,325.7609 1027.0508,325.7284 1026.709,325.7284 L1024.2188,319.6899 L1021.5169,319.6899 C1021.1751,319.6899 1021.0938,319.7062 1020.9798,319.7876 C1020.7845,319.9015 1020.6868,320.1131 1020.6868,320.3247 C1020.6868,320.52 1020.7845,320.6991 1020.9473,320.8293 C1021.0612,320.9269 1021.1914,320.9432 1021.5169,320.9432 L1022.2982,320.9432 L1020.3613,325.7284 C1020.0521,325.7284 1019.9382,325.7446 1019.8242,325.826 C1019.6452,325.9237 1019.5313,326.1515 1019.5313,326.3631 C1019.5313,326.77 1019.8079,326.9816 1020.3613,326.9816 L1022.0215,326.9816 C1022.2819,326.9816 1022.4447,326.9491 1022.5423,326.9002 C1022.7214,326.7863 1022.8353,326.5747 1022.8353,326.3631 C1022.8353,326.1515 1022.7376,325.9725 1022.5749,325.8423 C1022.4609,325.7609 1022.347,325.7284 1022.0215,325.7284 L1021.7285,325.7284 L1022.0215,325.0122 L1024.9837,325.0122 Z M1024.4792,323.759 L1022.5098,323.759 L1023.5026,321.3501 L1024.4792,323.759 Z " fill="#4E5D6C"/><text fill="#4E5D6C" font-family="Verdana" font-size="11.4583" font-style="italic" lengthAdjust="spacing" textLength="103.125" x="1041.1458" y="327.8234">BaseDataSources</text><line style="stroke:#4E5D6C;stroke-width:1.0416666666666667;" x1="1010.9375" x2="1151.5625" y1="340.9424" y2="340.9424"/><line style="stroke:#4E5D6C;stroke-width:1.0416666666666667;" x1="1010.9375" x2="1151.5625" y1="349.2757" y2="349.2757"/></g><!--class BaseMapper--><g id="elem_BaseMapper"><rect codeLine="26" fill="#FFFFFF" height="98.348" id="BaseMapper" rx="4.1667" ry="4.1667" style="stroke:#4E5D6C;stroke-width:1.0416666666666667;" width="112.5" x="1025" y="394.7917"/><ellipse cx="1038.5417" cy="411.8774" fill="#FFFFFF" rx="9.375" ry="9.375" style="stroke:#4E5D6C;stroke-width:1.0416666666666667;"/><path d="M1040.0879,413.033 L1040.3809,413.7492 L1040.0879,413.7492 C1039.7786,413.7492 1039.681,413.7655 1039.5671,413.8468 C1039.388,413.9445 1039.2741,414.1724 1039.2741,414.384 C1039.2741,414.5793 1039.3717,414.7583 1039.5345,414.8722 C1039.6484,414.9699 1039.7949,415.0024 1040.0879,415.0024 L1041.8294,415.0024 C1042.0898,415.0024 1042.2526,414.9699 1042.3503,414.9211 C1042.5456,414.8071 1042.6595,414.5955 1042.6595,414.384 C1042.6595,414.1724 1042.5618,413.9933 1042.3991,413.8794 C1042.2689,413.7817 1042.1549,413.7492 1041.8132,413.7492 L1039.3229,407.7108 L1036.6211,407.7108 C1036.2793,407.7108 1036.1979,407.7271 1036.084,407.8084 C1035.8887,407.9224 1035.791,408.134 1035.791,408.3455 C1035.791,408.5409 1035.8887,408.7199 1036.0514,408.8501 C1036.1654,408.9478 1036.2956,408.964 1036.6211,408.964 L1037.4023,408.964 L1035.4655,413.7492 C1035.1563,413.7492 1035.0423,413.7655 1034.9284,413.8468 C1034.7493,413.9445 1034.6354,414.1724 1034.6354,414.384 C1034.6354,414.7909 1034.9121,415.0024 1035.4655,415.0024 L1037.1257,415.0024 C1037.3861,415.0024 1037.5488,414.9699 1037.6465,414.9211 C1037.8255,414.8071 1037.9395,414.5955 1037.9395,414.384 C1037.9395,414.1724 1037.8418,413.9933 1037.679,413.8631 C1037.5651,413.7817 1037.4512,413.7492 1037.1257,413.7492 L1036.8327,413.7492 L1037.1257,413.033 L1040.0879,413.033 Z M1039.5833,411.7798 L1037.6139,411.7798 L1038.6068,409.3709 L1039.5833,411.7798 Z " fill="#4E5D6C"/><text fill="#4E5D6C" font-family="Verdana" font-size="11.4583" font-style="italic" lengthAdjust="spacing" textLength="72.9167" x="1056.25" y="415.8442">BaseMapper</text><line style="stroke:#4E5D6C;stroke-width:1.0416666666666667;" x1="1026.0417" x2="1136.4583" y1="428.9632" y2="428.9632"/><line style="stroke:#4E5D6C;stroke-width:1.0416666666666667;" x1="1026.0417" x2="1136.4583" y1="437.2965" y2="437.2965"/><ellipse cx="1036.4583" cy="454.9032" fill="#FFFFFF" rx="3.125" ry="3.125" style="stroke:#4E5D6C;stroke-width:1.0416666666666667;"/><text fill="#4E5D6C" font-family="Verdana" font-size="11.4583" lengthAdjust="spacing" textLength="64.5833" x="1048.9583" y="457.3074">E toEntity()</text><ellipse cx="1036.4583" cy="478.658" fill="#FFFFFF" rx="3.125" ry="3.125" style="stroke:#4E5D6C;stroke-width:1.0416666666666667;"/><text fill="#4E5D6C" font-family="Verdana" font-size="11.4583" lengthAdjust="spacing" textLength="68.75" x="1048.9583" y="481.0623">M toModel()</text></g><!--class BaseStateListener--><g id="elem_BaseStateListener"><rect codeLine="40" fill="#FFFFFF" height="50.8382" id="BaseStateListener" rx="4.1667" ry="4.1667" style="stroke:#4E5D6C;stroke-width:1.0416666666666667;" width="145.8333" x="366.6667" y="429.6875"/><ellipse cx="380.2083" cy="446.7733" fill="#FFFFFF" rx="9.375" ry="9.375" style="stroke:#4E5D6C;stroke-width:1.0416666666666667;"/><path d="M381.7546,447.9289 L382.0475,448.645 L381.7546,448.645 C381.4453,448.645 381.3477,448.6613 381.2337,448.7427 C381.0547,448.8403 380.9408,449.0682 380.9408,449.2798 C380.9408,449.4751 381.0384,449.6541 381.2012,449.7681 C381.3151,449.8657 381.4616,449.8983 381.7546,449.8983 L383.4961,449.8983 C383.7565,449.8983 383.9193,449.8657 384.0169,449.8169 C384.2122,449.703 384.3262,449.4914 384.3262,449.2798 C384.3262,449.0682 384.2285,448.8892 384.0658,448.7752 C383.9355,448.6776 383.8216,448.645 383.4798,448.645 L380.9896,442.6066 L378.2878,442.6066 C377.946,442.6066 377.8646,442.6229 377.7507,442.7043 C377.5553,442.8182 377.4577,443.0298 377.4577,443.2414 C377.4577,443.4367 377.5553,443.6157 377.7181,443.7459 C377.832,443.8436 377.9622,443.8599 378.2878,443.8599 L379.069,443.8599 L377.1322,448.645 C376.8229,448.645 376.709,448.6613 376.5951,448.7427 C376.416,448.8403 376.3021,449.0682 376.3021,449.2798 C376.3021,449.6867 376.5788,449.8983 377.1322,449.8983 L378.7923,449.8983 C379.0527,449.8983 379.2155,449.8657 379.3132,449.8169 C379.4922,449.703 379.6061,449.4914 379.6061,449.2798 C379.6061,449.0682 379.5085,448.8892 379.3457,448.759 C379.2318,448.6776 379.1178,448.645 378.7923,448.645 L378.4993,448.645 L378.7923,447.9289 L381.7546,447.9289 Z M381.25,446.6756 L379.2806,446.6756 L380.2734,444.2668 L381.25,446.6756 Z " fill="#4E5D6C"/><text fill="#4E5D6C" font-family="Verdana" font-size="11.4583" font-style="italic" lengthAdjust="spacing" textLength="106.25" x="397.9167" y="450.7401">BaseStateListener</text><line style="stroke:#4E5D6C;stroke-width:1.0416666666666667;" x1="367.7083" x2="511.4583" y1="463.859" y2="463.859"/><line style="stroke:#4E5D6C;stroke-width:1.0416666666666667;" x1="367.7083" x2="511.4583" y1="472.1924" y2="472.1924"/></g><!--class StateListener--><g id="elem_StateListener"><rect codeLine="43" fill="#FFFFFF" height="74.5931" id="StateListener" rx="4.1667" ry="4.1667" style="stroke:#4E5D6C;stroke-width:1.0416666666666667;" width="165.625" x="656.7708" y="417.7083"/><ellipse cx="690.9375" cy="434.7941" fill="#FFFFFF" rx="9.375" ry="9.375" style="stroke:#4E5D6C;stroke-width:1.0416666666666667;"/><path d="M692.8743,431.4087 C692.1908,431.0832 691.7513,430.9855 691.1003,430.9855 C689.1797,430.9855 687.6986,432.4992 687.6986,434.5011 L687.6986,435.3312 C687.6986,437.2355 689.2611,438.619 691.377,438.619 C692.2721,438.619 693.1348,438.3911 693.6719,437.9842 C694.1113,437.6912 694.3392,437.3657 694.3392,437.0728 C694.3392,436.7472 694.0462,436.4543 693.7207,436.4543 C693.5579,436.4543 693.4115,436.5194 693.265,436.6496 C692.9232,437.0076 692.9232,437.0076 692.793,437.0728 C692.4837,437.2681 691.9792,437.3657 691.4095,437.3657 C689.9121,437.3657 688.9518,436.5519 688.9518,435.2987 L688.9518,434.5011 C688.9518,433.1828 689.8796,432.2225 691.1491,432.2225 C691.5723,432.2225 692.028,432.3364 692.3698,432.5317 C692.7279,432.7271 692.8581,432.8898 692.9232,433.1828 C692.972,433.492 692.9883,433.5734 693.0859,433.6711 C693.1836,433.785 693.3626,433.8501 693.5254,433.8501 C693.737,433.8501 693.916,433.7524 694.0462,433.5897 C694.1276,433.4757 694.1602,433.3455 694.1602,433.02 L694.1602,431.9784 C694.1602,431.6691 694.1439,431.5715 694.0625,431.4575 C693.9486,431.2622 693.7533,431.1483 693.5254,431.1483 C693.3138,431.1483 693.1673,431.2297 693.0046,431.4575 L692.8743,431.4087 Z " fill="#4E5D6C"/><text fill="#4E5D6C" font-family="Verdana" font-size="11.4583" lengthAdjust="spacing" textLength="80.2083" x="713.2292" y="438.7609">StateListener</text><line style="stroke:#4E5D6C;stroke-width:1.0416666666666667;" x1="657.8125" x2="821.3542" y1="451.8799" y2="451.8799"/><line style="stroke:#4E5D6C;stroke-width:1.0416666666666667;" x1="657.8125" x2="821.3542" y1="460.2132" y2="460.2132"/><ellipse cx="668.2292" cy="477.8198" fill="#FFFFFF" rx="3.125" ry="3.125" style="stroke:#4E5D6C;stroke-width:1.0416666666666667;"/><text fill="#4E5D6C" font-family="Verdana" font-size="11.4583" lengthAdjust="spacing" textLength="130.2083" x="680.7292" y="480.2241">void onChangeState()</text></g><!--class FeatureEntity--><g id="elem_FeatureEntity"><rect codeLine="49" fill="#FFFFFF" height="50.8382" id="FeatureEntity" rx="4.1667" ry="4.1667" style="stroke:#4E5D6C;stroke-width:1.0416666666666667;" width="118.75" x="1021.875" y="723.4375"/><ellipse cx="1035.4167" cy="740.5233" fill="#FFFFFF" rx="9.375" ry="9.375" style="stroke:#4E5D6C;stroke-width:1.0416666666666667;"/><path d="M1037.3535,737.1379 C1036.6699,736.8123 1036.2305,736.7147 1035.5794,736.7147 C1033.6589,736.7147 1032.1777,738.2284 1032.1777,740.2303 L1032.1777,741.0604 C1032.1777,742.9647 1033.7402,744.3481 1035.8561,744.3481 C1036.7513,744.3481 1037.6139,744.1203 1038.151,743.7134 C1038.5905,743.4204 1038.8184,743.0949 1038.8184,742.8019 C1038.8184,742.4764 1038.5254,742.1834 1038.1999,742.1834 C1038.0371,742.1834 1037.8906,742.2485 1037.7441,742.3787 C1037.4023,742.7368 1037.4023,742.7368 1037.2721,742.8019 C1036.9629,742.9972 1036.4583,743.0949 1035.8887,743.0949 C1034.3913,743.0949 1033.431,742.2811 1033.431,741.0278 L1033.431,740.2303 C1033.431,738.9119 1034.3587,737.9517 1035.6283,737.9517 C1036.0514,737.9517 1036.5072,738.0656 1036.849,738.2609 C1037.207,738.4562 1037.3372,738.619 1037.4023,738.9119 C1037.4512,739.2212 1037.4674,739.3026 1037.5651,739.4002 C1037.6628,739.5142 1037.8418,739.5793 1038.0046,739.5793 C1038.2161,739.5793 1038.3952,739.4816 1038.5254,739.3188 C1038.6068,739.2049 1038.6393,739.0747 1038.6393,738.7492 L1038.6393,737.7075 C1038.6393,737.3983 1038.623,737.3006 1038.5417,737.1867 C1038.4277,736.9914 1038.2324,736.8774 1038.0046,736.8774 C1037.793,736.8774 1037.6465,736.9588 1037.4837,737.1867 L1037.3535,737.1379 Z " fill="#4E5D6C"/><text fill="#4E5D6C" font-family="Verdana" font-size="11.4583" lengthAdjust="spacing" textLength="79.1667" x="1053.125" y="744.4901">FeatureEntity</text><line style="stroke:#4E5D6C;stroke-width:1.0416666666666667;" x1="1022.9167" x2="1139.5833" y1="757.609" y2="757.609"/><line style="stroke:#4E5D6C;stroke-width:1.0416666666666667;" x1="1022.9167" x2="1139.5833" y1="765.9424" y2="765.9424"/></g><!--class BaseFeatureRepository--><g id="elem_BaseFeatureRepository"><rect codeLine="54" fill="#FFFFFF" height="74.5931" id="BaseFeatureRepository" rx="4.1667" ry="4.1667" style="stroke:#4E5D6C;stroke-width:1.0416666666666667;" width="207.2917" x="977.6042" y="811.4583"/><ellipse cx="1004.7396" cy="828.5441" fill="#FFFFFF" rx="9.375" ry="9.375" style="stroke:#4E5D6C;stroke-width:1.0416666666666667;"/><path d="M1006.2858,829.6997 L1006.5788,830.4159 L1006.2858,830.4159 C1005.9766,830.4159 1005.8789,830.4321 1005.765,830.5135 C1005.5859,830.6112 1005.472,830.839 1005.472,831.0506 C1005.472,831.2459 1005.5697,831.425 1005.7324,831.5389 C1005.8464,831.6366 1005.9928,831.6691 1006.2858,831.6691 L1008.0273,831.6691 C1008.2878,831.6691 1008.4505,831.6366 1008.5482,831.5877 C1008.7435,831.4738 1008.8574,831.2622 1008.8574,831.0506 C1008.8574,830.839 1008.7598,830.66 1008.597,830.5461 C1008.4668,830.4484 1008.3529,830.4159 1008.0111,830.4159 L1005.5208,824.3774 L1002.819,824.3774 C1002.4772,824.3774 1002.3958,824.3937 1002.2819,824.4751 C1002.0866,824.589 1001.9889,824.8006 1001.9889,825.0122 C1001.9889,825.2075 1002.0866,825.3866 1002.2493,825.5168 C1002.3633,825.6144 1002.4935,825.6307 1002.819,825.6307 L1003.6003,825.6307 L1001.6634,830.4159 C1001.3542,830.4159 1001.2402,830.4321 1001.1263,830.5135 C1000.9473,830.6112 1000.8333,830.839 1000.8333,831.0506 C1000.8333,831.4575 1001.11,831.6691 1001.6634,831.6691 L1003.3236,831.6691 C1003.584,831.6691 1003.7467,831.6366 1003.8444,831.5877 C1004.0234,831.4738 1004.1374,831.2622 1004.1374,831.0506 C1004.1374,830.839 1004.0397,830.66 1003.877,830.5298 C1003.763,830.4484 1003.6491,830.4159 1003.3236,830.4159 L1003.0306,830.4159 L1003.3236,829.6997 L1006.2858,829.6997 Z M1005.7813,828.4465 L1003.8118,828.4465 L1004.8047,826.0376 L1005.7813,828.4465 Z " fill="#4E5D6C"/><text fill="#4E5D6C" font-family="Verdana" font-size="11.4583" font-style="italic" lengthAdjust="spacing" textLength="137.5" x="1025.4688" y="832.5109">BaseFeatureRepository</text><line style="stroke:#4E5D6C;stroke-width:1.0416666666666667;" x1="978.6458" x2="1183.8542" y1="845.6299" y2="845.6299"/><ellipse cx="989.0625" cy="863.2365" fill="none" rx="3.125" ry="3.125" style="stroke:#4E5D6C;stroke-width:1.0416666666666667;"/><text fill="#4E5D6C" font-family="Verdana" font-size="11.4583" lengthAdjust="spacing" textLength="171.875" x="1001.5625" y="865.6408">BaseDataSource dataSource</text><line style="stroke:#4E5D6C;stroke-width:1.0416666666666667;" x1="978.6458" x2="1183.8542" y1="877.7181" y2="877.7181"/></g><!--class BaseFeatureService--><g id="elem_BaseFeatureService"><rect codeLine="61" fill="#FFFFFF" height="98.348" id="BaseFeatureService" rx="4.1667" ry="4.1667" style="stroke:#4E5D6C;stroke-width:1.0416666666666667;" width="237.5" x="320.8333" y="1038.5417"/><ellipse cx="371.6146" cy="1055.6274" fill="#FFFFFF" rx="9.375" ry="9.375" style="stroke:#4E5D6C;stroke-width:1.0416666666666667;"/><path d="M373.1608,1056.783 L373.4538,1057.4992 L373.1608,1057.4992 C372.8516,1057.4992 372.7539,1057.5155 372.64,1057.5968 C372.4609,1057.6945 372.347,1057.9224 372.347,1058.134 C372.347,1058.3293 372.4447,1058.5083 372.6074,1058.6222 C372.7214,1058.7199 372.8678,1058.7524 373.1608,1058.7524 L374.9023,1058.7524 C375.1628,1058.7524 375.3255,1058.7199 375.4232,1058.6711 C375.6185,1058.5571 375.7324,1058.3455 375.7324,1058.134 C375.7324,1057.9224 375.6348,1057.7433 375.472,1057.6294 C375.3418,1057.5317 375.2279,1057.4992 374.8861,1057.4992 L372.3958,1051.4608 L369.694,1051.4608 C369.3522,1051.4608 369.2708,1051.4771 369.1569,1051.5584 C368.9616,1051.6724 368.8639,1051.884 368.8639,1052.0955 C368.8639,1052.2909 368.9616,1052.4699 369.1243,1052.6001 C369.2383,1052.6978 369.3685,1052.714 369.694,1052.714 L370.4753,1052.714 L368.5384,1057.4992 C368.2292,1057.4992 368.1152,1057.5155 368.0013,1057.5968 C367.8223,1057.6945 367.7083,1057.9224 367.7083,1058.134 C367.7083,1058.5409 367.985,1058.7524 368.5384,1058.7524 L370.1986,1058.7524 C370.459,1058.7524 370.6217,1058.7199 370.7194,1058.6711 C370.8984,1058.5571 371.0124,1058.3455 371.0124,1058.134 C371.0124,1057.9224 370.9147,1057.7433 370.752,1057.6131 C370.638,1057.5317 370.5241,1057.4992 370.1986,1057.4992 L369.9056,1057.4992 L370.1986,1056.783 L373.1608,1056.783 Z M372.6563,1055.5298 L370.6868,1055.5298 L371.6797,1053.1209 L372.6563,1055.5298 Z " fill="#4E5D6C"/><text fill="#4E5D6C" font-family="Verdana" font-size="11.4583" font-style="italic" lengthAdjust="spacing" textLength="117.7083" x="395.0521" y="1059.5942">BaseFeatureService</text><line style="stroke:#4E5D6C;stroke-width:1.0416666666666667;" x1="321.875" x2="557.2917" y1="1072.7132" y2="1072.7132"/><ellipse cx="332.2917" cy="1090.3198" fill="none" rx="3.125" ry="3.125" style="stroke:#4E5D6C;stroke-width:1.0416666666666667;"/><text fill="#4E5D6C" font-family="Verdana" font-size="11.4583" lengthAdjust="spacing" textLength="202.0833" x="344.7917" y="1092.7241">BaseFeatureRepository repository</text><line style="stroke:#4E5D6C;stroke-width:1.0416666666666667;" x1="321.875" x2="557.2917" y1="1104.8014" y2="1104.8014"/><ellipse cx="332.2917" cy="1122.408" fill="#FFFFFF" rx="3.125" ry="3.125" style="stroke:#4E5D6C;stroke-width:1.0416666666666667;"/><text fill="#4E5D6C" font-family="Verdana" font-size="11.4583" lengthAdjust="spacing" textLength="110.4167" x="344.7917" y="1124.8123">dynamic getData()</text></g><!--class FeatureService--><g id="elem_FeatureService"><rect codeLine="69" fill="#FFFFFF" height="98.348" id="FeatureService" rx="4.1667" ry="4.1667" style="stroke:#4E5D6C;stroke-width:1.0416666666666667;" width="237.5" x="620.8333" y="1038.5417"/><ellipse cx="684.6354" cy="1055.6274" fill="#FFFFFF" rx="9.375" ry="9.375" style="stroke:#4E5D6C;stroke-width:1.0416666666666667;"/><path d="M686.5723,1052.242 C685.8887,1051.9165 685.4492,1051.8188 684.7982,1051.8188 C682.8776,1051.8188 681.3965,1053.3325 681.3965,1055.3345 L681.3965,1056.1646 C681.3965,1058.0688 682.959,1059.4523 685.0749,1059.4523 C685.9701,1059.4523 686.8327,1059.2244 687.3698,1058.8175 C687.8092,1058.5246 688.0371,1058.1991 688.0371,1057.9061 C688.0371,1057.5806 687.7441,1057.2876 687.4186,1057.2876 C687.2559,1057.2876 687.1094,1057.3527 686.9629,1057.4829 C686.6211,1057.841 686.6211,1057.841 686.4909,1057.9061 C686.1816,1058.1014 685.6771,1058.1991 685.1074,1058.1991 C683.61,1058.1991 682.6497,1057.3853 682.6497,1056.132 L682.6497,1055.3345 C682.6497,1054.0161 683.5775,1053.0558 684.847,1053.0558 C685.2702,1053.0558 685.7259,1053.1698 686.0677,1053.3651 C686.4258,1053.5604 686.556,1053.7231 686.6211,1054.0161 C686.6699,1054.3254 686.6862,1054.4067 686.7839,1054.5044 C686.8815,1054.6183 687.0605,1054.6834 687.2233,1054.6834 C687.4349,1054.6834 687.6139,1054.5858 687.7441,1054.423 C687.8255,1054.3091 687.8581,1054.1789 687.8581,1053.8534 L687.8581,1052.8117 C687.8581,1052.5024 687.8418,1052.4048 687.7604,1052.2909 C687.6465,1052.0955 687.4512,1051.9816 687.2233,1051.9816 C687.0117,1051.9816 686.8652,1052.063 686.7025,1052.2909 L686.5723,1052.242 Z " fill="#4E5D6C"/><text fill="#4E5D6C" font-family="Verdana" font-size="11.4583" lengthAdjust="spacing" textLength="91.6667" x="708.0729" y="1059.5942">FeatureService</text><line style="stroke:#4E5D6C;stroke-width:1.0416666666666667;" x1="621.875" x2="857.2917" y1="1072.7132" y2="1072.7132"/><ellipse cx="632.2917" cy="1090.3198" fill="none" rx="3.125" ry="3.125" style="stroke:#4E5D6C;stroke-width:1.0416666666666667;"/><text fill="#4E5D6C" font-family="Verdana" font-size="11.4583" lengthAdjust="spacing" textLength="202.0833" x="644.7917" y="1092.7241">BaseFeatureRepository repository</text><line style="stroke:#4E5D6C;stroke-width:1.0416666666666667;" x1="621.875" x2="857.2917" y1="1104.8014" y2="1104.8014"/><ellipse cx="632.2917" cy="1122.408" fill="#FFFFFF" rx="3.125" ry="3.125" style="stroke:#4E5D6C;stroke-width:1.0416666666666667;"/><text fill="#4E5D6C" font-family="Verdana" font-size="11.4583" lengthAdjust="spacing" textLength="110.4167" x="644.7917" y="1124.8123">dynamic getData()</text></g><!--class FeatureModel--><g id="elem_FeatureModel"><rect codeLine="77" fill="#FFFFFF" height="50.8382" id="FeatureModel" rx="4.1667" ry="4.1667" style="stroke:#4E5D6C;stroke-width:1.0416666666666667;" width="120.8333" x="1378.125" y="655.7292"/><ellipse cx="1391.6667" cy="672.8149" fill="#FFFFFF" rx="9.375" ry="9.375" style="stroke:#4E5D6C;stroke-width:1.0416666666666667;"/><path d="M1393.6035,669.4295 C1392.9199,669.104 1392.4805,669.0063 1391.8294,669.0063 C1389.9089,669.0063 1388.4277,670.52 1388.4277,672.522 L1388.4277,673.3521 C1388.4277,675.2563 1389.9902,676.6398 1392.1061,676.6398 C1393.0013,676.6398 1393.8639,676.4119 1394.401,676.005 C1394.8405,675.7121 1395.0684,675.3866 1395.0684,675.0936 C1395.0684,674.7681 1394.7754,674.4751 1394.4499,674.4751 C1394.2871,674.4751 1394.1406,674.5402 1393.9941,674.6704 C1393.6523,675.0285 1393.6523,675.0285 1393.5221,675.0936 C1393.2129,675.2889 1392.7083,675.3866 1392.1387,675.3866 C1390.6413,675.3866 1389.681,674.5728 1389.681,673.3195 L1389.681,672.522 C1389.681,671.2036 1390.6087,670.2433 1391.8783,670.2433 C1392.3014,670.2433 1392.7572,670.3573 1393.099,670.5526 C1393.457,670.7479 1393.5872,670.9106 1393.6523,671.2036 C1393.7012,671.5129 1393.7174,671.5942 1393.8151,671.6919 C1393.9128,671.8058 1394.0918,671.8709 1394.2546,671.8709 C1394.4661,671.8709 1394.6452,671.7733 1394.7754,671.6105 C1394.8568,671.4966 1394.8893,671.3664 1394.8893,671.0409 L1394.8893,669.9992 C1394.8893,669.6899 1394.873,669.5923 1394.7917,669.4784 C1394.6777,669.283 1394.4824,669.1691 1394.2546,669.1691 C1394.043,669.1691 1393.8965,669.2505 1393.7337,669.4784 L1393.6035,669.4295 Z " fill="#4E5D6C"/><text fill="#4E5D6C" font-family="Verdana" font-size="11.4583" lengthAdjust="spacing" textLength="81.25" x="1409.375" y="676.7817">FeatureModel</text><line style="stroke:#4E5D6C;stroke-width:1.0416666666666667;" x1="1379.1667" x2="1497.9167" y1="689.9007" y2="689.9007"/><line style="stroke:#4E5D6C;stroke-width:1.0416666666666667;" x1="1379.1667" x2="1497.9167" y1="698.234" y2="698.234"/></g><!--class BaseFeatureDataSource--><g id="elem_BaseFeatureDataSource"><rect codeLine="82" fill="#FFFFFF" height="74.5931" id="BaseFeatureDataSource" rx="4.1667" ry="4.1667" style="stroke:#4E5D6C;stroke-width:1.0416666666666667;" width="181.25" x="1635.4167" y="775"/><ellipse cx="1648.9583" cy="792.0858" fill="#FFFFFF" rx="9.375" ry="9.375" style="stroke:#4E5D6C;stroke-width:1.0416666666666667;"/><path d="M1650.5046,793.2414 L1650.7975,793.9575 L1650.5046,793.9575 C1650.1953,793.9575 1650.0977,793.9738 1649.9837,794.0552 C1649.8047,794.1528 1649.6908,794.3807 1649.6908,794.5923 C1649.6908,794.7876 1649.7884,794.9666 1649.9512,795.0806 C1650.0651,795.1782 1650.2116,795.2108 1650.5046,795.2108 L1652.2461,795.2108 C1652.5065,795.2108 1652.6693,795.1782 1652.7669,795.1294 C1652.9622,795.0155 1653.0762,794.8039 1653.0762,794.5923 C1653.0762,794.3807 1652.9785,794.2017 1652.8158,794.0877 C1652.6855,793.9901 1652.5716,793.9575 1652.2298,793.9575 L1649.7396,787.9191 L1647.0378,787.9191 C1646.696,787.9191 1646.6146,787.9354 1646.5007,788.0168 C1646.3053,788.1307 1646.2077,788.3423 1646.2077,788.5539 C1646.2077,788.7492 1646.3053,788.9282 1646.4681,789.0584 C1646.582,789.1561 1646.7122,789.1724 1647.0378,789.1724 L1647.819,789.1724 L1645.8822,793.9575 C1645.5729,793.9575 1645.459,793.9738 1645.3451,794.0552 C1645.166,794.1528 1645.0521,794.3807 1645.0521,794.5923 C1645.0521,794.9992 1645.3288,795.2108 1645.8822,795.2108 L1647.5423,795.2108 C1647.8027,795.2108 1647.9655,795.1782 1648.0632,795.1294 C1648.2422,795.0155 1648.3561,794.8039 1648.3561,794.5923 C1648.3561,794.3807 1648.2585,794.2017 1648.0957,794.0715 C1647.9818,793.9901 1647.8678,793.9575 1647.5423,793.9575 L1647.2493,793.9575 L1647.5423,793.2414 L1650.5046,793.2414 Z M1650,791.9881 L1648.0306,791.9881 L1649.0234,789.5793 L1650,791.9881 Z " fill="#4E5D6C"/><text fill="#4E5D6C" font-family="Verdana" font-size="11.4583" font-style="italic" lengthAdjust="spacing" textLength="141.6667" x="1666.6667" y="796.0526">BaseFeatureDataSource</text><line style="stroke:#4E5D6C;stroke-width:1.0416666666666667;" x1="1636.4583" x2="1815.625" y1="809.1715" y2="809.1715"/><line style="stroke:#4E5D6C;stroke-width:1.0416666666666667;" x1="1636.4583" x2="1815.625" y1="817.5049" y2="817.5049"/><ellipse cx="1646.875" cy="835.1115" fill="#FFFFFF" rx="3.125" ry="3.125" style="stroke:#4E5D6C;stroke-width:1.0416666666666667;"/><text fill="#4E5D6C" font-family="Verdana" font-size="11.4583" lengthAdjust="spacing" textLength="110.4167" x="1659.375" y="837.5158">dynamic getData()</text></g><!--class RemoteFeatureDataSource--><g id="elem_RemoteFeatureDataSource"><rect codeLine="88" fill="#FFFFFF" height="98.348" id="RemoteFeatureDataSource" rx="4.1667" ry="4.1667" style="stroke:#4E5D6C;stroke-width:1.0416666666666667;" width="320.8333" x="1879.1667" y="655.2083"/><ellipse cx="1949.2188" cy="672.2941" fill="#FFFFFF" rx="9.375" ry="9.375" style="stroke:#4E5D6C;stroke-width:1.0416666666666667;"/><path d="M1951.1556,668.9087 C1950.472,668.5832 1950.0326,668.4855 1949.3815,668.4855 C1947.4609,668.4855 1945.9798,669.9992 1945.9798,672.0011 L1945.9798,672.8312 C1945.9798,674.7355 1947.5423,676.119 1949.6582,676.119 C1950.5534,676.119 1951.416,675.8911 1951.9531,675.4842 C1952.3926,675.1912 1952.6204,674.8657 1952.6204,674.5728 C1952.6204,674.2472 1952.3275,673.9543 1952.002,673.9543 C1951.8392,673.9543 1951.6927,674.0194 1951.5462,674.1496 C1951.2044,674.5076 1951.2044,674.5076 1951.0742,674.5728 C1950.765,674.7681 1950.2604,674.8657 1949.6908,674.8657 C1948.1934,674.8657 1947.2331,674.0519 1947.2331,672.7987 L1947.2331,672.0011 C1947.2331,670.6828 1948.1608,669.7225 1949.4303,669.7225 C1949.8535,669.7225 1950.3092,669.8364 1950.651,670.0317 C1951.0091,670.2271 1951.1393,670.3898 1951.2044,670.6828 C1951.2533,670.992 1951.2695,671.0734 1951.3672,671.1711 C1951.4648,671.285 1951.6439,671.3501 1951.8066,671.3501 C1952.0182,671.3501 1952.1973,671.2524 1952.3275,671.0897 C1952.4089,670.9757 1952.4414,670.8455 1952.4414,670.52 L1952.4414,669.4784 C1952.4414,669.1691 1952.4251,669.0715 1952.3438,668.9575 C1952.2298,668.7622 1952.0345,668.6483 1951.8066,668.6483 C1951.5951,668.6483 1951.4486,668.7297 1951.2858,668.9575 L1951.1556,668.9087 Z " fill="#4E5D6C"/><text fill="#4E5D6C" font-family="Verdana" font-size="11.4583" lengthAdjust="spacing" textLength="162.5" x="1972.6563" y="676.2609">RemoteFeatureDataSource</text><line style="stroke:#4E5D6C;stroke-width:1.0416666666666667;" x1="1880.2083" x2="2198.9583" y1="689.3799" y2="689.3799"/><ellipse cx="1890.625" cy="706.9865" fill="none" rx="3.125" ry="3.125" style="stroke:#4E5D6C;stroke-width:1.0416666666666667;"/><text fill="#4E5D6C" font-family="Verdana" font-size="11.4583" lengthAdjust="spacing" textLength="285.4167" x="1903.125" y="709.3908">BaseMapper&lt;BaseEntity, BaseModel&gt;? mapper</text><line style="stroke:#4E5D6C;stroke-width:1.0416666666666667;" x1="1880.2083" x2="2198.9583" y1="721.4681" y2="721.4681"/><ellipse cx="1890.625" cy="739.0747" fill="#FFFFFF" rx="3.125" ry="3.125" style="stroke:#4E5D6C;stroke-width:1.0416666666666667;"/><text fill="#4E5D6C" font-family="Verdana" font-size="11.4583" lengthAdjust="spacing" textLength="110.4167" x="1903.125" y="741.479">dynamic getData()</text></g><!--class LocalFeatureDataSource--><g id="elem_LocalFeatureDataSource"><rect codeLine="96" fill="#FFFFFF" height="98.348" id="LocalFeatureDataSource" rx="4.1667" ry="4.1667" style="stroke:#4E5D6C;stroke-width:1.0416666666666667;" width="320.8333" x="1879.1667" y="789.5833"/><ellipse cx="1957.5521" cy="806.6691" fill="#FFFFFF" rx="9.375" ry="9.375" style="stroke:#4E5D6C;stroke-width:1.0416666666666667;"/><path d="M1959.4889,803.2837 C1958.8053,802.9582 1958.3659,802.8605 1957.7148,802.8605 C1955.7943,802.8605 1954.3132,804.3742 1954.3132,806.3761 L1954.3132,807.2062 C1954.3132,809.1105 1955.8757,810.494 1957.9915,810.494 C1958.8867,810.494 1959.7493,810.2661 1960.2865,809.8592 C1960.7259,809.5662 1960.9538,809.2407 1960.9538,808.9478 C1960.9538,808.6222 1960.6608,808.3293 1960.3353,808.3293 C1960.1725,808.3293 1960.026,808.3944 1959.8796,808.5246 C1959.5378,808.8826 1959.5378,808.8826 1959.4076,808.9478 C1959.0983,809.1431 1958.5938,809.2407 1958.0241,809.2407 C1956.5267,809.2407 1955.5664,808.4269 1955.5664,807.1737 L1955.5664,806.3761 C1955.5664,805.0578 1956.4941,804.0975 1957.7637,804.0975 C1958.1868,804.0975 1958.6426,804.2114 1958.9844,804.4067 C1959.3424,804.6021 1959.4727,804.7648 1959.5378,805.0578 C1959.5866,805.367 1959.6029,805.4484 1959.7005,805.5461 C1959.7982,805.66 1959.9772,805.7251 1960.14,805.7251 C1960.3516,805.7251 1960.5306,805.6274 1960.6608,805.4647 C1960.7422,805.3507 1960.7747,805.2205 1960.7747,804.895 L1960.7747,803.8534 C1960.7747,803.5441 1960.7585,803.4465 1960.6771,803.3325 C1960.5632,803.1372 1960.3678,803.0233 1960.14,803.0233 C1959.9284,803.0233 1959.7819,803.1047 1959.6191,803.3325 L1959.4889,803.2837 Z " fill="#4E5D6C"/><text fill="#4E5D6C" font-family="Verdana" font-size="11.4583" lengthAdjust="spacing" textLength="145.8333" x="1980.9896" y="810.6359">LocalFeatureDataSource</text><line style="stroke:#4E5D6C;stroke-width:1.0416666666666667;" x1="1880.2083" x2="2198.9583" y1="823.7549" y2="823.7549"/><ellipse cx="1890.625" cy="841.3615" fill="none" rx="3.125" ry="3.125" style="stroke:#4E5D6C;stroke-width:1.0416666666666667;"/><text fill="#4E5D6C" font-family="Verdana" font-size="11.4583" lengthAdjust="spacing" textLength="285.4167" x="1903.125" y="843.7658">BaseMapper&lt;BaseEntity, BaseModel&gt;? mapper</text><line style="stroke:#4E5D6C;stroke-width:1.0416666666666667;" x1="1880.2083" x2="2198.9583" y1="855.8431" y2="855.8431"/><ellipse cx="1890.625" cy="873.4497" fill="#FFFFFF" rx="3.125" ry="3.125" style="stroke:#4E5D6C;stroke-width:1.0416666666666667;"/><text fill="#4E5D6C" font-family="Verdana" font-size="11.4583" lengthAdjust="spacing" textLength="110.4167" x="1903.125" y="875.854">dynamic getData()</text></g><!--class FeatureRepository--><g id="elem_FeatureRepository"><rect codeLine="104" fill="#FFFFFF" height="74.5931" id="FeatureRepository" rx="4.1667" ry="4.1667" style="stroke:#4E5D6C;stroke-width:1.0416666666666667;" width="253.125" x="1311.9792" y="878.125"/><ellipse cx="1375.2604" cy="895.2108" fill="#FFFFFF" rx="9.375" ry="9.375" style="stroke:#4E5D6C;stroke-width:1.0416666666666667;"/><path d="M1377.1973,891.8254 C1376.5137,891.4998 1376.0742,891.4022 1375.4232,891.4022 C1373.5026,891.4022 1372.0215,892.9159 1372.0215,894.9178 L1372.0215,895.7479 C1372.0215,897.6522 1373.584,899.0356 1375.6999,899.0356 C1376.5951,899.0356 1377.4577,898.8078 1377.9948,898.4009 C1378.4342,898.1079 1378.6621,897.7824 1378.6621,897.4894 C1378.6621,897.1639 1378.3691,896.8709 1378.0436,896.8709 C1377.8809,896.8709 1377.7344,896.936 1377.5879,897.0662 C1377.2461,897.4243 1377.2461,897.4243 1377.1159,897.4894 C1376.8066,897.6847 1376.3021,897.7824 1375.7324,897.7824 C1374.235,897.7824 1373.2747,896.9686 1373.2747,895.7153 L1373.2747,894.9178 C1373.2747,893.5994 1374.2025,892.6392 1375.472,892.6392 C1375.8952,892.6392 1376.3509,892.7531 1376.6927,892.9484 C1377.0508,893.1437 1377.181,893.3065 1377.2461,893.5994 C1377.2949,893.9087 1377.3112,893.9901 1377.4089,894.0877 C1377.5065,894.2017 1377.6855,894.2668 1377.8483,894.2668 C1378.0599,894.2668 1378.2389,894.1691 1378.3691,894.0063 C1378.4505,893.8924 1378.4831,893.7622 1378.4831,893.4367 L1378.4831,892.395 C1378.4831,892.0858 1378.4668,891.9881 1378.3854,891.8742 C1378.2715,891.6789 1378.0762,891.5649 1377.8483,891.5649 C1377.6367,891.5649 1377.4902,891.6463 1377.3275,891.8742 L1377.1973,891.8254 Z " fill="#4E5D6C"/><text fill="#4E5D6C" font-family="Verdana" font-size="11.4583" lengthAdjust="spacing" textLength="108.3333" x="1398.6979" y="899.1776">FeatureRepository</text><line style="stroke:#4E5D6C;stroke-width:1.0416666666666667;" x1="1313.0208" x2="1564.0625" y1="912.2965" y2="912.2965"/><ellipse cx="1323.4375" cy="929.9032" fill="none" rx="3.125" ry="3.125" style="stroke:#4E5D6C;stroke-width:1.0416666666666667;"/><text fill="#4E5D6C" font-family="Verdana" font-size="11.4583" lengthAdjust="spacing" textLength="217.7083" x="1335.9375" y="932.3074">BaseFeatureDataSource dataSource</text><line style="stroke:#4E5D6C;stroke-width:1.0416666666666667;" x1="1313.0208" x2="1564.0625" y1="944.3848" y2="944.3848"/></g><!--class FeatureMapper--><g id="elem_FeatureMapper"><rect codeLine="111" fill="#FFFFFF" height="98.348" id="FeatureMapper" rx="4.1667" ry="4.1667" style="stroke:#4E5D6C;stroke-width:1.0416666666666667;" width="160.4167" x="1358.3333" y="743.75"/><ellipse cx="1385.9375" cy="760.8358" fill="#FFFFFF" rx="9.375" ry="9.375" style="stroke:#4E5D6C;stroke-width:1.0416666666666667;"/><path d="M1387.8743,757.4504 C1387.1908,757.1248 1386.7513,757.0272 1386.1003,757.0272 C1384.1797,757.0272 1382.6986,758.5409 1382.6986,760.5428 L1382.6986,761.3729 C1382.6986,763.2772 1384.2611,764.6606 1386.377,764.6606 C1387.2721,764.6606 1388.1348,764.4328 1388.6719,764.0259 C1389.1113,763.7329 1389.3392,763.4074 1389.3392,763.1144 C1389.3392,762.7889 1389.0462,762.4959 1388.7207,762.4959 C1388.5579,762.4959 1388.4115,762.561 1388.265,762.6912 C1387.9232,763.0493 1387.9232,763.0493 1387.793,763.1144 C1387.4837,763.3097 1386.9792,763.4074 1386.4095,763.4074 C1384.9121,763.4074 1383.9518,762.5936 1383.9518,761.3403 L1383.9518,760.5428 C1383.9518,759.2244 1384.8796,758.2642 1386.1491,758.2642 C1386.5723,758.2642 1387.028,758.3781 1387.3698,758.5734 C1387.7279,758.7687 1387.8581,758.9315 1387.9232,759.2244 C1387.972,759.5337 1387.9883,759.6151 1388.0859,759.7127 C1388.1836,759.8267 1388.3626,759.8918 1388.5254,759.8918 C1388.737,759.8918 1388.916,759.7941 1389.0462,759.6313 C1389.1276,759.5174 1389.1602,759.3872 1389.1602,759.0617 L1389.1602,758.02 C1389.1602,757.7108 1389.1439,757.6131 1389.0625,757.4992 C1388.9486,757.3039 1388.7533,757.1899 1388.5254,757.1899 C1388.3138,757.1899 1388.1673,757.2713 1388.0046,757.4992 L1387.8743,757.4504 Z " fill="#4E5D6C"/><text fill="#4E5D6C" font-family="Verdana" font-size="11.4583" lengthAdjust="spacing" textLength="89.5833" x="1406.7708" y="764.8026">FeatureMapper</text><line style="stroke:#4E5D6C;stroke-width:1.0416666666666667;" x1="1359.375" x2="1517.7083" y1="777.9215" y2="777.9215"/><line style="stroke:#4E5D6C;stroke-width:1.0416666666666667;" x1="1359.375" x2="1517.7083" y1="786.2549" y2="786.2549"/><ellipse cx="1369.7917" cy="803.8615" fill="#FFFFFF" rx="3.125" ry="3.125" style="stroke:#4E5D6C;stroke-width:1.0416666666666667;"/><text fill="#4E5D6C" font-family="Verdana" font-size="11.4583" lengthAdjust="spacing" textLength="125" x="1382.2917" y="806.2658">BaseModel toModel()</text><ellipse cx="1369.7917" cy="827.6164" fill="#FFFFFF" rx="3.125" ry="3.125" style="stroke:#4E5D6C;stroke-width:1.0416666666666667;"/><text fill="#4E5D6C" font-family="Verdana" font-size="11.4583" lengthAdjust="spacing" textLength="120.8333" x="1382.2917" y="830.0207">BaseEntity toEntity()</text></g><!--class ExtendedBloc--><g id="elem_ExtendedBloc"><rect codeLine="118" fill="#FFFFFF" height="98.348" id="ExtendedBloc" rx="4.1667" ry="4.1667" style="stroke:#4E5D6C;stroke-width:1.0416666666666667;" width="165.625" x="356.7708" y="655.2083"/><ellipse cx="390" cy="672.2941" fill="#FFFFFF" rx="9.375" ry="9.375" style="stroke:#4E5D6C;stroke-width:1.0416666666666667;"/><path d="M391.9368,668.9087 C391.2533,668.5832 390.8138,668.4855 390.1628,668.4855 C388.2422,668.4855 386.7611,669.9992 386.7611,672.0011 L386.7611,672.8312 C386.7611,674.7355 388.3236,676.119 390.4395,676.119 C391.3346,676.119 392.1973,675.8911 392.7344,675.4842 C393.1738,675.1912 393.4017,674.8657 393.4017,674.5728 C393.4017,674.2472 393.1087,673.9543 392.7832,673.9543 C392.6204,673.9543 392.474,674.0194 392.3275,674.1496 C391.9857,674.5076 391.9857,674.5076 391.8555,674.5728 C391.5462,674.7681 391.0417,674.8657 390.472,674.8657 C388.9746,674.8657 388.0143,674.0519 388.0143,672.7987 L388.0143,672.0011 C388.0143,670.6828 388.9421,669.7225 390.2116,669.7225 C390.6348,669.7225 391.0905,669.8364 391.4323,670.0317 C391.7904,670.2271 391.9206,670.3898 391.9857,670.6828 C392.0345,670.992 392.0508,671.0734 392.1484,671.1711 C392.2461,671.285 392.4251,671.3501 392.5879,671.3501 C392.7995,671.3501 392.9785,671.2524 393.1087,671.0897 C393.1901,670.9757 393.2227,670.8455 393.2227,670.52 L393.2227,669.4784 C393.2227,669.1691 393.2064,669.0715 393.125,668.9575 C393.0111,668.7622 392.8158,668.6483 392.5879,668.6483 C392.3763,668.6483 392.2298,668.7297 392.0671,668.9575 L391.9368,668.9087 Z " fill="#4E5D6C"/><text fill="#4E5D6C" font-family="Verdana" font-size="11.4583" lengthAdjust="spacing" textLength="82.2917" x="412.0833" y="676.2609">ExtendedBloc</text><line style="stroke:#4E5D6C;stroke-width:1.0416666666666667;" x1="357.8125" x2="521.3542" y1="689.3799" y2="689.3799"/><line style="stroke:#4E5D6C;stroke-width:1.0416666666666667;" x1="357.8125" x2="521.3542" y1="697.7132" y2="697.7132"/><ellipse cx="368.2292" cy="715.3198" fill="#FFFFFF" rx="3.125" ry="3.125" style="stroke:#4E5D6C;stroke-width:1.0416666666666667;"/><text fill="#4E5D6C" font-family="Verdana" font-size="11.4583" lengthAdjust="spacing" textLength="110.4167" x="380.7292" y="717.7241">dynamic getData()</text><ellipse cx="368.2292" cy="739.0747" fill="#FFFFFF" rx="3.125" ry="3.125" style="stroke:#4E5D6C;stroke-width:1.0416666666666667;"/><text fill="#4E5D6C" font-family="Verdana" font-size="11.4583" lengthAdjust="spacing" textLength="130.2083" x="380.7292" y="741.479">void onChangeState()</text></g><!--class Bloc--><g id="elem_Bloc"><rect codeLine="126" fill="#FFFFFF" height="74.5931" id="Bloc" rx="4.1667" ry="4.1667" style="stroke:#4E5D6C;stroke-width:1.0416666666666667;" width="205.2083" x="53.125" y="878.125"/><ellipse cx="134.1146" cy="895.2108" fill="#FFFFFF" rx="9.375" ry="9.375" style="stroke:#4E5D6C;stroke-width:1.0416666666666667;"/><path d="M136.0514,891.8254 C135.3678,891.4998 134.9284,891.4022 134.2773,891.4022 C132.3568,891.4022 130.8757,892.9159 130.8757,894.9178 L130.8757,895.7479 C130.8757,897.6522 132.4382,899.0356 134.554,899.0356 C135.4492,899.0356 136.3118,898.8078 136.849,898.4009 C137.2884,898.1079 137.5163,897.7824 137.5163,897.4894 C137.5163,897.1639 137.2233,896.8709 136.8978,896.8709 C136.735,896.8709 136.5885,896.936 136.4421,897.0662 C136.1003,897.4243 136.1003,897.4243 135.9701,897.4894 C135.6608,897.6847 135.1563,897.7824 134.5866,897.7824 C133.0892,897.7824 132.1289,896.9686 132.1289,895.7153 L132.1289,894.9178 C132.1289,893.5994 133.0566,892.6392 134.3262,892.6392 C134.7493,892.6392 135.2051,892.7531 135.5469,892.9484 C135.9049,893.1437 136.0352,893.3065 136.1003,893.5994 C136.1491,893.9087 136.1654,893.9901 136.263,894.0877 C136.3607,894.2017 136.5397,894.2668 136.7025,894.2668 C136.9141,894.2668 137.0931,894.1691 137.2233,894.0063 C137.3047,893.8924 137.3372,893.7622 137.3372,893.4367 L137.3372,892.395 C137.3372,892.0858 137.321,891.9881 137.2396,891.8742 C137.1257,891.6789 136.9303,891.5649 136.7025,891.5649 C136.4909,891.5649 136.3444,891.6463 136.1816,891.8742 L136.0514,891.8254 Z " fill="#4E5D6C"/><text fill="#4E5D6C" font-family="Verdana" font-size="11.4583" lengthAdjust="spacing" textLength="25" x="157.5521" y="899.1776">Bloc</text><line style="stroke:#4E5D6C;stroke-width:1.0416666666666667;" x1="54.1667" x2="257.2917" y1="912.2965" y2="912.2965"/><ellipse cx="64.5833" cy="929.9032" fill="none" rx="3.125" ry="3.125" style="stroke:#4E5D6C;stroke-width:1.0416666666666667;"/><text fill="#4E5D6C" font-family="Verdana" font-size="11.4583" lengthAdjust="spacing" textLength="169.7917" x="77.0833" y="932.3074">BaseFeatureService service</text><line style="stroke:#4E5D6C;stroke-width:1.0416666666666667;" x1="54.1667" x2="257.2917" y1="944.3848" y2="944.3848"/></g><!--class Widget--><g id="elem_Widget"><rect codeLine="132" fill="#FFFFFF" height="50.8382" id="Widget" rx="4.1667" ry="4.1667" style="stroke:#4E5D6C;stroke-width:1.0416666666666667;" width="81.25" x="115.1042" y="790.1042"/><ellipse cx="128.6458" cy="807.1899" fill="#FFFFFF" rx="9.375" ry="9.375" style="stroke:#4E5D6C;stroke-width:1.0416666666666667;"/><path d="M130.5827,803.8045 C129.8991,803.479 129.4596,803.3813 128.8086,803.3813 C126.888,803.3813 125.4069,804.895 125.4069,806.897 L125.4069,807.7271 C125.4069,809.6313 126.9694,811.0148 129.0853,811.0148 C129.9805,811.0148 130.8431,810.7869 131.3802,810.38 C131.8197,810.0871 132.0475,809.7616 132.0475,809.4686 C132.0475,809.1431 131.7546,808.8501 131.429,808.8501 C131.2663,808.8501 131.1198,808.9152 130.9733,809.0454 C130.6315,809.4035 130.6315,809.4035 130.5013,809.4686 C130.1921,809.6639 129.6875,809.7616 129.1178,809.7616 C127.6204,809.7616 126.6602,808.9478 126.6602,807.6945 L126.6602,806.897 C126.6602,805.5786 127.5879,804.6183 128.8574,804.6183 C129.2806,804.6183 129.7363,804.7323 130.0781,804.9276 C130.4362,805.1229 130.5664,805.2856 130.6315,805.5786 C130.6803,805.8879 130.6966,805.9692 130.7943,806.0669 C130.8919,806.1808 131.071,806.2459 131.2337,806.2459 C131.4453,806.2459 131.6243,806.1483 131.7546,805.9855 C131.8359,805.8716 131.8685,805.7414 131.8685,805.4159 L131.8685,804.3742 C131.8685,804.0649 131.8522,803.9673 131.7708,803.8534 C131.6569,803.658 131.4616,803.5441 131.2337,803.5441 C131.0221,803.5441 130.8757,803.6255 130.7129,803.8534 L130.5827,803.8045 Z " fill="#4E5D6C"/><text fill="#4E5D6C" font-family="Verdana" font-size="11.4583" lengthAdjust="spacing" textLength="41.6667" x="146.3542" y="811.1567">Widget</text><line style="stroke:#4E5D6C;stroke-width:1.0416666666666667;" x1="116.1458" x2="195.3125" y1="824.2757" y2="824.2757"/><line style="stroke:#4E5D6C;stroke-width:1.0416666666666667;" x1="116.1458" x2="195.3125" y1="832.609" y2="832.609"/></g><!--class Page--><g id="elem_Page"><rect codeLine="135" fill="#FFFFFF" height="98.348" id="Page" rx="4.1667" ry="4.1667" style="stroke:#4E5D6C;stroke-width:1.0416666666666667;" width="165.625" x="72.9167" y="655.2083"/><ellipse cx="132.0313" cy="672.2941" fill="#FFFFFF" rx="9.375" ry="9.375" style="stroke:#4E5D6C;stroke-width:1.0416666666666667;"/><path d="M133.9681,668.9087 C133.2845,668.5832 132.8451,668.4855 132.194,668.4855 C130.2734,668.4855 128.7923,669.9992 128.7923,672.0011 L128.7923,672.8312 C128.7923,674.7355 130.3548,676.119 132.4707,676.119 C133.3659,676.119 134.2285,675.8911 134.7656,675.4842 C135.2051,675.1912 135.4329,674.8657 135.4329,674.5728 C135.4329,674.2472 135.14,673.9543 134.8145,673.9543 C134.6517,673.9543 134.5052,674.0194 134.3587,674.1496 C134.0169,674.5076 134.0169,674.5076 133.8867,674.5728 C133.5775,674.7681 133.0729,674.8657 132.5033,674.8657 C131.0059,674.8657 130.0456,674.0519 130.0456,672.7987 L130.0456,672.0011 C130.0456,670.6828 130.9733,669.7225 132.2428,669.7225 C132.666,669.7225 133.1217,669.8364 133.4635,670.0317 C133.8216,670.2271 133.9518,670.3898 134.0169,670.6828 C134.0658,670.992 134.082,671.0734 134.1797,671.1711 C134.2773,671.285 134.4564,671.3501 134.6191,671.3501 C134.8307,671.3501 135.0098,671.2524 135.14,671.0897 C135.2214,670.9757 135.2539,670.8455 135.2539,670.52 L135.2539,669.4784 C135.2539,669.1691 135.2376,669.0715 135.1563,668.9575 C135.0423,668.7622 134.847,668.6483 134.6191,668.6483 C134.4076,668.6483 134.2611,668.7297 134.0983,668.9575 L133.9681,668.9087 Z " fill="#4E5D6C"/><text fill="#4E5D6C" font-family="Verdana" font-size="11.4583" lengthAdjust="spacing" textLength="29.1667" x="155.4688" y="676.2609">Page</text><line style="stroke:#4E5D6C;stroke-width:1.0416666666666667;" x1="73.9583" x2="237.5" y1="689.3799" y2="689.3799"/><ellipse cx="84.375" cy="706.9865" fill="none" rx="3.125" ry="3.125" style="stroke:#4E5D6C;stroke-width:1.0416666666666667;"/><text fill="#4E5D6C" font-family="Verdana" font-size="11.4583" lengthAdjust="spacing" textLength="110.4167" x="96.875" y="709.3908">ExtendedBloc bloc</text><ellipse cx="84.375" cy="730.7414" fill="none" rx="3.125" ry="3.125" style="stroke:#4E5D6C;stroke-width:1.0416666666666667;"/><text fill="#4E5D6C" font-family="Verdana" font-size="11.4583" lengthAdjust="spacing" textLength="130.2083" x="96.875" y="733.1457">List&lt;Widget&gt; widgets</text><line style="stroke:#4E5D6C;stroke-width:1.0416666666666667;" x1="73.9583" x2="237.5" y1="745.223" y2="745.223"/></g><!--reverse link BaseService to BaseRepository--><g id="link_BaseService_BaseRepository"><path codeLine="12" d="M548.2073,294.7917 C579.1135,294.7917 601.0979,294.7917 632.7385,294.7917 " fill="none" id="BaseService-backto-BaseRepository" style="stroke:#4E5D6C;stroke-width:1.0416666666666667;"/><polygon fill="none" points="535.7073,294.7917,541.9573,298.9583,548.2073,294.7917,541.9573,290.625,535.7073,294.7917" style="stroke:#4E5D6C;stroke-width:1.0416666666666667;"/></g><!--reverse link BaseDataSource to BaseMapper<BaseEntity, BaseModel>--><g id="link_BaseDataSource_BaseMapper&lt;BaseEntity, BaseModel&gt;"><path codeLine="18" d="M1222.2208,188.0674 C1233.0124,193.5164 1232.2396,194.0573 1241.6667,201.0417 C1331.9167,267.8698 1398.7604,388.0719 1425.1458,440.7458 " fill="none" id="BaseDataSource-backto-BaseMapper&lt;BaseEntity, BaseModel&gt;" style="stroke:#4E5D6C;stroke-width:1.0416666666666667;"/><polygon fill="none" points="1211.0625,182.4333,1214.7636,188.9698,1222.2208,188.0674,1218.5197,181.5309,1211.0625,182.4333" style="stroke:#4E5D6C;stroke-width:1.0416666666666667;"/></g><!--reverse link BaseRepository to BaseDataSource--><g id="link_BaseRepository_BaseDataSource"><path codeLine="38" d="M857.7488,259.6219 C871.3092,252.475 872.9833,249.4625 883.3333,238.5417 C895.4177,225.7896 883.2521,213.3042 895.8333,201.0417 C903.2625,193.8 911.5958,187.4885 920.5063,181.9854 " fill="none" id="BaseRepository-backto-BaseDataSource" style="stroke:#4E5D6C;stroke-width:1.0416666666666667;"/><polygon fill="none" points="846.6906,265.45,854.1624,266.222,857.7488,259.6219,850.277,258.8499,846.6906,265.45" style="stroke:#4E5D6C;stroke-width:1.0416666666666667;"/></g><!--reverse link BaseStateListener to StateListener--><g id="link_BaseStateListener_StateListener"><path codeLine="47" d="M531.4927,455.2083 C574.8885,455.2083 611.5156,455.2083 656.5677,455.2083 " fill="none" id="BaseStateListener-backto-StateListener" style="stroke:#4E5D6C;stroke-width:1.0416666666666667;"/><polygon fill="none" points="512.7427,455.2083,531.4927,461.4583,531.4927,448.9583,512.7427,455.2083" style="stroke:#4E5D6C;stroke-width:1.0416666666666667;"/></g><!--reverse link BaseEntity to FeatureEntity--><g id="link_BaseEntity_FeatureEntity"><path codeLine="52" d="M809.3288,198.4378 C841.1392,202.2274 861.6542,210.5917 883.3333,238.5417 C901.7969,262.3448 885.475,481.0875 895.8333,509.375 C928.7688,599.3198 1008.4479,682.7823 1051.4896,723.2938 " fill="none" id="BaseEntity-backto-FeatureEntity" style="stroke:#4E5D6C;stroke-width:1.0416666666666667;"/><polygon fill="none" points="790.7104,196.2198,808.5894,204.6439,810.0681,192.2317,790.7104,196.2198" style="stroke:#4E5D6C;stroke-width:1.0416666666666667;"/></g><!--reverse link BaseFeatureRepository to BaseDataSource--><g id="link_BaseFeatureRepository_BaseDataSource"><path codeLine="58" d="M965.3177,840.4551 C923.8073,831.7051 896.3615,815.151 889.5833,774.4792 C884.5125,744.0542 884.5125,249.6958 889.5833,219.2708 C892.9875,198.8469 904.6875,183.8542 920.749,172.8813 " fill="none" id="BaseFeatureRepository-backto-BaseDataSource" style="stroke:#4E5D6C;stroke-width:1.0416666666666667;"/><polygon fill="none" points="977.549,843.0333,972.2928,837.6671,965.3177,840.4551,970.5739,845.8213,977.549,843.0333" style="stroke:#4E5D6C;stroke-width:1.0416666666666667;"/></g><!--reverse link BaseRepository to BaseFeatureRepository--><g id="link_BaseRepository_BaseFeatureRepository"><path codeLine="59" d="M831.3871,342.6032 C857.5455,359.7553 868.3885,372.4313 883.3333,401.0417 C903.4917,439.6344 869.3688,758.1333 895.8333,792.7083 C915.4625,818.3531 946.4917,832.6573 977.5365,840.526 " fill="none" id="BaseRepository-backto-BaseFeatureRepository" style="stroke:#4E5D6C;stroke-width:1.0416666666666667;"/><polygon fill="none" points="815.7073,332.3219,827.96,347.8298,834.8142,337.3766,815.7073,332.3219" style="stroke:#4E5D6C;stroke-width:1.0416666666666667;"/></g><!--reverse link BaseFeatureService to BaseFeatureRepository--><g id="link_BaseFeatureService_BaseFeatureRepository"><path codeLine="66" d="M570.3605,1035.3043 C586.8146,1028.823 591.899,1026.899 607.8125,1020.8333 C734.6208,972.4948 881.6729,919.4646 977.5875,885.2781 " fill="none" id="BaseFeatureService-backto-BaseFeatureRepository" style="stroke:#4E5D6C;stroke-width:1.0416666666666667;"/><polygon fill="none" points="558.7302,1039.8854,566.0724,1041.4716,570.3605,1035.3043,563.0183,1033.7181,558.7302,1039.8854" style="stroke:#4E5D6C;stroke-width:1.0416666666666667;"/></g><!--reverse link BaseService to BaseFeatureService--><g id="link_BaseService_BaseFeatureService"><path codeLine="67" d="M342.5925,342.2281 C309.4643,362.5885 291.3354,381.5781 276.0417,419.2708 C253.8052,474.075 253.8052,896.7583 276.0417,951.5625 C290.4781,987.1427 320.176,1016.249 350.3521,1038.2688 " fill="none" id="BaseService-backto-BaseFeatureService" style="stroke:#4E5D6C;stroke-width:1.0416666666666667;"/><polygon fill="none" points="358.5667,332.4104,339.3199,336.9034,345.865,347.5528,358.5667,332.4104" style="stroke:#4E5D6C;stroke-width:1.0416666666666667;"/></g><!--reverse link FeatureService to BaseFeatureRepository--><g id="link_FeatureService_BaseFeatureRepository"><path codeLine="74" d="M820.8036,1031.1784 C884.9723,986.1023 968.4208,927.4844 1026.7719,886.4948 " fill="none" id="FeatureService-backto-BaseFeatureRepository" style="stroke:#4E5D6C;stroke-width:1.0416666666666667;"/><polygon fill="none" points="810.575,1038.3635,818.0843,1038.1805,820.8036,1031.1784,813.2942,1031.3614,810.575,1038.3635" style="stroke:#4E5D6C;stroke-width:1.0416666666666667;"/></g><!--reverse link BaseFeatureService to FeatureService--><g id="link_BaseFeatureService_FeatureService"><path codeLine="75" d="M577.1198,1087.5 C597.6125,1087.5 600.1802,1087.5 620.6771,1087.5 " fill="none" id="BaseFeatureService-backto-FeatureService" style="stroke:#4E5D6C;stroke-width:1.0416666666666667;"/><polygon fill="none" points="558.3698,1087.5,577.1198,1093.75,577.1198,1081.25,558.3698,1087.5" style="stroke:#4E5D6C;stroke-width:1.0416666666666667;"/></g><!--reverse link BaseModel to FeatureModel--><g id="link_BaseModel_FeatureModel"><path codeLine="80" d="M1151.6026,246.4729 C1187.2901,249.4313 1214.6979,258.0031 1241.6667,288.5417 C1334.5729,393.7323 1206.2813,486.2208 1286.9792,601.0417 C1308.6042,631.8094 1345.8125,651.7896 1377.8333,664.1135 " fill="none" id="BaseModel-backto-FeatureModel" style="stroke:#4E5D6C;stroke-width:1.0416666666666667;"/><polygon fill="none" points="1132.9167,244.924,1151.0862,252.7016,1152.1189,240.2443,1132.9167,244.924" style="stroke:#4E5D6C;stroke-width:1.0416666666666667;"/></g><!--reverse link BaseDataSource to BaseFeatureDataSource--><g id="link_BaseDataSource_BaseFeatureDataSource"><path codeLine="86" d="M1236.95,193.5813 C1244.2833,198.9625 1235.8854,194.0177 1241.6667,201.0417 C1329.9583,308.3552 1199.8958,402.1229 1286.9792,510.4167 C1387.0208,634.8135 1524.8542,511.5354 1622.9167,637.5 C1652.9688,676.1083 1610.8438,704.5656 1635.4167,746.875 C1641.5208,757.3781 1650.0417,766.6865 1659.4271,774.751 " fill="none" id="BaseDataSource-backto-BaseFeatureDataSource" style="stroke:#4E5D6C;stroke-width:1.0416666666666667;"/><polygon fill="none" points="1221.8333,182.4885,1233.2524,198.6202,1240.6476,188.5424,1221.8333,182.4885" style="stroke:#4E5D6C;stroke-width:1.0416666666666667;"/></g><!--reverse link RemoteFeatureDataSource to BaseMapper<BaseEntity, BaseModel>--><g id="link_RemoteFeatureDataSource_BaseMapper&lt;BaseEntity, BaseModel&gt;"><path codeLine="93" d="M1939.3972,649.2257 C1899.2722,627.9215 1861.7917,609.4542 1816.6667,590.625 C1721.1146,550.7531 1607.8229,514.9844 1530.5417,492.2365 " fill="none" id="RemoteFeatureDataSource-backto-BaseMapper&lt;BaseEntity, BaseModel&gt;" style="stroke:#4E5D6C;stroke-width:1.0416666666666667;"/><polygon fill="none" points="1950.4375,655.0875,1946.8713,648.4765,1939.3972,649.2257,1942.9634,655.8367,1950.4375,655.0875" style="stroke:#4E5D6C;stroke-width:1.0416666666666667;"/></g><!--reverse link BaseFeatureDataSource to RemoteFeatureDataSource--><g id="link_BaseFeatureDataSource_RemoteFeatureDataSource"><path codeLine="94" d="M1834.4594,775.1509 C1859.7094,766.3686 1870.0938,762.7573 1897.5729,753.201 " fill="none" id="BaseFeatureDataSource-backto-RemoteFeatureDataSource" style="stroke:#4E5D6C;stroke-width:1.0416666666666667;"/><polygon fill="none" points="1816.75,781.3104,1836.5126,781.054,1832.4062,769.2477,1816.75,781.3104" style="stroke:#4E5D6C;stroke-width:1.0416666666666667;"/></g><!--reverse link LocalFeatureDataSource to BaseMapper<BaseEntity, BaseModel>--><g id="link_LocalFeatureDataSource_BaseMapper&lt;BaseEntity, BaseModel&gt;"><path codeLine="101" d="M1901.94,784.0444 C1890.2421,778.4829 1890.0208,777.976 1879.1667,771.875 C1762.4479,706.2448 1710.8958,705.3948 1635.4167,594.7917 C1623.0104,576.6125 1637.2083,563.6115 1622.9167,546.875 C1601.5938,521.9083 1571.0313,504.4448 1540.9583,492.3469 " fill="none" id="LocalFeatureDataSource-backto-BaseMapper&lt;BaseEntity, BaseModel&gt;" style="stroke:#4E5D6C;stroke-width:1.0416666666666667;"/><polygon fill="none" points="1913.2292,789.4115,1909.3736,782.9649,1901.94,784.0444,1905.7956,790.4909,1913.2292,789.4115" style="stroke:#4E5D6C;stroke-width:1.0416666666666667;"/></g><!--reverse link BaseFeatureDataSource to LocalFeatureDataSource--><g id="link_BaseFeatureDataSource_LocalFeatureDataSource"><path codeLine="102" d="M1835.4348,821.5594 C1855.0285,823.1979 1857.6354,823.4156 1879.0313,825.2052 " fill="none" id="BaseFeatureDataSource-backto-LocalFeatureDataSource" style="stroke:#4E5D6C;stroke-width:1.0416666666666667;"/><polygon fill="none" points="1816.75,819.9969,1834.9139,827.7877,1835.9556,815.3311,1816.75,819.9969" style="stroke:#4E5D6C;stroke-width:1.0416666666666667;"/></g><!--reverse link FeatureRepository to BaseFeatureDataSource--><g id="link_FeatureRepository_BaseFeatureDataSource"><path codeLine="108" d="M1577.0746,876.6766 C1596.5642,870.4548 1604.4479,867.4885 1622.9167,860.4167 C1631.1458,857.2667 1639.6354,853.7427 1648.0417,850.075 " fill="none" id="FeatureRepository-backto-BaseFeatureDataSource" style="stroke:#4E5D6C;stroke-width:1.0416666666666667;"/><polygon fill="none" points="1565.1667,880.4781,1572.3878,882.5467,1577.0746,876.6766,1569.8535,874.6081,1565.1667,880.4781" style="stroke:#4E5D6C;stroke-width:1.0416666666666667;"/></g><!--reverse link BaseFeatureRepository to FeatureRepository--><g id="link_BaseFeatureRepository_FeatureRepository"><path codeLine="109" d="M1203.4594,871.6996 C1243.0011,879.1214 1270.1875,884.2229 1311.6667,892.0073 " fill="none" id="BaseFeatureRepository-backto-FeatureRepository" style="stroke:#4E5D6C;stroke-width:1.0416666666666667;"/><polygon fill="none" points="1185.0313,868.2406,1202.3065,877.8423,1204.6124,865.5568,1185.0313,868.2406" style="stroke:#4E5D6C;stroke-width:1.0416666666666667;"/></g><!--reverse link BaseMapper to FeatureMapper--><g id="link_BaseMapper_FeatureMapper"><path codeLine="116" d="M1116.4705,509.2077 C1150.1164,570.5921 1206,659.224 1286.9792,725 C1307.8854,741.9823 1333.7292,755.6219 1358.0729,766.0844 " fill="none" id="BaseMapper-backto-FeatureMapper" style="stroke:#4E5D6C;stroke-width:1.0416666666666667;"/><polygon fill="none" points="1107.4583,492.7656,1110.9898,512.2118,1121.9512,506.2037,1107.4583,492.7656" style="stroke:#4E5D6C;stroke-width:1.0416666666666667;"/></g><!--reverse link Bloc to ExtendedBloc--><g id="link_Bloc_ExtendedBloc"><path codeLine="123" d="M245.0758,868.5681 C255.156,862.6295 249.0708,865.826 258.3333,859.375 C304.4125,827.2792 352.3917,785.4813 387.2479,753.3479 " fill="none" id="Bloc-backto-ExtendedBloc" style="stroke:#4E5D6C;stroke-width:1.0416666666666667;"/><polygon fill="none" points="228.9208,878.0854,248.2482,873.9531,241.9033,863.1831,228.9208,878.0854" style="stroke:#4E5D6C;stroke-width:1.0416666666666667;"/></g><!--reverse link StateListener to ExtendedBloc--><g id="link_StateListener_ExtendedBloc"><path codeLine="124" d="M679.028,504.942 C627.2217,548.2347 556.4604,607.3667 499.4833,654.9802 " fill="none" id="StateListener-backto-ExtendedBloc" style="stroke:#4E5D6C;stroke-width:1.0416666666666667;"/><polygon fill="none" points="693.4156,492.9188,675.0202,500.1461,683.0357,509.7379,693.4156,492.9188" style="stroke:#4E5D6C;stroke-width:1.0416666666666667;"/></g><!--reverse link Bloc to BaseFeatureService--><g id="link_Bloc_BaseFeatureService"><path codeLine="130" d="M228.9297,959.6407 C269.9786,984.6803 313.7094,1011.3542 358.1781,1038.4792 " fill="none" id="Bloc-backto-BaseFeatureService" style="stroke:#4E5D6C;stroke-width:1.0416666666666667;"/><polygon fill="none" points="218.2583,953.1313,221.4242,959.9431,228.9297,959.6407,225.7638,952.8289,218.2583,953.1313" style="stroke:#4E5D6C;stroke-width:1.0416666666666667;"/></g><!--reverse link Page to ExtendedBloc--><g id="link_Page_ExtendedBloc"><path codeLine="140" d="M251.149,704.1667 C288.1958,704.1667 319.3875,704.1667 356.4594,704.1667 " fill="none" id="Page-backto-ExtendedBloc" style="stroke:#4E5D6C;stroke-width:1.0416666666666667;"/><polygon fill="none" points="238.649,704.1667,244.899,708.3333,251.149,704.1667,244.899,700,238.649,704.1667" style="stroke:#4E5D6C;stroke-width:1.0416666666666667;"/></g><!--SRC=[pLTDRzim3BtxLwWvRTYo7s04BT0kExN0q1vsB5YBJGJObY6fxOAj_tsIbSRoXpvi5DjEiHNnyV5H8kapjSSA2Rp8DHTGxp0xiojD2QpECecAr52XRA30Esn0WEA2v7cMbVYeYE94iDrU4Se45efnRGCFKWae52bAa9Ai2YumprcjqAnoyOM2K7b-2L8ZYcTMu8hyoWZvP5PkiU6IwLq78awFsMkM9S7mzVhD7-MLZi3Pr26lV1mfA70ilkhNE_uaUWHle6bGRCpZjbPC7JwJTfbJBCylIDN-xH0EOBfi-xk2JbBfjxiDyzVPySevPfRiKQAjFXAMyeUFvlr6lxT4zAiVS9WhYn0c4SXlbwqkf0j2JyzkUa8m_WGvQVGHV2XvSLz13JlidLK52g-PL5XRqJINcDt8HaVtp1ablBxQcrlRRh0Ap_A- -Tr56FLxulc8e9uwyUvBE9nCljd_UWcCPTcoI4STAnwoDPwEzf4ZCZmX2r3JJapAsOkBCaqX84vNEtquuteySk2MPRs77dHxO0NPeJ8H7i_W4fTyORn9ZM6WPZgjyQ7tsFvb1TzDlIMfIbCpggIv8LCMRkCAjhRX7GdYXQh6qD09UZG4JEShsknZNATT9eXsYnLNNhRf8qlyAAQxNZpPpCz9J5SVnmHbhta1vJyHrkVvFzBLGp7zbaysun6WloSdmF95Lsv9tq-iHBq-dLmEtVdwb5HdhZuksxoxyxU_VXuXKmketJwct0YKMEifKN_uzGotF_NCI95Uwg7IMpT3KspSXOKUH916A4iUjPV1f-law3Dkj4JQtrc2y7SRTBoEVZ2gazZ_TebRVTSgltqaEceHamIpQ4JVMEXpyjB-oiJ8BJHVaAe_]--></g></svg>